SplineFontDB: 3.2
FontName: notosansguzrati
FullName: notosansguzrati
FamilyName: notosansguzrati
Weight: Regular
Copyright: Copyright 2022 The Noto Project Authors (https://github.com/notofonts/gujarati)
Version: 2.106
ItalicAngle: 0
UnderlinePosition: -125
UnderlineWidth: 50
Ascent: 800
Descent: 200
InvalidEm: 0
sfntRevision: 0x00021b23
LayerCount: 2
Layer: 0 1 "Back" 1
Layer: 1 1 "Fore" 0
XUID: [1021 238 -758118090 3076380]
StyleMap: 0x0040
FSType: 0
OS2Version: 4
OS2_WeightWidthSlopeOnly: 0
OS2_UseTypoMetrics: 1
CreationTime: 1634404486
ModificationTime: 1738532784
PfmFamily: 81
TTFWeight: 400
TTFWidth: 5
LineGap: 0
VLineGap: 0
Panose: 0 0 0 0 0 0 0 0 0 0
OS2TypoAscent: 896
OS2TypoAOffset: 0
OS2TypoDescent: -408
OS2TypoDOffset: 0
OS2TypoLinegap: 0
OS2WinAscent: 1076
OS2WinAOffset: 0
OS2WinDescent: 408
OS2WinDOffset: 0
HheadAscent: 896
HheadAOffset: 0
HheadDescent: -408
HheadDOffset: 0
OS2SubXSize: 650
OS2SubYSize: 600
OS2SubXOff: 0
OS2SubYOff: 75
OS2SupXSize: 650
OS2SupYSize: 600
OS2SupXOff: 0
OS2SupYOff: 350
OS2StrikeYSize: 50
OS2StrikeYPos: 322
OS2CapHeight: 592
OS2XHeight: 536
OS2Vendor: 'GOOG'
OS2CodePages: 00000093.00000000
OS2UnicodeRanges: 80048003.00002042.00000000.00000000
Lookup: 1 0 0 "'aalt' Access All Alternates lookup 0" { "'aalt' Access All Alternates lookup 0 subtable"  } ['aalt' ('DFLT' <'dflt' > 'cyrl' <'dflt' > 'dev2' <'dflt' > 'gjr2' <'dflt' > 'grek' <'dflt' > 'latn' <'APPH' 'CAT ' 'IPPH' 'MAH ' 'MOL ' 'NAV ' 'ROM ' 'dflt' > ) ]
Lookup: 2 0 0 "Multiple Substitution lookup 1" { "Multiple Substitution lookup 1 subtable"  } []
Lookup: 1 0 0 "Single Substitution lookup 2" { "Single Substitution lookup 2 subtable"  } []
Lookup: 1 0 0 "Single Substitution lookup 3" { "Single Substitution lookup 3 subtable"  } []
Lookup: 1 0 0 "Single Substitution lookup 4" { "Single Substitution lookup 4 subtable"  } []
Lookup: 1 0 0 "Single Substitution lookup 5" { "Single Substitution lookup 5 subtable"  } []

StartChar: .notdef
Encoding: 65536 -1 0
Width: 600
Flags: W
LayerCount: 2
Fore
SplineSet
94 0 m 1,0,-1
 94 714 l 1,1,-1
 505 714 l 1,2,-1
 505 0 l 1,3,-1
 94 0 l 1,0,-1
145 51 m 1,4,-1
 454 51 l 1,5,-1
 454 663 l 1,6,-1
 145 663 l 1,7,-1
 145 51 l 1,4,-1
EndSplineSet
EndChar

StartChar: candrabindugujr
Encoding: 2689 2689 4
Width: 0
GlyphClass: 4
Flags: W
AnchorPoint: "Anchor-7" -175 603 mark 0
AnchorPoint: "Anchor-4" -175 603 mark 0
AnchorPoint: "Anchor-0" -175 603 mark 0
LayerCount: 2
Fore
SplineSet
-133 655 m 0,0,1
 -194 655 -194 655 -246.5 686 c 128,-1,2
 -299 717 -299 717 -331 787 c 1,3,-1
 -261 815 l 1,4,5
 -242 773 -242 773 -212 749 c 128,-1,6
 -182 725 -182 725 -133 725 c 0,7,8
 -83 725 -83 725 -53 749 c 128,-1,9
 -23 773 -23 773 -4 815 c 1,10,-1
 65 787 l 1,11,12
 34 718 34 718 -18 686.5 c 128,-1,13
 -70 655 -70 655 -133 655 c 0,0,1
-133 773 m 0,14,15
 -155 773 -155 773 -170 789 c 128,-1,16
 -185 805 -185 805 -185 828 c 256,17,18
 -185 851 -185 851 -170 866.5 c 128,-1,19
 -155 882 -155 882 -133 882 c 0,20,21
 -112 882 -112 882 -97 866.5 c 128,-1,22
 -82 851 -82 851 -82 828 c 256,23,24
 -82 805 -82 805 -97 789 c 128,-1,25
 -112 773 -112 773 -133 773 c 0,14,15
EndSplineSet
Substitution2: "Single Substitution lookup 71 subtable" candrabinduleftgujr
Substitution2: "Single Substitution lookup 56 subtable" dummymarkgujr
EndChar

StartChar: anusvaragujr
Encoding: 2690 2690 5
Width: 0
GlyphClass: 4
Flags: W
AnchorPoint: "Anchor-7" -175 603 mark 0
AnchorPoint: "Anchor-4" -175 603 mark 0
AnchorPoint: "Anchor-0" -175 603 mark 0
LayerCount: 2
Fore
SplineSet
-133 703 m 0,0,1
 -157 703 -157 703 -173 719 c 128,-1,2
 -189 735 -189 735 -189 762 c 256,3,4
 -189 789 -189 789 -173 805 c 128,-1,5
 -157 821 -157 821 -133 821 c 0,6,7
 -110 821 -110 821 -93.5 805 c 128,-1,8
 -77 789 -77 789 -77 762 c 256,9,10
 -77 735 -77 735 -93.5 719 c 128,-1,11
 -110 703 -110 703 -133 703 c 0,0,1
EndSplineSet
Substitution2: "Single Substitution lookup 71 subtable" anusvaraleftgujr
Substitution2: "Single Substitution lookup 56 subtable" dummymarkgujr
EndChar

StartChar: visargagujr
Encoding: 2691 2691 6
Width: 248
Flags: W
LayerCount: 2
Fore
SplineSet
124 357 m 256,0,1
 99 357 99 357 81 374 c 128,-1,2
 63 391 63 391 63 421 c 0,3,4
 63 452 63 452 81 468.5 c 128,-1,5
 99 485 99 485 124 485 c 256,6,7
 149 485 149 485 167 468.5 c 128,-1,8
 185 452 185 452 185 421 c 0,9,10
 185 391 185 391 167 374 c 128,-1,11
 149 357 149 357 124 357 c 256,0,1
124 50 m 256,12,13
 99 50 99 50 81 67 c 128,-1,14
 63 84 63 84 63 114 c 256,15,16
 63 144 63 144 81 161 c 128,-1,17
 99 178 99 178 124 178 c 256,18,19
 149 178 149 178 167 161 c 128,-1,20
 185 144 185 144 185 114 c 256,21,22
 185 84 185 84 167 67 c 128,-1,23
 149 50 149 50 124 50 c 256,12,13
EndSplineSet
EndChar

StartChar: agujr
Encoding: 2693 2693 7
Width: 883
GlyphClass: 2
Flags: W
AnchorPoint: "Anchor-1" 421 0 basechar 0
LayerCount: 2
Fore
SplineSet
343 103 m 0,0,1
 297 103 297 103 256 116 c 128,-1,2
 215 129 215 129 180 160.5 c 128,-1,3
 145 192 145 192 117 245 c 1,4,-1
 138 303 l 1,5,6
 194 311 194 311 233 345.5 c 128,-1,7
 272 380 272 380 272 430 c 0,8,9
 272 478 272 478 244.5 504 c 128,-1,10
 217 530 217 530 158 530 c 0,11,12
 136 530 136 530 108.5 524.5 c 128,-1,13
 81 519 81 519 58 508 c 1,14,-1
 31 576 l 1,15,16
 55 587 55 587 90 595 c 128,-1,17
 125 603 125 603 161 603 c 0,18,19
 222 603 222 603 264.5 582.5 c 128,-1,20
 307 562 307 562 329.5 523 c 128,-1,21
 352 484 352 484 352 428 c 0,22,23
 352 373 352 373 319.5 329.5 c 128,-1,24
 287 286 287 286 234 261.5 c 128,-1,25
 181 237 181 237 117 237 c 0,26,27
 90 237 90 237 72 244 c 128,-1,28
 54 251 54 251 44.5 264.5 c 128,-1,29
 35 278 35 278 35 297 c 0,30,31
 35 317 35 317 49.5 331.5 c 128,-1,32
 64 346 64 346 94 346 c 0,33,34
 125 346 125 346 145 333.5 c 128,-1,35
 165 321 165 321 187 295 c 1,36,-1
 201 256 l 2,37,38
 219 217 219 217 255 196 c 128,-1,39
 291 175 291 175 337 175 c 0,40,41
 375 175 375 175 402 186 c 128,-1,42
 429 197 429 197 446 216 c 0,43,44
 471 244 471 244 478.5 280 c 128,-1,45
 486 316 486 316 486 371 c 2,46,-1
 486 447 l 1,47,-1
 566 437 l 1,48,-1
 566 349 l 2,49,50
 566 267 566 267 537.5 212 c 128,-1,51
 509 157 509 157 458.5 130 c 128,-1,52
 408 103 408 103 343 103 c 0,0,1
624 228 m 0,53,54
 599 228 599 228 575 237 c 128,-1,55
 551 246 551 246 531 269 c 128,-1,56
 511 292 511 292 497 333 c 1,57,-1
 555 356 l 1,58,59
 563 324 563 324 581 312 c 128,-1,60
 599 300 599 300 623 300 c 0,61,62
 659 300 659 300 685 319.5 c 128,-1,63
 711 339 711 339 733 373 c 1,64,-1
 750 291 l 1,65,66
 725 261 725 261 696.5 244.5 c 128,-1,67
 668 228 668 228 624 228 c 0,53,54
856 0 m 2,68,69
 813 0 813 0 784.5 9.5 c 128,-1,70
 756 19 756 19 739 37 c 0,71,72
 723 54 723 54 715.5 79 c 128,-1,73
 708 104 708 104 708 148 c 2,74,-1
 708 603 l 1,75,-1
 788 592 l 1,76,-1
 788 152 l 2,77,78
 788 125 788 125 791 112.5 c 128,-1,79
 794 100 794 100 800 92 c 0,80,81
 811 78 811 78 832.5 75.5 c 128,-1,82
 854 73 854 73 875 73 c 1,83,-1
 867 0 l 1,84,-1
 856 0 l 2,68,69
EndSplineSet
EndChar

StartChar: aagujr
Encoding: 2694 2694 8
Width: 1148
GlyphClass: 2
Flags: W
AnchorPoint: "Anchor-1" 421 0 basechar 0
LayerCount: 2
Fore
SplineSet
343 103 m 0,0,1
 297 103 297 103 256 116 c 128,-1,2
 215 129 215 129 180 160.5 c 128,-1,3
 145 192 145 192 117 245 c 1,4,-1
 138 303 l 1,5,6
 194 311 194 311 233 345.5 c 128,-1,7
 272 380 272 380 272 430 c 0,8,9
 272 478 272 478 244.5 504 c 128,-1,10
 217 530 217 530 158 530 c 0,11,12
 136 530 136 530 108.5 524.5 c 128,-1,13
 81 519 81 519 58 508 c 1,14,-1
 31 576 l 1,15,16
 55 587 55 587 90 595 c 128,-1,17
 125 603 125 603 161 603 c 0,18,19
 222 603 222 603 264.5 582.5 c 128,-1,20
 307 562 307 562 329.5 523 c 128,-1,21
 352 484 352 484 352 428 c 0,22,23
 352 373 352 373 319.5 329.5 c 128,-1,24
 287 286 287 286 234 261.5 c 128,-1,25
 181 237 181 237 117 237 c 0,26,27
 90 237 90 237 72 244 c 128,-1,28
 54 251 54 251 44.5 264.5 c 128,-1,29
 35 278 35 278 35 297 c 0,30,31
 35 317 35 317 49.5 331.5 c 128,-1,32
 64 346 64 346 94 346 c 0,33,34
 125 346 125 346 145 333.5 c 128,-1,35
 165 321 165 321 187 295 c 1,36,-1
 201 256 l 2,37,38
 219 217 219 217 255 196 c 128,-1,39
 291 175 291 175 337 175 c 0,40,41
 375 175 375 175 402 186 c 128,-1,42
 429 197 429 197 446 216 c 0,43,44
 471 244 471 244 478.5 280 c 128,-1,45
 486 316 486 316 486 371 c 2,46,-1
 486 447 l 1,47,-1
 566 437 l 1,48,-1
 566 349 l 2,49,50
 566 267 566 267 537.5 212 c 128,-1,51
 509 157 509 157 458.5 130 c 128,-1,52
 408 103 408 103 343 103 c 0,0,1
624 228 m 0,53,54
 599 228 599 228 575 237 c 128,-1,55
 551 246 551 246 531 269 c 128,-1,56
 511 292 511 292 497 333 c 1,57,-1
 555 356 l 1,58,59
 563 324 563 324 581 312 c 128,-1,60
 599 300 599 300 623 300 c 0,61,62
 659 300 659 300 685 319.5 c 128,-1,63
 711 339 711 339 733 373 c 1,64,-1
 750 291 l 1,65,66
 725 261 725 261 696.5 244.5 c 128,-1,67
 668 228 668 228 624 228 c 0,53,54
856 0 m 2,68,69
 813 0 813 0 784.5 9.5 c 128,-1,70
 756 19 756 19 739 37 c 0,71,72
 723 54 723 54 715.5 79 c 128,-1,73
 708 104 708 104 708 148 c 2,74,-1
 708 603 l 1,75,-1
 788 592 l 1,76,-1
 788 152 l 2,77,78
 788 125 788 125 791 112.5 c 128,-1,79
 794 100 794 100 800 92 c 0,80,81
 811 78 811 78 832.5 75.5 c 128,-1,82
 854 73 854 73 875 73 c 1,83,-1
 867 0 l 1,84,-1
 856 0 l 2,68,69
1122 0 m 2,85,86
 1079 0 1079 0 1050 9.5 c 128,-1,87
 1021 19 1021 19 1004 37 c 0,88,89
 988 54 988 54 980.5 79 c 128,-1,90
 973 104 973 104 973 148 c 2,91,-1
 973 603 l 1,92,-1
 1053 592 l 1,93,-1
 1053 152 l 2,94,95
 1053 125 1053 125 1056 112.5 c 128,-1,96
 1059 100 1059 100 1065 92 c 0,97,98
 1076 78 1076 78 1097.5 75.5 c 128,-1,99
 1119 73 1119 73 1140 73 c 1,100,-1
 1132 0 l 1,101,-1
 1122 0 l 2,85,86
EndSplineSet
EndChar

StartChar: igujr
Encoding: 2695 2695 9
Width: 634
GlyphClass: 2
Flags: W
AnchorPoint: "Anchor-1" 314 0 basechar 0
AnchorPoint: "Anchor-0" 216 603 basechar 0
LayerCount: 2
Fore
SplineSet
311 -10 m 0,0,1
 238 -10 238 -10 188 14.5 c 128,-1,2
 138 39 138 39 113 81 c 128,-1,3
 88 123 88 123 88 176 c 0,4,5
 88 227 88 227 112.5 268.5 c 128,-1,6
 137 310 137 310 184.5 334.5 c 128,-1,7
 232 359 232 359 299 359 c 0,8,9
 308 359 308 359 318 359 c 128,-1,10
 328 359 328 359 338 357 c 1,11,-1
 329 285 l 1,12,13
 322 286 322 286 315 286 c 128,-1,14
 308 286 308 286 300 286 c 0,15,16
 247 286 247 286 207.5 260 c 128,-1,17
 168 234 168 234 168 177 c 0,18,19
 168 122 168 122 204.5 92.5 c 128,-1,20
 241 63 241 63 314 63 c 0,21,22
 374 63 374 63 417.5 84 c 128,-1,23
 461 105 461 105 484.5 144 c 128,-1,24
 508 183 508 183 508 236 c 0,25,26
 508 288 508 288 492.5 326.5 c 128,-1,27
 477 365 477 365 457 402 c 0,28,29
 429 453 429 453 414.5 488 c 128,-1,30
 400 523 400 523 400 567 c 0,31,32
 400 614 400 614 422 653 c 128,-1,33
 444 692 444 692 494 728 c 1,34,-1
 547 661 l 1,35,36
 512 636 512 636 497.5 615 c 128,-1,37
 483 594 483 594 483 563 c 256,38,39
 483 532 483 532 496 503 c 128,-1,40
 509 474 509 474 538 420 c 0,41,42
 558 383 558 383 574 338.5 c 128,-1,43
 590 294 590 294 590 236 c 0,44,45
 590 172 590 172 563.5 115.5 c 128,-1,46
 537 59 537 59 476 24.5 c 128,-1,47
 415 -10 415 -10 311 -10 c 0,0,1
166 286 m 1,48,49
 115 315 115 315 79.5 356 c 128,-1,50
 44 397 44 397 44 461 c 0,51,52
 44 499 44 499 63 531.5 c 128,-1,53
 82 564 82 564 119 583.5 c 128,-1,54
 156 603 156 603 210 603 c 0,55,56
 231 603 231 603 258 600 c 128,-1,57
 285 597 285 597 304 592 c 1,58,-1
 290 520 l 1,59,60
 275 524 275 524 255.5 526.5 c 128,-1,61
 236 529 236 529 219 529 c 0,62,63
 173 529 173 529 149 508.5 c 128,-1,64
 125 488 125 488 125 456 c 0,65,66
 125 419 125 419 146.5 391 c 128,-1,67
 168 363 168 363 220 338 c 1,68,-1
 166 286 l 1,48,49
EndSplineSet
EndChar

StartChar: iigujr
Encoding: 2696 2696 10
Width: 634
GlyphClass: 2
Flags: W
AnchorPoint: "Anchor-1" 314 0 basechar 0
AnchorPoint: "Anchor-0" 118 603 basechar 0
LayerCount: 2
Fore
SplineSet
311 -10 m 0,0,1
 238 -10 238 -10 188 14.5 c 128,-1,2
 138 39 138 39 113 81 c 128,-1,3
 88 123 88 123 88 176 c 0,4,5
 88 227 88 227 112.5 268.5 c 128,-1,6
 137 310 137 310 184.5 334.5 c 128,-1,7
 232 359 232 359 299 359 c 0,8,9
 308 359 308 359 318 359 c 128,-1,10
 328 359 328 359 338 357 c 1,11,-1
 329 285 l 1,12,13
 322 286 322 286 315 286 c 128,-1,14
 308 286 308 286 300 286 c 0,15,16
 247 286 247 286 207.5 260 c 128,-1,17
 168 234 168 234 168 177 c 0,18,19
 168 122 168 122 204.5 92.5 c 128,-1,20
 241 63 241 63 314 63 c 0,21,22
 377 63 377 63 420 84 c 128,-1,23
 463 105 463 105 485.5 144 c 128,-1,24
 508 183 508 183 508 236 c 0,25,26
 508 279 508 279 500.5 315 c 128,-1,27
 493 351 493 351 477.5 389 c 128,-1,28
 462 427 462 427 437 476 c 0,29,30
 403 543 403 543 382 587 c 128,-1,31
 361 631 361 631 351 666 c 128,-1,32
 341 701 341 701 341 739 c 0,33,34
 341 783 341 783 360 818.5 c 128,-1,35
 379 854 379 854 416 875 c 128,-1,36
 453 896 453 896 505 896 c 0,37,38
 558 896 558 896 593.5 876.5 c 128,-1,39
 629 857 629 857 652.5 826.5 c 128,-1,40
 676 796 676 796 691 761 c 1,41,-1
 617 734 l 1,42,43
 601 769 601 769 574.5 797 c 128,-1,44
 548 825 548 825 506 825 c 0,45,46
 475 825 475 825 449.5 805.5 c 128,-1,47
 424 786 424 786 424 737 c 0,48,49
 424 706 424 706 433.5 674.5 c 128,-1,50
 443 643 443 643 461 605.5 c 128,-1,51
 479 568 479 568 504 518 c 0,52,53
 530 469 530 469 549 423 c 128,-1,54
 568 377 568 377 579 331 c 128,-1,55
 590 285 590 285 590 236 c 0,56,57
 590 172 590 172 564 115.5 c 128,-1,58
 538 59 538 59 477 24.5 c 128,-1,59
 416 -10 416 -10 311 -10 c 0,0,1
166 286 m 1,60,61
 115 315 115 315 79.5 356 c 128,-1,62
 44 397 44 397 44 461 c 0,63,64
 44 499 44 499 63 531.5 c 128,-1,65
 82 564 82 564 119 583.5 c 128,-1,66
 156 603 156 603 210 603 c 0,67,68
 231 603 231 603 258 600 c 128,-1,69
 285 597 285 597 304 592 c 1,70,-1
 290 520 l 1,71,72
 275 524 275 524 255.5 526.5 c 128,-1,73
 236 529 236 529 219 529 c 0,74,75
 173 529 173 529 149 508.5 c 128,-1,76
 125 488 125 488 125 456 c 0,77,78
 125 419 125 419 146.5 391 c 128,-1,79
 168 363 168 363 220 338 c 1,80,-1
 166 286 l 1,60,61
EndSplineSet
EndChar

StartChar: ugujr
Encoding: 2697 2697 11
Width: 625
GlyphClass: 2
Flags: W
AnchorPoint: "Anchor-1" 338 0 basechar 0
AnchorPoint: "Anchor-0" 554 603 basechar 0
LayerCount: 2
Fore
SplineSet
367 -10 m 0,0,1
 273 -10 273 -10 203.5 33 c 128,-1,2
 134 76 134 76 96 165 c 128,-1,3
 58 254 58 254 58 392 c 0,4,5
 58 476 58 476 77 555 c 128,-1,6
 96 634 96 634 138 697 c 128,-1,7
 180 760 180 760 248 797 c 128,-1,8
 316 834 316 834 414 834 c 0,9,10
 447 834 447 834 470 831 c 128,-1,11
 493 828 493 828 514 823 c 1,12,-1
 500 751 l 1,13,14
 484 756 484 756 462 758 c 128,-1,15
 440 760 440 760 417 760 c 0,16,17
 337 760 337 760 283.5 727.5 c 128,-1,18
 230 695 230 695 199 641.5 c 128,-1,19
 168 588 168 588 154.5 522 c 128,-1,20
 141 456 141 456 141 389 c 0,21,22
 141 275 141 275 169 203 c 128,-1,23
 197 131 197 131 247.5 97 c 128,-1,24
 298 63 298 63 364 63 c 0,25,26
 424 63 424 63 459.5 89.5 c 128,-1,27
 495 116 495 116 495 171 c 0,28,29
 495 219 495 219 466 254.5 c 128,-1,30
 437 290 437 290 389 306 c 1,31,-1
 388 337 l 1,32,-1
 459 352 l 1,33,34
 518 319 518 319 547 268.5 c 128,-1,35
 576 218 576 218 576 167 c 0,36,37
 576 85 576 85 520.5 37.5 c 128,-1,38
 465 -10 465 -10 367 -10 c 0,0,1
338 270 m 1,39,-1
 323 343 l 1,40,41
 370 346 370 346 409 357 c 128,-1,42
 448 368 448 368 471.5 390 c 128,-1,43
 495 412 495 412 495 446 c 0,44,45
 495 485 495 485 468.5 507 c 128,-1,46
 442 529 442 529 395 529 c 0,47,48
 364 529 364 529 334 522.5 c 128,-1,49
 304 516 304 516 270 499 c 1,50,-1
 244 567 l 1,51,52
 280 583 280 583 317.5 593 c 128,-1,53
 355 603 355 603 396 603 c 0,54,55
 458 603 458 603 497.5 583 c 128,-1,56
 537 563 537 563 556 528 c 128,-1,57
 575 493 575 493 575 449 c 0,58,59
 575 404 575 404 554.5 371.5 c 128,-1,60
 534 339 534 339 500 317.5 c 128,-1,61
 466 296 466 296 424 284.5 c 128,-1,62
 382 273 382 273 338 270 c 1,39,-1
EndSplineSet
EndChar

StartChar: uugujr
Encoding: 2698 2698 12
Width: 888
GlyphClass: 2
Flags: W
AnchorPoint: "Anchor-1" 451 0 basechar 0
AnchorPoint: "Anchor-0" 798 603 basechar 0
LayerCount: 2
Fore
SplineSet
362 -10 m 0,0,1
 272 -10 272 -10 203.5 32.5 c 128,-1,2
 135 75 135 75 96.5 162 c 128,-1,3
 58 249 58 249 58 382 c 0,4,5
 58 469 58 469 79 550 c 128,-1,6
 100 631 100 631 145 695 c 128,-1,7
 190 759 190 759 261.5 796.5 c 128,-1,8
 333 834 333 834 435 834 c 0,9,10
 504 834 504 834 559.5 815 c 128,-1,11
 615 796 615 796 658.5 762 c 128,-1,12
 702 728 702 728 735.5 681 c 128,-1,13
 769 634 769 634 794 577 c 1,14,-1
 794 152 l 2,15,16
 794 125 794 125 797 112.5 c 128,-1,17
 800 100 800 100 806 92 c 0,18,19
 817 78 817 78 838.5 75.5 c 128,-1,20
 860 73 860 73 880 73 c 1,21,-1
 873 0 l 1,22,-1
 862 0 l 2,23,24
 819 0 819 0 790.5 9.5 c 128,-1,25
 762 19 762 19 745 37 c 0,26,27
 729 54 729 54 721.5 79 c 128,-1,28
 714 104 714 104 714 148 c 2,29,-1
 714 557 l 1,30,31
 690 616 690 616 651.5 661.5 c 128,-1,32
 613 707 613 707 559.5 733 c 128,-1,33
 506 759 506 759 438 759 c 0,34,35
 354 759 354 759 296.5 726.5 c 128,-1,36
 239 694 239 694 205 640 c 128,-1,37
 171 586 171 586 156 519 c 128,-1,38
 141 452 141 452 141 383 c 0,39,40
 141 272 141 272 169 201 c 128,-1,41
 197 130 197 130 247 96.5 c 128,-1,42
 297 63 297 63 364 63 c 0,43,44
 424 63 424 63 459.5 89.5 c 128,-1,45
 495 116 495 116 495 171 c 0,46,47
 495 219 495 219 466 254.5 c 128,-1,48
 437 290 437 290 389 306 c 1,49,-1
 388 337 l 1,50,-1
 459 352 l 1,51,52
 518 319 518 319 547 268.5 c 128,-1,53
 576 218 576 218 576 167 c 0,54,55
 576 84 576 84 520 37 c 128,-1,56
 464 -10 464 -10 362 -10 c 0,0,1
338 270 m 1,57,-1
 323 343 l 1,58,59
 370 346 370 346 409 357 c 128,-1,60
 448 368 448 368 471.5 390 c 128,-1,61
 495 412 495 412 495 446 c 0,62,63
 495 485 495 485 468.5 507 c 128,-1,64
 442 529 442 529 395 529 c 0,65,66
 364 529 364 529 334 522.5 c 128,-1,67
 304 516 304 516 270 499 c 1,68,-1
 244 567 l 1,69,70
 280 583 280 583 317.5 593 c 128,-1,71
 355 603 355 603 396 603 c 0,72,73
 458 603 458 603 497.5 583 c 128,-1,74
 537 563 537 563 556 528 c 128,-1,75
 575 493 575 493 575 449 c 0,76,77
 575 404 575 404 554.5 371.5 c 128,-1,78
 534 339 534 339 500 317.5 c 128,-1,79
 466 296 466 296 424 284.5 c 128,-1,80
 382 273 382 273 338 270 c 1,57,-1
EndSplineSet
EndChar

StartChar: rvocalicgujr
Encoding: 2699 2699 13
Width: 831
GlyphClass: 2
Flags: W
AnchorPoint: "Anchor-1" 457 0 basechar 0
AnchorPoint: "Anchor-0" 407 603 basechar 0
LayerCount: 2
Fore
SplineSet
682 79 m 1,0,-1
 641 143 l 1,1,2
 667 155 667 155 689.5 174 c 128,-1,3
 712 193 712 193 712 230 c 0,4,5
 712 261 712 261 700 292.5 c 128,-1,6
 688 324 688 324 655 365 c 1,7,-1
 657 375 l 1,8,9
 649 387 649 387 643.5 400 c 128,-1,10
 638 413 638 413 638 429 c 0,11,12
 638 461 638 461 658 475.5 c 128,-1,13
 678 490 678 490 705 490 c 0,14,15
 737 490 737 490 756 470 c 128,-1,16
 775 450 775 450 775 418 c 256,17,18
 775 386 775 386 754 362.5 c 128,-1,19
 733 339 733 339 698.5 326 c 128,-1,20
 664 313 664 313 624 313 c 0,21,22
 587 313 587 313 546 327 c 128,-1,23
 505 341 505 341 471 369 c 1,24,-1
 480 446 l 1,25,26
 507 417 507 417 541 401 c 128,-1,27
 575 385 575 385 614 385 c 0,28,29
 637 385 637 385 649.5 389.5 c 128,-1,30
 662 394 662 394 683 407 c 1,31,-1
 715 403 l 1,32,33
 756 346 756 346 773.5 306.5 c 128,-1,34
 791 267 791 267 791 226 c 0,35,36
 791 188 791 188 776.5 160.5 c 128,-1,37
 762 133 762 133 737.5 113.5 c 128,-1,38
 713 94 713 94 682 79 c 1,0,-1
146 135 m 1,39,-1
 96 205 l 1,40,-1
 414 394 l 1,41,-1
 447 334 l 1,42,-1
 146 135 l 1,39,-1
348 334 m 1,43,44
 313 387 313 387 282.5 413.5 c 128,-1,45
 252 440 252 440 224 449 c 128,-1,46
 196 458 196 458 165 458 c 0,47,48
 128 458 128 458 100 449 c 128,-1,49
 72 440 72 440 40 423 c 1,50,-1
 11 493 l 1,51,52
 50 513 50 513 89 523 c 128,-1,53
 128 533 128 533 161 533 c 0,54,55
 213 533 213 533 250.5 518.5 c 128,-1,56
 288 504 288 504 323 471.5 c 128,-1,57
 358 439 358 439 401 383 c 1,58,-1
 348 334 l 1,43,44
556 0 m 2,59,60
 513 0 513 0 484 9.5 c 128,-1,61
 455 19 455 19 438 37 c 0,62,63
 422 54 422 54 414.5 79 c 128,-1,64
 407 104 407 104 407 148 c 2,65,-1
 407 603 l 1,66,-1
 487 592 l 1,67,-1
 487 152 l 2,68,69
 487 124 487 124 490 113 c 128,-1,70
 493 102 493 102 500 92 c 0,71,72
 511 78 511 78 533 75.5 c 128,-1,73
 555 73 555 73 574 73 c 1,74,-1
 566 0 l 1,75,-1
 556 0 l 2,59,60
EndSplineSet
EndChar

StartChar: lvocalicgujr
Encoding: 2700 2700 14
Width: 697
GlyphClass: 2
Flags: W
AnchorPoint: "Anchor-1" 309 0 basechar 0
AnchorPoint: "Anchor-0" 454 603 basechar 0
LayerCount: 2
Fore
SplineSet
210 36 m 1,0,1
 164 78 164 78 125.5 120 c 128,-1,2
 87 162 87 162 64.5 206.5 c 128,-1,3
 42 251 42 251 42 300 c 0,4,5
 42 353 42 353 67 386 c 128,-1,6
 92 419 92 419 129.5 434.5 c 128,-1,7
 167 450 167 450 203 450 c 0,8,9
 251 450 251 450 291 432.5 c 128,-1,10
 331 415 331 415 368 382 c 1,11,-1
 335 316 l 1,12,13
 304 342 304 342 275 359.5 c 128,-1,14
 246 377 246 377 208 377 c 0,15,16
 167 377 167 377 146 354 c 128,-1,17
 125 331 125 331 125 296 c 0,18,19
 125 264 125 264 141 231.5 c 128,-1,20
 157 199 157 199 188.5 163.5 c 128,-1,21
 220 128 220 128 264 88 c 1,22,-1
 210 36 l 1,0,1
581 -87 m 0,23,24
 531 -87 531 -87 495 -69 c 128,-1,25
 459 -51 459 -51 440 -19 c 128,-1,26
 421 13 421 13 421 54 c 0,27,28
 421 110 421 110 462.5 150.5 c 128,-1,29
 504 191 504 191 598 205 c 1,30,-1
 614 138 l 1,31,32
 552 128 552 128 524 106.5 c 128,-1,33
 496 85 496 85 496 49 c 0,34,35
 496 16 496 16 520 0.5 c 128,-1,36
 544 -15 544 -15 575 -15 c 0,37,38
 607 -15 607 -15 630.5 -7 c 128,-1,39
 654 1 654 1 688 18 c 1,40,-1
 716 -52 l 1,41,42
 690 -65 690 -65 656 -76 c 128,-1,43
 622 -87 622 -87 581 -87 c 0,23,24
614 138 m 1,44,-1
 529 158 l 1,45,46
 546 187 546 187 560 219 c 128,-1,47
 574 251 574 251 574 292 c 0,48,49
 574 338 574 338 552 359 c 128,-1,50
 530 380 530 380 494 380 c 0,51,52
 469 380 469 380 443.5 368.5 c 128,-1,53
 418 357 418 357 395 325.5 c 128,-1,54
 372 294 372 294 354 233 c 1,55,-1
 278 257 l 1,56,57
 302 352 302 352 360.5 401 c 128,-1,58
 419 450 419 450 504 450 c 0,59,60
 537 450 537 450 571.5 434 c 128,-1,61
 606 418 606 418 630 382.5 c 128,-1,62
 654 347 654 347 654 288 c 0,63,64
 654 248 654 248 642.5 209 c 128,-1,65
 631 170 631 170 614 138 c 1,44,-1
454 412 m 1,66,-1
 454 603 l 1,67,-1
 534 592 l 1,68,-1
 534 412 l 1,69,-1
 454 412 l 1,66,-1
EndSplineSet
EndChar

StartChar: kagujr
Encoding: 2709 2709 21
Width: 511
GlyphClass: 2
Flags: W
AnchorPoint: "Anchor-3" 214 603 basechar 0
AnchorPoint: "Anchor-1" 279 0 basechar 0
AnchorPoint: "Anchor-0" 314 603 basechar 0
LayerCount: 2
Fore
SplineSet
259 -10 m 0,0,1
 181 -10 181 -10 122 14.5 c 128,-1,2
 63 39 63 39 18 73 c 1,3,-1
 63 135 l 1,4,5
 112 97 112 97 158.5 80 c 128,-1,6
 205 63 205 63 254 63 c 0,7,8
 315 63 315 63 343 84 c 128,-1,9
 371 105 371 105 371 144 c 0,10,11
 371 164 371 164 361.5 184.5 c 128,-1,12
 352 205 352 205 325 230 c 128,-1,13
 298 255 298 255 246 285 c 1,14,-1
 219 306 l 2,15,16
 184 329 184 329 157.5 351.5 c 128,-1,17
 131 374 131 374 117 400.5 c 128,-1,18
 103 427 103 427 103 461 c 0,19,20
 103 524 103 524 150.5 563.5 c 128,-1,21
 198 603 198 603 277 603 c 0,22,23
 309 603 309 603 338 599.5 c 128,-1,24
 367 596 367 596 394 589 c 1,25,-1
 379 517 l 1,26,27
 353 523 353 523 332.5 526 c 128,-1,28
 312 529 312 529 286 529 c 0,29,30
 235 529 235 529 210 509 c 128,-1,31
 185 489 185 489 185 454 c 0,32,33
 185 436 185 436 195 418.5 c 128,-1,34
 205 401 205 401 227 383.5 c 128,-1,35
 249 366 249 366 285 347 c 1,36,-1
 313 322 l 1,37,38
 359 296 359 296 390 269 c 128,-1,39
 421 242 421 242 437 211 c 128,-1,40
 453 180 453 180 453 142 c 0,41,42
 453 105 453 105 434.5 70 c 128,-1,43
 416 35 416 35 373.5 12.5 c 128,-1,44
 331 -10 331 -10 259 -10 c 0,0,1
65 211 m 1,45,-1
 38 282 l 1,46,-1
 229 350 l 1,47,-1
 464 438 l 1,48,-1
 496 368 l 1,49,-1
 289 297 l 1,50,-1
 65 211 l 1,45,-1
EndSplineSet
EndChar

StartChar: khagujr
Encoding: 2710 2710 22
Width: 746
Flags: W
LayerCount: 2
Fore
SplineSet
261 161 m 0,0,1
 221 161 221 161 191 171.5 c 128,-1,2
 161 182 161 182 140 203 c 0,3,4
 115 228 115 228 104 260.5 c 128,-1,5
 93 293 93 293 93 351 c 2,6,-1
 93 440 l 2,7,8
 93 467 93 467 90 479.5 c 128,-1,9
 87 492 87 492 81 500 c 0,10,11
 71 514 71 514 49 516.5 c 128,-1,12
 27 519 27 519 6 519 c 1,13,-1
 14 592 l 1,14,-1
 24 592 l 2,15,16
 68 592 68 592 96.5 582.5 c 128,-1,17
 125 573 125 573 142 555 c 0,18,19
 159 538 159 538 166 513 c 128,-1,20
 173 488 173 488 173 443 c 2,21,-1
 173 351 l 2,22,23
 173 311 173 311 179.5 289 c 128,-1,24
 186 267 186 267 200 253 c 0,25,26
 211 243 211 243 226 238 c 128,-1,27
 241 233 241 233 262 233 c 0,28,29
 282 233 282 233 298.5 239 c 128,-1,30
 315 245 315 245 327 258 c 0,31,32
 338 270 338 270 343.5 290 c 128,-1,33
 349 310 349 310 349 351 c 2,34,-1
 349 481 l 1,35,-1
 429 471 l 1,36,-1
 429 326 l 2,37,38
 429 278 429 278 407.5 240.5 c 128,-1,39
 386 203 386 203 348.5 182 c 128,-1,40
 311 161 311 161 261 161 c 0,0,1
486 262 m 0,41,42
 447 262 447 262 414.5 284 c 128,-1,43
 382 306 382 306 360 367 c 1,44,-1
 418 390 l 1,45,46
 426 358 426 358 444 346 c 128,-1,47
 462 334 462 334 486 334 c 0,48,49
 523 334 523 334 548.5 353.5 c 128,-1,50
 574 373 574 373 597 407 c 1,51,-1
 614 325 l 1,52,53
 588 295 588 295 559.5 278.5 c 128,-1,54
 531 262 531 262 486 262 c 0,41,42
720 0 m 2,55,56
 677 0 677 0 648.5 10 c 128,-1,57
 620 20 620 20 603 37 c 256,58,59
 586 54 586 54 578.5 79 c 128,-1,60
 571 104 571 104 571 148 c 2,61,-1
 571 603 l 1,62,-1
 651 592 l 1,63,-1
 651 152 l 2,64,65
 651 125 651 125 654.5 113 c 128,-1,66
 658 101 658 101 664 92 c 0,67,68
 674 78 674 78 695.5 75.5 c 128,-1,69
 717 73 717 73 738 73 c 1,70,-1
 730 0 l 1,71,-1
 720 0 l 2,55,56
EndSplineSet
Substitution2: "Single Substitution lookup 65 subtable" khastemgujr
EndChar

StartChar: gagujr
Encoding: 2711 2711 23
Width: 654
Flags: W
LayerCount: 2
Fore
SplineSet
210 178 m 0,0,1
 173 178 173 178 138.5 190.5 c 128,-1,2
 104 203 104 203 72.5 230.5 c 128,-1,3
 41 258 41 258 11 303 c 1,4,-1
 74 346 l 1,5,6
 108 295 108 295 138 273 c 128,-1,7
 168 251 168 251 206 251 c 0,8,9
 247 251 247 251 273 282 c 128,-1,10
 299 313 299 313 299 384 c 0,11,12
 299 461 299 461 269.5 495.5 c 128,-1,13
 240 530 240 530 188 530 c 0,14,15
 157 530 157 530 129 522.5 c 128,-1,16
 101 515 101 515 79 503 c 1,17,-1
 54 570 l 1,18,19
 87 587 87 587 123.5 595 c 128,-1,20
 160 603 160 603 192 603 c 0,21,22
 248 603 248 603 290 579.5 c 128,-1,23
 332 556 332 556 356 507.5 c 128,-1,24
 380 459 380 459 380 383 c 0,25,26
 380 319 380 319 364.5 279 c 128,-1,27
 349 239 349 239 324 217 c 128,-1,28
 299 195 299 195 269 186.5 c 128,-1,29
 239 178 239 178 210 178 c 0,0,1
627 0 m 2,30,31
 584 0 584 0 555.5 9.5 c 128,-1,32
 527 19 527 19 510 37 c 0,33,34
 494 54 494 54 486.5 79 c 128,-1,35
 479 104 479 104 479 148 c 2,36,-1
 479 603 l 1,37,-1
 559 592 l 1,38,-1
 559 152 l 2,39,40
 559 125 559 125 562 112.5 c 128,-1,41
 565 100 565 100 571 92 c 0,42,43
 582 78 582 78 603.5 75.5 c 128,-1,44
 625 73 625 73 646 73 c 1,45,-1
 638 0 l 1,46,-1
 627 0 l 2,30,31
EndSplineSet
Substitution2: "Single Substitution lookup 65 subtable" gastemgujr
EndChar

StartChar: ghagujr
Encoding: 2712 2712 24
Width: 620
Flags: W
LayerCount: 2
Fore
SplineSet
274 107 m 0,0,1
 214 107 214 107 171.5 127 c 128,-1,2
 129 147 129 147 106 181.5 c 128,-1,3
 83 216 83 216 83 261 c 0,4,5
 83 303 83 303 102 337 c 128,-1,6
 121 371 121 371 160 391 c 128,-1,7
 199 411 199 411 259 411 c 0,8,9
 273 411 273 411 291 409 c 128,-1,10
 309 407 309 407 320 405 c 1,11,-1
 308 333 l 1,12,13
 301 335 301 335 287 336.5 c 128,-1,14
 273 338 273 338 257 338 c 0,15,16
 217 338 217 338 190.5 320.5 c 128,-1,17
 164 303 164 303 164 264 c 0,18,19
 164 222 164 222 194.5 200.5 c 128,-1,20
 225 179 225 179 274 179 c 0,21,22
 330 179 330 179 372 201 c 128,-1,23
 414 223 414 223 450 259 c 1,24,-1
 453 166 l 1,25,26
 421 142 421 142 378 124.5 c 128,-1,27
 335 107 335 107 274 107 c 0,0,1
166 323 m 1,28,29
 134 340 134 340 106 361 c 128,-1,30
 78 382 78 382 61 410.5 c 128,-1,31
 44 439 44 439 44 478 c 0,32,33
 44 511 44 511 62.5 539.5 c 128,-1,34
 81 568 81 568 118 585.5 c 128,-1,35
 155 603 155 603 210 603 c 0,36,37
 231 603 231 603 258 600 c 128,-1,38
 285 597 285 597 304 592 c 1,39,-1
 290 521 l 1,40,41
 275 525 275 525 255.5 527.5 c 128,-1,42
 236 530 236 530 219 530 c 0,43,44
 170 530 170 530 147.5 513.5 c 128,-1,45
 125 497 125 497 125 470 c 0,46,47
 125 441 125 441 146.5 417.5 c 128,-1,48
 168 394 168 394 220 374 c 1,49,-1
 166 323 l 1,28,29
594 0 m 2,50,51
 551 0 551 0 522.5 9.5 c 128,-1,52
 494 19 494 19 477 37 c 0,53,54
 461 54 461 54 453.5 79 c 128,-1,55
 446 104 446 104 446 148 c 2,56,-1
 446 603 l 1,57,-1
 526 592 l 1,58,-1
 526 152 l 2,59,60
 526 125 526 125 529 112.5 c 128,-1,61
 532 100 532 100 538 92 c 0,62,63
 549 78 549 78 570 75.5 c 128,-1,64
 591 73 591 73 612 73 c 1,65,-1
 604 0 l 1,66,-1
 594 0 l 2,50,51
EndSplineSet
Substitution2: "Single Substitution lookup 65 subtable" ghastemgujr
EndChar

StartChar: ngagujr
Encoding: 2713 2713 25
Width: 490
GlyphClass: 2
Flags: W
AnchorPoint: "Anchor-3" 218 603 basechar 0
AnchorPoint: "Anchor-2" 241 0 basechar 0
AnchorPoint: "Anchor-1" 286 0 basechar 0
AnchorPoint: "Anchor-0" 309 603 basechar 0
LayerCount: 2
Fore
SplineSet
399 367 m 0,0,1
 376 367 376 367 359 383 c 128,-1,2
 342 399 342 399 342 424 c 0,3,4
 342 450 342 450 359 465 c 128,-1,5
 376 480 376 480 399 480 c 0,6,7
 423 480 423 480 440 465 c 128,-1,8
 457 450 457 450 457 424 c 0,9,10
 457 399 457 399 440 383 c 128,-1,11
 423 367 423 367 399 367 c 0,0,1
264 -10 m 0,12,13
 174 -10 174 -10 113.5 34 c 128,-1,14
 53 78 53 78 9 145 c 1,15,-1
 79 188 l 1,16,17
 126 117 126 117 169 90 c 128,-1,18
 212 63 212 63 261 63 c 0,19,20
 309 63 309 63 337 85.5 c 128,-1,21
 365 108 365 108 365 150 c 0,22,23
 365 179 365 179 354 201 c 128,-1,24
 343 223 343 223 316 245.5 c 128,-1,25
 289 268 289 268 241 296 c 0,26,27
 193 325 193 325 164.5 351 c 128,-1,28
 136 377 136 377 124 405 c 128,-1,29
 112 433 112 433 112 466 c 0,30,31
 112 525 112 525 157.5 564 c 128,-1,32
 203 603 203 603 286 603 c 0,33,34
 312 603 312 603 338 600.5 c 128,-1,35
 364 598 364 598 391 591 c 1,36,-1
 376 521 l 1,37,38
 350 527 350 527 329 528.5 c 128,-1,39
 308 530 308 530 285 530 c 0,40,41
 240 530 240 530 216.5 512.5 c 128,-1,42
 193 495 193 495 193 464 c 0,43,44
 193 443 193 443 203 427.5 c 128,-1,45
 213 412 213 412 236.5 395.5 c 128,-1,46
 260 379 260 379 300 354 c 0,47,48
 352 323 352 323 385 293 c 128,-1,49
 418 263 418 263 434 229.5 c 128,-1,50
 450 196 450 196 450 153 c 0,51,52
 450 80 450 80 402.5 35 c 128,-1,53
 355 -10 355 -10 264 -10 c 0,12,13
EndSplineSet
EndChar

StartChar: cagujr
Encoding: 2714 2714 26
Width: 660
Flags: W
LayerCount: 2
Fore
SplineSet
326 131 m 0,0,1
 286 131 286 131 247.5 143.5 c 128,-1,2
 209 156 209 156 176.5 181 c 128,-1,3
 144 206 144 206 119 245 c 1,4,-1
 129 298 l 1,5,-1
 138 303 l 1,6,7
 194 311 194 311 233 345.5 c 128,-1,8
 272 380 272 380 272 430 c 0,9,10
 272 478 272 478 244.5 504 c 128,-1,11
 217 530 217 530 158 530 c 0,12,13
 136 530 136 530 108.5 524.5 c 128,-1,14
 81 519 81 519 58 508 c 1,15,-1
 31 576 l 1,16,17
 55 587 55 587 90 595 c 128,-1,18
 125 603 125 603 161 603 c 0,19,20
 222 603 222 603 264.5 582.5 c 128,-1,21
 307 562 307 562 329.5 523 c 128,-1,22
 352 484 352 484 352 428 c 0,23,24
 352 373 352 373 320 329.5 c 128,-1,25
 288 286 288 286 234.5 261.5 c 128,-1,26
 181 237 181 237 117 237 c 0,27,28
 91 237 91 237 72.5 244 c 128,-1,29
 54 251 54 251 44.5 264.5 c 128,-1,30
 35 278 35 278 35 297 c 256,31,32
 35 316 35 316 49.5 331 c 128,-1,33
 64 346 64 346 94 346 c 0,34,35
 125 346 125 346 145 333 c 128,-1,36
 165 320 165 320 187 295 c 1,37,-1
 201 257 l 1,38,39
 225 232 225 232 251.5 217.5 c 128,-1,40
 278 203 278 203 323 203 c 0,41,42
 367 203 367 203 398 215.5 c 128,-1,43
 429 228 429 228 452 247.5 c 128,-1,44
 475 267 475 267 495 288 c 1,45,-1
 495 191 l 1,46,47
 465 166 465 166 426 148.5 c 128,-1,48
 387 131 387 131 326 131 c 0,0,1
634 0 m 2,49,50
 591 0 591 0 562.5 9.5 c 128,-1,51
 534 19 534 19 517 37 c 0,52,53
 501 54 501 54 493.5 79 c 128,-1,54
 486 104 486 104 486 148 c 2,55,-1
 486 603 l 1,56,-1
 566 592 l 1,57,-1
 566 152 l 2,58,59
 566 125 566 125 569 112.5 c 128,-1,60
 572 100 572 100 578 92 c 0,61,62
 589 78 589 78 610.5 75.5 c 128,-1,63
 632 73 632 73 652 73 c 1,64,-1
 645 0 l 1,65,-1
 634 0 l 2,49,50
EndSplineSet
Substitution2: "Single Substitution lookup 65 subtable" castemgujr
EndChar

StartChar: chagujr
Encoding: 2715 2715 27
Width: 738
GlyphClass: 2
Flags: W
AnchorPoint: "Anchor-3" 435 603 basechar 0
AnchorPoint: "Anchor-2" 347 0 basechar 0
AnchorPoint: "Anchor-1" 377 0 basechar 0
AnchorPoint: "Anchor-0" 525 603 basechar 0
LayerCount: 2
Fore
SplineSet
318 -10 m 0,0,1
 240 -10 240 -10 189 14 c 128,-1,2
 138 38 138 38 113 79.5 c 128,-1,3
 88 121 88 121 88 176 c 0,4,5
 88 227 88 227 112.5 268.5 c 128,-1,6
 137 310 137 310 184.5 334.5 c 128,-1,7
 232 359 232 359 299 359 c 0,8,9
 308 359 308 359 318 358.5 c 128,-1,10
 328 358 328 358 338 357 c 1,11,-1
 329 285 l 1,12,13
 322 286 322 286 315 286 c 128,-1,14
 308 286 308 286 300 286 c 0,15,16
 247 286 247 286 207.5 260 c 128,-1,17
 168 234 168 234 168 177 c 0,18,19
 168 122 168 122 205 93 c 128,-1,20
 242 64 242 64 316 64 c 0,21,22
 395 64 395 64 452.5 93.5 c 128,-1,23
 510 123 510 123 547 171 c 128,-1,24
 584 219 584 219 601.5 274.5 c 128,-1,25
 619 330 619 330 619 382 c 0,26,27
 619 445 619 445 603.5 476.5 c 128,-1,28
 588 508 588 508 566.5 519 c 128,-1,29
 545 530 545 530 526 530 c 0,30,31
 490 530 490 530 472.5 508 c 128,-1,32
 455 486 455 486 455 455 c 0,33,34
 455 415 455 415 487.5 385.5 c 128,-1,35
 520 356 520 356 596 338 c 1,36,-1
 571 267 l 1,37,38
 522 282 522 282 477.5 305 c 128,-1,39
 433 328 433 328 404.5 365.5 c 128,-1,40
 376 403 376 403 376 461 c 0,41,42
 376 499 376 499 392.5 531 c 128,-1,43
 409 563 409 563 443 583 c 128,-1,44
 477 603 477 603 528 603 c 0,45,46
 559 603 559 603 589.5 591.5 c 128,-1,47
 620 580 620 580 645.5 553.5 c 128,-1,48
 671 527 671 527 686 483.5 c 128,-1,49
 701 440 701 440 701 375 c 0,50,51
 701 305 701 305 677.5 236.5 c 128,-1,52
 654 168 654 168 606 112 c 128,-1,53
 558 56 558 56 486 23 c 128,-1,54
 414 -10 414 -10 318 -10 c 0,0,1
166 286 m 1,55,56
 132 305 132 305 104.5 329.5 c 128,-1,57
 77 354 77 354 60.5 386 c 128,-1,58
 44 418 44 418 44 461 c 0,59,60
 44 499 44 499 63 531.5 c 128,-1,61
 82 564 82 564 119 583.5 c 128,-1,62
 156 603 156 603 210 603 c 0,63,64
 236 603 236 603 260.5 600 c 128,-1,65
 285 597 285 597 304 592 c 1,66,-1
 290 520 l 1,67,68
 275 524 275 524 258 526.5 c 128,-1,69
 241 529 241 529 219 529 c 0,70,71
 173 529 173 529 149 508.5 c 128,-1,72
 125 488 125 488 125 456 c 0,73,74
 125 419 125 419 146.5 391 c 128,-1,75
 168 363 168 363 220 338 c 1,76,-1
 166 286 l 1,55,56
EndSplineSet
EndChar

StartChar: jagujr
Encoding: 2716 2716 28
Width: 822
GlyphClass: 2
Flags: W
AnchorPoint: "Anchor-3" 528 603 basechar 0
AnchorPoint: "Anchor-2" 513 0 basechar 0
AnchorPoint: "Anchor-1" 555 0 basechar 0
AnchorPoint: "Anchor-0" 667 603 basechar 0
LayerCount: 2
Fore
SplineSet
549 -10 m 0,0,1
 485 -10 485 -10 446 14.5 c 128,-1,2
 407 39 407 39 389.5 78 c 128,-1,3
 372 117 372 117 372 160 c 0,4,5
 372 213 372 213 391.5 259 c 128,-1,6
 411 305 411 305 450.5 348.5 c 128,-1,7
 490 392 490 392 549 437 c 0,8,9
 585 465 585 465 620 490.5 c 128,-1,10
 655 516 655 516 694.5 544 c 128,-1,11
 734 572 734 572 782 604 c 1,12,-1
 827 539 l 1,13,14
 779 508 779 508 738 481 c 128,-1,15
 697 454 697 454 659.5 428 c 128,-1,16
 622 402 622 402 585 374 c 0,17,18
 529 333 529 333 501 296 c 128,-1,19
 473 259 473 259 463.5 226 c 128,-1,20
 454 193 454 193 454 161 c 0,21,22
 454 115 454 115 476 89 c 128,-1,23
 498 63 498 63 547 63 c 0,24,25
 589 63 589 63 614 88.5 c 128,-1,26
 639 114 639 114 639 170 c 0,27,28
 639 233 639 233 616.5 286 c 128,-1,29
 594 339 594 339 552 385 c 0,30,31
 512 432 512 432 464 465 c 128,-1,32
 416 498 416 498 359 515.5 c 128,-1,33
 302 533 302 533 234 533 c 0,34,35
 169 533 169 533 141 501.5 c 128,-1,36
 113 470 113 470 113 429 c 0,37,38
 113 386 113 386 135 364.5 c 128,-1,39
 157 343 157 343 191 343 c 0,40,41
 237 343 237 343 256.5 367 c 128,-1,42
 276 391 276 391 276 434 c 0,43,44
 276 466 276 466 265.5 494 c 128,-1,45
 255 522 255 522 236 544 c 1,46,-1
 307 555 l 1,47,48
 326 533 326 533 341 502 c 128,-1,49
 356 471 356 471 356 428 c 0,50,51
 356 400 356 400 347.5 371.5 c 128,-1,52
 339 343 339 343 320 320.5 c 128,-1,53
 301 298 301 298 269.5 284 c 128,-1,54
 238 270 238 270 191 270 c 0,55,56
 140 270 140 270 105 291.5 c 128,-1,57
 70 313 70 313 51.5 349.5 c 128,-1,58
 33 386 33 386 33 430 c 0,59,60
 33 477 33 477 57 516.5 c 128,-1,61
 81 556 81 556 127 579.5 c 128,-1,62
 173 603 173 603 240 603 c 0,63,64
 353 603 353 603 442.5 559.5 c 128,-1,65
 532 516 532 516 605 436 c 0,66,67
 658 377 658 377 689.5 310 c 128,-1,68
 721 243 721 243 721 169 c 0,69,70
 721 84 721 84 674.5 37 c 128,-1,71
 628 -10 628 -10 549 -10 c 0,0,1
EndSplineSet
EndChar

StartChar: jhagujr
Encoding: 2717 2717 29
Width: 698
GlyphClass: 2
Flags: W
AnchorPoint: "Anchor-1" 494 0 basechar 0
AnchorPoint: "Anchor-0" 456 603 basechar 0
LayerCount: 2
Fore
SplineSet
215 -10 m 0,0,1
 160 -10 160 -10 109 16 c 128,-1,2
 58 42 58 42 11 115 c 1,3,-1
 74 158 l 1,4,5
 105 113 105 113 134 88 c 128,-1,6
 163 63 163 63 213 63 c 0,7,8
 243 63 243 63 266 80 c 128,-1,9
 289 97 289 97 302.5 135 c 128,-1,10
 316 173 316 173 316 235 c 0,11,12
 316 324 316 324 284 371.5 c 128,-1,13
 252 419 252 419 188 419 c 0,14,15
 151 419 151 419 126.5 411.5 c 128,-1,16
 102 404 102 404 78 392 c 1,17,-1
 52 460 l 1,18,19
 84 474 84 474 122.5 483 c 128,-1,20
 161 492 161 492 195 492 c 0,21,22
 258 492 258 492 303.5 462.5 c 128,-1,23
 349 433 349 433 373.5 375 c 128,-1,24
 398 317 398 317 398 232 c 0,25,26
 398 157 398 157 381 109.5 c 128,-1,27
 364 62 364 62 336.5 36 c 128,-1,28
 309 10 309 10 277 0 c 128,-1,29
 245 -10 245 -10 215 -10 c 0,0,1
537 -6 m 1,30,-1
 481 55 l 1,31,32
 532 93 532 93 554 131 c 128,-1,33
 576 169 576 169 576 221 c 0,34,35
 576 277 576 277 546.5 309 c 128,-1,36
 517 341 517 341 467 341 c 0,37,38
 437 341 437 341 407.5 329 c 128,-1,39
 378 317 378 317 353 291 c 1,40,-1
 320 362 l 1,41,42
 348 383 348 383 385 397.5 c 128,-1,43
 422 412 422 412 466 412 c 0,44,45
 526 412 526 412 568.5 389 c 128,-1,46
 611 366 611 366 633.5 322.5 c 128,-1,47
 656 279 656 279 656 218 c 0,48,49
 656 154 656 154 628.5 100 c 128,-1,50
 601 46 601 46 537 -6 c 1,30,-1
456 388 m 1,51,-1
 456 603 l 1,52,-1
 536 592 l 1,53,-1
 536 388 l 1,54,-1
 456 388 l 1,51,-1
EndSplineSet
EndChar

StartChar: nyagujr
Encoding: 2718 2718 30
Width: 692
Flags: W
LayerCount: 2
Fore
SplineSet
208 178 m 0,0,1
 174 178 174 178 140 190 c 128,-1,2
 106 202 106 202 74 229.5 c 128,-1,3
 42 257 42 257 11 303 c 1,4,-1
 74 346 l 1,5,6
 108 295 108 295 138 273 c 128,-1,7
 168 251 168 251 206 251 c 0,8,9
 247 251 247 251 273 282 c 128,-1,10
 299 313 299 313 299 384 c 0,11,12
 299 461 299 461 269.5 495.5 c 128,-1,13
 240 530 240 530 188 530 c 0,14,15
 157 530 157 530 129 522.5 c 128,-1,16
 101 515 101 515 79 503 c 1,17,-1
 54 570 l 1,18,19
 87 587 87 587 123.5 595 c 128,-1,20
 160 603 160 603 192 603 c 0,21,22
 248 603 248 603 289.5 579.5 c 128,-1,23
 331 556 331 556 354.5 507.5 c 128,-1,24
 378 459 378 459 378 383 c 0,25,26
 378 319 378 319 363 279 c 128,-1,27
 348 239 348 239 323 217 c 128,-1,28
 298 195 298 195 268 186.5 c 128,-1,29
 238 178 238 178 208 178 c 0,0,1
417 332 m 0,30,31
 389 332 389 332 362.5 338.5 c 128,-1,32
 336 345 336 345 311 361 c 1,33,-1
 316 450 l 1,34,35
 336 428 336 428 359.5 416 c 128,-1,36
 383 404 383 404 416 404 c 0,37,38
 460 404 460 404 491.5 421 c 128,-1,39
 523 438 523 438 545 472 c 1,40,-1
 561 389 l 1,41,42
 533 360 533 360 499 346 c 128,-1,43
 465 332 465 332 417 332 c 0,30,31
666 0 m 2,44,45
 623 0 623 0 594 9.5 c 128,-1,46
 565 19 565 19 548 37 c 0,47,48
 532 54 532 54 524.5 79 c 128,-1,49
 517 104 517 104 517 148 c 2,50,-1
 517 603 l 1,51,-1
 597 592 l 1,52,-1
 597 152 l 2,53,54
 597 125 597 125 600 112.5 c 128,-1,55
 603 100 603 100 609 92 c 0,56,57
 620 78 620 78 641.5 75.5 c 128,-1,58
 663 73 663 73 684 73 c 1,59,-1
 676 0 l 1,60,-1
 666 0 l 2,44,45
EndSplineSet
Substitution2: "Single Substitution lookup 65 subtable" nyastemgujr
EndChar

StartChar: ttagujr
Encoding: 2719 2719 31
Width: 451
GlyphClass: 2
Flags: W
AnchorPoint: "Anchor-3" 195 603 basechar 0
AnchorPoint: "Anchor-2" 220 0 basechar 0
AnchorPoint: "Anchor-1" 268 0 basechar 0
AnchorPoint: "Anchor-0" 274 603 basechar 0
LayerCount: 2
Fore
SplineSet
249 -10 m 0,0,1
 185 -10 185 -10 139.5 11.5 c 128,-1,2
 94 33 94 33 70 71.5 c 128,-1,3
 46 110 46 110 46 162 c 0,4,5
 46 230 46 230 89 274.5 c 128,-1,6
 132 319 132 319 208 359 c 0,7,8
 249 381 249 381 274.5 397 c 128,-1,9
 300 413 300 413 311.5 429 c 128,-1,10
 323 445 323 445 323 467 c 0,11,12
 323 501 323 501 299 515.5 c 128,-1,13
 275 530 275 530 237 530 c 0,14,15
 202 530 202 530 172.5 524 c 128,-1,16
 143 518 143 518 113 504 c 1,17,-1
 88 572 l 1,18,19
 121 586 121 586 158.5 594.5 c 128,-1,20
 196 603 196 603 239 603 c 0,21,22
 295 603 295 603 331 586 c 128,-1,23
 367 569 367 569 385 538.5 c 128,-1,24
 403 508 403 508 403 469 c 0,25,26
 403 427 403 427 386 398.5 c 128,-1,27
 369 370 369 370 340.5 348.5 c 128,-1,28
 312 327 312 327 275 307 c 0,29,30
 220 277 220 277 188 254.5 c 128,-1,31
 156 232 156 232 142.5 209 c 128,-1,32
 129 186 129 186 129 154 c 0,33,34
 129 114 129 114 161 88.5 c 128,-1,35
 193 63 193 63 251 63 c 0,36,37
 299 63 299 63 338 76.5 c 128,-1,38
 377 90 377 90 417 115 c 1,39,-1
 454 44 l 1,40,41
 407 18 407 18 360.5 4 c 128,-1,42
 314 -10 314 -10 249 -10 c 0,0,1
EndSplineSet
EndChar

StartChar: tthagujr
Encoding: 2720 2720 32
Width: 517
GlyphClass: 2
Flags: W
AnchorPoint: "Anchor-3" 227 603 basechar 0
AnchorPoint: "Anchor-2" 254 0 basechar 0
AnchorPoint: "Anchor-1" 298 0 basechar 0
AnchorPoint: "Anchor-0" 332 603 basechar 0
LayerCount: 2
Fore
SplineSet
265 -10 m 0,0,1
 191 -10 191 -10 142 14 c 128,-1,2
 93 38 93 38 68.5 80 c 128,-1,3
 44 122 44 122 44 175 c 0,4,5
 44 226 44 226 71 267 c 128,-1,6
 98 308 98 308 149.5 334.5 c 128,-1,7
 201 361 201 361 276 367 c 1,8,-1
 356 348 l 1,9,-1
 370 303 l 1,10,11
 352 305 352 305 329.5 305.5 c 128,-1,12
 307 306 307 306 299 306 c 0,13,14
 251 306 251 306 211.5 290.5 c 128,-1,15
 172 275 172 275 149 245.5 c 128,-1,16
 126 216 126 216 126 173 c 0,17,18
 126 121 126 121 161.5 92 c 128,-1,19
 197 63 197 63 263 63 c 0,20,21
 322 63 322 63 362.5 87 c 128,-1,22
 403 111 403 111 403 167 c 0,23,24
 403 203 403 203 389 229 c 128,-1,25
 375 255 375 255 343.5 279.5 c 128,-1,26
 312 304 312 304 260 334 c 1,27,-1
 244 348 l 1,28,29
 207 370 207 370 176 403 c 128,-1,30
 145 436 145 436 145 483 c 0,31,32
 145 516 145 516 162.5 543.5 c 128,-1,33
 180 571 180 571 215 587 c 128,-1,34
 250 603 250 603 302 603 c 0,35,36
 328 603 328 603 357.5 600.5 c 128,-1,37
 387 598 387 598 414 591 c 1,38,-1
 399 520 l 1,39,40
 376 526 376 526 350 528 c 128,-1,41
 324 530 324 530 304 530 c 0,42,43
 263 530 263 530 244 517 c 128,-1,44
 225 504 225 504 225 481 c 0,45,46
 225 465 225 465 234.5 451 c 128,-1,47
 244 437 244 437 266.5 420.5 c 128,-1,48
 289 404 289 404 328 380 c 0,49,50
 381 348 381 348 415.5 316.5 c 128,-1,51
 450 285 450 285 467.5 248.5 c 128,-1,52
 485 212 485 212 485 165 c 0,53,54
 485 87 485 87 428 38.5 c 128,-1,55
 371 -10 371 -10 265 -10 c 0,0,1
EndSplineSet
EndChar

StartChar: ddagujr
Encoding: 2721 2721 33
Width: 481
GlyphClass: 2
Flags: W
AnchorPoint: "Anchor-3" 218 603 basechar 0
AnchorPoint: "Anchor-2" 237 0 basechar 0
AnchorPoint: "Anchor-1" 286 0 basechar 0
AnchorPoint: "Anchor-0" 309 603 basechar 0
LayerCount: 2
Fore
SplineSet
264 -10 m 0,0,1
 174 -10 174 -10 113.5 34 c 128,-1,2
 53 78 53 78 9 145 c 1,3,-1
 79 188 l 1,4,5
 126 117 126 117 169 90 c 128,-1,6
 212 63 212 63 261 63 c 0,7,8
 309 63 309 63 337 85.5 c 128,-1,9
 365 108 365 108 365 150 c 0,10,11
 365 179 365 179 354 201 c 128,-1,12
 343 223 343 223 316 245.5 c 128,-1,13
 289 268 289 268 241 296 c 0,14,15
 193 325 193 325 164.5 351 c 128,-1,16
 136 377 136 377 124 405 c 128,-1,17
 112 433 112 433 112 466 c 0,18,19
 112 525 112 525 157.5 564 c 128,-1,20
 203 603 203 603 286 603 c 0,21,22
 312 603 312 603 338 600.5 c 128,-1,23
 364 598 364 598 391 591 c 1,24,-1
 376 521 l 1,25,26
 350 527 350 527 329 528.5 c 128,-1,27
 308 530 308 530 285 530 c 0,28,29
 240 530 240 530 216.5 512.5 c 128,-1,30
 193 495 193 495 193 464 c 0,31,32
 193 443 193 443 203 427.5 c 128,-1,33
 213 412 213 412 236.5 395.5 c 128,-1,34
 260 379 260 379 300 354 c 0,35,36
 352 323 352 323 385 293 c 128,-1,37
 418 263 418 263 434 229.5 c 128,-1,38
 450 196 450 196 450 153 c 0,39,40
 450 80 450 80 402.5 35 c 128,-1,41
 355 -10 355 -10 264 -10 c 0,0,1
EndSplineSet
EndChar

StartChar: ddhagujr
Encoding: 2722 2722 34
Width: 516
GlyphClass: 2
Flags: W
AnchorPoint: "Anchor-3" 213 603 basechar 0
AnchorPoint: "Anchor-2" 254 0 basechar 0
AnchorPoint: "Anchor-1" 300 0 basechar 0
AnchorPoint: "Anchor-0" 294 603 basechar 0
LayerCount: 2
Fore
SplineSet
278 -10 m 0,0,1
 197 -10 197 -10 145 14 c 128,-1,2
 93 38 93 38 68.5 79 c 128,-1,3
 44 120 44 120 44 172 c 0,4,5
 44 244 44 244 86.5 286.5 c 128,-1,6
 129 329 129 329 205 367 c 2,7,-1
 233 381 l 2,8,9
 271 400 271 400 292 414 c 128,-1,10
 313 428 313 428 321 441.5 c 128,-1,11
 329 455 329 455 329 472 c 0,12,13
 329 502 329 502 305.5 516 c 128,-1,14
 282 530 282 530 245 530 c 0,15,16
 210 530 210 530 183 524 c 128,-1,17
 156 518 156 518 127 505 c 1,18,-1
 102 572 l 1,19,20
 136 586 136 586 169 594.5 c 128,-1,21
 202 603 202 603 247 603 c 0,22,23
 327 603 327 603 368 566.5 c 128,-1,24
 409 530 409 530 409 474 c 0,25,26
 409 433 409 433 391 405 c 128,-1,27
 373 377 373 377 339.5 355 c 128,-1,28
 306 333 306 333 261 310 c 2,29,-1
 239 299 l 2,30,31
 181 270 181 270 153 242 c 128,-1,32
 125 214 125 214 125 171 c 0,33,34
 125 122 125 122 160 91 c 128,-1,35
 195 60 195 60 276 60 c 2,36,-1
 291 60 l 2,37,38
 347 60 347 60 383.5 80 c 128,-1,39
 420 100 420 100 420 141 c 0,40,41
 420 168 420 168 405 183.5 c 128,-1,42
 390 199 390 199 364 199 c 0,43,44
 332 199 332 199 313 180 c 128,-1,45
 294 161 294 161 294 127 c 0,46,47
 294 98 294 98 304 75 c 128,-1,48
 314 52 314 52 334 22 c 1,49,-1
 264 9 l 1,50,51
 243 45 243 45 231.5 75 c 128,-1,52
 220 105 220 105 220 144 c 0,53,54
 220 201 220 201 259.5 235 c 128,-1,55
 299 269 299 269 360 269 c 0,56,57
 423 269 423 269 459.5 234.5 c 128,-1,58
 496 200 496 200 496 140 c 0,59,60
 496 99 496 99 474 65 c 128,-1,61
 452 31 452 31 404 10.5 c 128,-1,62
 356 -10 356 -10 278 -10 c 0,0,1
EndSplineSet
EndChar

StartChar: nnagujr
Encoding: 2723 2723 35
Width: 821
Flags: W
LayerCount: 2
Fore
SplineSet
425 -142 m 1,0,-1
 360 -97 l 1,1,2
 373 -82 373 -82 380.5 -67 c 128,-1,3
 388 -52 388 -52 388 -35 c 0,4,5
 388 -17 388 -17 379.5 -2.5 c 128,-1,6
 371 12 371 12 352 25 c 128,-1,7
 333 38 333 38 302 52 c 2,8,-1
 163 114 l 2,9,10
 126 131 126 131 107.5 152 c 128,-1,11
 89 173 89 173 82 203.5 c 128,-1,12
 75 234 75 234 75 276 c 2,13,-1
 75 603 l 1,14,-1
 155 592 l 1,15,-1
 155 291 l 2,16,17
 155 262 155 262 157 241 c 128,-1,18
 159 220 159 220 170 204.5 c 128,-1,19
 181 189 181 189 207 177 c 2,20,-1
 346 113 l 2,21,22
 416 81 416 81 444 49 c 128,-1,23
 472 17 472 17 472 -30 c 0,24,25
 472 -64 472 -64 457 -92 c 128,-1,26
 442 -120 442 -120 425 -142 c 1,0,-1
398 210 m 0,27,28
 367 210 367 210 335 221.5 c 128,-1,29
 303 233 303 233 273 255.5 c 128,-1,30
 243 278 243 278 217 310 c 1,31,-1
 277 355 l 1,32,33
 302 324 302 324 330 303 c 128,-1,34
 358 282 358 282 396 282 c 0,35,36
 429 282 429 282 452 307 c 128,-1,37
 475 332 475 332 475 404 c 0,38,39
 475 472 475 472 449.5 502 c 128,-1,40
 424 532 424 532 380 532 c 0,41,42
 354 532 354 532 330.5 526.5 c 128,-1,43
 307 521 307 521 284 509 c 1,44,-1
 259 574 l 1,45,46
 291 590 291 590 323.5 596.5 c 128,-1,47
 356 603 356 603 385 603 c 0,48,49
 435 603 435 603 473.5 580.5 c 128,-1,50
 512 558 512 558 533.5 514 c 128,-1,51
 555 470 555 470 555 404 c 0,52,53
 555 343 555 343 541 305 c 128,-1,54
 527 267 527 267 504 246.5 c 128,-1,55
 481 226 481 226 453 218 c 128,-1,56
 425 210 425 210 398 210 c 0,27,28
795 0 m 2,57,58
 752 0 752 0 723.5 9.5 c 128,-1,59
 695 19 695 19 678 37 c 0,60,61
 662 54 662 54 654.5 79 c 128,-1,62
 647 104 647 104 647 148 c 2,63,-1
 647 603 l 1,64,-1
 727 592 l 1,65,-1
 727 152 l 2,66,67
 727 125 727 125 730 112.5 c 128,-1,68
 733 100 733 100 739 92 c 0,69,70
 750 78 750 78 771.5 75.5 c 128,-1,71
 793 73 793 73 813 73 c 1,72,-1
 806 0 l 1,73,-1
 795 0 l 2,57,58
EndSplineSet
Substitution2: "Single Substitution lookup 65 subtable" nnastemgujr
EndChar

StartChar: tagujr
Encoding: 2724 2724 36
Width: 572
Flags: W
LayerCount: 2
Fore
SplineSet
209 12 m 1,0,1
 164 48 164 48 126.5 87.5 c 128,-1,2
 89 127 89 127 66 170 c 128,-1,3
 43 213 43 213 43 261 c 0,4,5
 43 300 43 300 56 330 c 128,-1,6
 69 360 69 360 93 381 c 0,7,8
 123 407 123 407 170.5 420 c 128,-1,9
 218 433 218 433 306 433 c 2,10,-1
 418 433 l 1,11,-1
 418 360 l 1,12,-1
 300 360 l 2,13,14
 255 360 255 360 228 357 c 128,-1,15
 201 354 201 354 185 347.5 c 128,-1,16
 169 341 169 341 156 331 c 0,17,18
 141 319 141 319 133 301.5 c 128,-1,19
 125 284 125 284 125 261 c 0,20,21
 125 227 125 227 141.5 196 c 128,-1,22
 158 165 158 165 189 134 c 128,-1,23
 220 103 220 103 262 68 c 1,24,-1
 209 12 l 1,0,1
546 0 m 2,25,26
 503 0 503 0 474.5 9.5 c 128,-1,27
 446 19 446 19 429 37 c 0,28,29
 413 54 413 54 405.5 79 c 128,-1,30
 398 104 398 104 398 148 c 2,31,-1
 398 603 l 1,32,-1
 478 592 l 1,33,-1
 478 152 l 2,34,35
 478 125 478 125 481 112.5 c 128,-1,36
 484 100 484 100 490 92 c 0,37,38
 501 78 501 78 522.5 75.5 c 128,-1,39
 544 73 544 73 564 73 c 1,40,-1
 557 0 l 1,41,-1
 546 0 l 2,25,26
EndSplineSet
Substitution2: "Single Substitution lookup 65 subtable" tastemgujr
EndChar

StartChar: thagujr
Encoding: 2725 2725 37
Width: 625
Flags: W
LayerCount: 2
Fore
SplineSet
275 146 m 0,0,1
 216 146 216 146 172 166.5 c 128,-1,2
 128 187 128 187 97.5 226.5 c 128,-1,3
 67 266 67 266 48 321 c 1,4,5
 111 340 111 340 154 362 c 128,-1,6
 197 384 197 384 218.5 412.5 c 128,-1,7
 240 441 240 441 240 477 c 0,8,9
 240 506 240 506 222.5 520.5 c 128,-1,10
 205 535 205 535 179 535 c 0,11,12
 150 535 150 535 133.5 522.5 c 128,-1,13
 117 510 117 510 117 489 c 0,14,15
 117 472 117 472 126.5 458 c 128,-1,16
 136 444 136 444 162 430 c 1,17,-1
 116 376 l 1,18,19
 76 398 76 398 58 426.5 c 128,-1,20
 40 455 40 455 40 491 c 0,21,22
 40 521 40 521 55.5 546.5 c 128,-1,23
 71 572 71 572 102 587.5 c 128,-1,24
 133 603 133 603 178 603 c 0,25,26
 216 603 216 603 242.5 592 c 128,-1,27
 269 581 269 581 286 562.5 c 128,-1,28
 303 544 303 544 310.5 521 c 128,-1,29
 318 498 318 498 318 474 c 0,30,31
 318 427 318 427 295 389.5 c 128,-1,32
 272 352 272 352 229 323 c 128,-1,33
 186 294 186 294 124 270 c 1,34,-1
 143 295 l 1,35,36
 160 261 160 261 191.5 239.5 c 128,-1,37
 223 218 223 218 276 218 c 0,38,39
 338 218 338 218 381 241.5 c 128,-1,40
 424 265 424 265 455 297 c 1,41,-1
 455 205 l 1,42,43
 425 182 425 182 383 164 c 128,-1,44
 341 146 341 146 275 146 c 0,0,1
599 0 m 2,45,46
 556 0 556 0 527 9.5 c 128,-1,47
 498 19 498 19 481 37 c 0,48,49
 465 54 465 54 457.5 79 c 128,-1,50
 450 104 450 104 450 148 c 2,51,-1
 450 603 l 1,52,-1
 530 592 l 1,53,-1
 530 152 l 2,54,55
 530 125 530 125 533 112.5 c 128,-1,56
 536 100 536 100 542 92 c 0,57,58
 553 78 553 78 574.5 75.5 c 128,-1,59
 596 73 596 73 617 73 c 1,60,-1
 609 0 l 1,61,-1
 599 0 l 2,45,46
EndSplineSet
Substitution2: "Single Substitution lookup 65 subtable" thastemgujr
EndChar

StartChar: dagujr
Encoding: 2726 2726 38
Width: 467
GlyphClass: 2
Flags: W
AnchorPoint: "Anchor-3" 184 603 basechar 0
AnchorPoint: "Anchor-1" 312 0 basechar 0
AnchorPoint: "Anchor-0" 273 603 basechar 0
LayerCount: 2
Fore
SplineSet
298 -10 m 0,0,1
 232 -10 232 -10 185 14 c 128,-1,2
 138 38 138 38 112.5 79.5 c 128,-1,3
 87 121 87 121 87 176 c 0,4,5
 87 232 87 232 116.5 273 c 128,-1,6
 146 314 146 314 196 336.5 c 128,-1,7
 246 359 246 359 308 359 c 0,8,9
 331 359 331 359 349.5 357 c 128,-1,10
 368 355 368 355 383 353 c 1,11,-1
 369 281 l 1,12,13
 357 283 357 283 341.5 284.5 c 128,-1,14
 326 286 326 286 310 286 c 0,15,16
 273 286 273 286 240.5 274.5 c 128,-1,17
 208 263 208 263 188 239 c 128,-1,18
 168 215 168 215 168 176 c 0,19,20
 168 139 168 139 183 113.5 c 128,-1,21
 198 88 198 88 227.5 75.5 c 128,-1,22
 257 63 257 63 299 63 c 0,23,24
 326 63 326 63 345 66.5 c 128,-1,25
 364 70 364 70 378 80 c 1,26,-1
 377 47 l 1,27,28
 365 61 365 61 361 71 c 128,-1,29
 357 81 357 81 357 94 c 0,30,31
 357 120 357 120 373 134 c 128,-1,32
 389 148 389 148 415 148 c 0,33,34
 444 148 444 148 458.5 130.5 c 128,-1,35
 473 113 473 113 473 90 c 0,36,37
 473 56 473 56 448.5 33.5 c 128,-1,38
 424 11 424 11 384 0.5 c 128,-1,39
 344 -10 344 -10 298 -10 c 0,0,1
156 292 m 1,40,41
 109 321 109 321 76.5 360 c 128,-1,42
 44 399 44 399 44 457 c 0,43,44
 44 495 44 495 63.5 528 c 128,-1,45
 83 561 83 561 125 582 c 128,-1,46
 167 603 167 603 233 603 c 0,47,48
 261 603 261 603 293 598.5 c 128,-1,49
 325 594 325 594 343 589 c 1,50,-1
 329 518 l 1,51,52
 313 522 313 522 290 525.5 c 128,-1,53
 267 529 267 529 244 529 c 0,54,55
 180 529 180 529 152.5 506 c 128,-1,56
 125 483 125 483 125 451 c 0,57,58
 125 416 125 416 149 387 c 128,-1,59
 173 358 173 358 232 333 c 1,60,-1
 156 292 l 1,40,41
EndSplineSet
EndChar

StartChar: dhagujr
Encoding: 2727 2727 39
Width: 606
Flags: W
LayerCount: 2
Fore
SplineSet
273 107 m 0,0,1
 213 107 213 107 170.5 127 c 128,-1,2
 128 147 128 147 105.5 181.5 c 128,-1,3
 83 216 83 216 83 261 c 0,4,5
 83 303 83 303 102 337 c 128,-1,6
 121 371 121 371 160 391 c 128,-1,7
 199 411 199 411 259 411 c 0,8,9
 273 411 273 411 290 409 c 128,-1,10
 307 407 307 407 320 405 c 1,11,-1
 308 333 l 1,12,13
 298 335 298 335 284.5 336.5 c 128,-1,14
 271 338 271 338 257 338 c 0,15,16
 217 338 217 338 190.5 320.5 c 128,-1,17
 164 303 164 303 164 264 c 0,18,19
 164 222 164 222 191.5 200.5 c 128,-1,20
 219 179 219 179 273 179 c 0,21,22
 323 179 323 179 364.5 198 c 128,-1,23
 406 217 406 217 447 259 c 1,24,-1
 447 165 l 1,25,26
 418 143 418 143 377 125 c 128,-1,27
 336 107 336 107 273 107 c 0,0,1
166 323 m 1,28,29
 137 338 137 338 108.5 359.5 c 128,-1,30
 80 381 80 381 62 411 c 128,-1,31
 44 441 44 441 44 481 c 0,32,33
 44 536 44 536 84 578.5 c 128,-1,34
 124 621 124 621 206 646 c 1,35,-1
 235 574 l 1,36,37
 187 561 187 561 163.5 543.5 c 128,-1,38
 140 526 140 526 132.5 508 c 128,-1,39
 125 490 125 490 125 474 c 0,40,41
 125 442 125 442 147.5 416.5 c 128,-1,42
 170 391 170 391 220 374 c 1,43,-1
 166 323 l 1,28,29
580 0 m 2,44,45
 537 0 537 0 508 9.5 c 128,-1,46
 479 19 479 19 462 37 c 0,47,48
 446 54 446 54 438.5 79 c 128,-1,49
 431 104 431 104 431 148 c 2,50,-1
 431 603 l 1,51,-1
 511 592 l 1,52,-1
 511 152 l 2,53,54
 511 125 511 125 514 112.5 c 128,-1,55
 517 100 517 100 523 92 c 0,56,57
 534 78 534 78 555.5 75.5 c 128,-1,58
 577 73 577 73 598 73 c 1,59,-1
 590 0 l 1,60,-1
 580 0 l 2,44,45
EndSplineSet
Substitution2: "Single Substitution lookup 65 subtable" dhastemgujr
EndChar

StartChar: nagujr
Encoding: 2728 2728 40
Width: 546
Flags: W
LayerCount: 2
Fore
SplineSet
520 0 m 2,0,1
 485 0 485 0 454.5 7.5 c 128,-1,2
 424 15 424 15 403 37 c 0,3,4
 384 57 384 57 378 81.5 c 128,-1,5
 372 106 372 106 372 148 c 2,6,-1
 372 603 l 1,7,-1
 452 592 l 1,8,-1
 452 152 l 2,9,10
 452 125 452 125 455 112.5 c 128,-1,11
 458 100 458 100 464 92 c 0,12,13
 475 78 475 78 496 75.5 c 128,-1,14
 517 73 517 73 538 73 c 1,15,-1
 530 0 l 1,16,-1
 520 0 l 2,0,1
140 214 m 0,17,18
 122 214 122 214 101.5 226.5 c 128,-1,19
 81 239 81 239 63.5 259 c 128,-1,20
 46 279 46 279 35 302.5 c 128,-1,21
 24 326 24 326 24 348 c 0,22,23
 24 371 24 371 37.5 385.5 c 128,-1,24
 51 400 51 400 84 400 c 2,25,-1
 408 400 l 1,26,-1
 408 328 l 1,27,-1
 191 328 l 1,28,-1
 191 271 l 2,29,30
 191 242 191 242 177 228 c 128,-1,31
 163 214 163 214 140 214 c 0,17,18
EndSplineSet
Substitution2: "Single Substitution lookup 65 subtable" nastemgujr
EndChar

StartChar: pagujr
Encoding: 2730 2730 41
Width: 568
Flags: W
LayerCount: 2
Fore
SplineSet
264 161 m 0,0,1
 225 161 225 161 194 173 c 128,-1,2
 163 185 163 185 143 204 c 0,3,4
 118 229 118 229 105.5 262 c 128,-1,5
 93 295 93 295 93 350 c 2,6,-1
 93 440 l 2,7,8
 93 467 93 467 90 479.5 c 128,-1,9
 87 492 87 492 81 500 c 0,10,11
 71 514 71 514 49 516.5 c 128,-1,12
 27 519 27 519 6 519 c 1,13,-1
 14 592 l 1,14,-1
 24 592 l 2,15,16
 68 592 68 592 96.5 582.5 c 128,-1,17
 125 573 125 573 142 555 c 0,18,19
 159 538 159 538 166 513 c 128,-1,20
 173 488 173 488 173 443 c 2,21,-1
 173 357 l 2,22,23
 173 311 173 311 181 288.5 c 128,-1,24
 189 266 189 266 202 253 c 0,25,26
 213 243 213 243 230.5 238 c 128,-1,27
 248 233 248 233 272 233 c 0,28,29
 312 233 312 233 347 252.5 c 128,-1,30
 382 272 382 272 405 298 c 1,31,-1
 405 208 l 1,32,33
 377 187 377 187 342.5 174 c 128,-1,34
 308 161 308 161 264 161 c 0,0,1
542 0 m 2,35,36
 499 0 499 0 470 9.5 c 128,-1,37
 441 19 441 19 424 37 c 0,38,39
 408 54 408 54 400.5 79 c 128,-1,40
 393 104 393 104 393 148 c 2,41,-1
 393 603 l 1,42,-1
 473 592 l 1,43,-1
 473 152 l 2,44,45
 473 125 473 125 476 112.5 c 128,-1,46
 479 100 479 100 485 92 c 0,47,48
 496 78 496 78 517.5 75.5 c 128,-1,49
 539 73 539 73 560 73 c 1,50,-1
 552 0 l 1,51,-1
 542 0 l 2,35,36
EndSplineSet
Substitution2: "Single Substitution lookup 65 subtable" pastemgujr
EndChar

StartChar: phagujr
Encoding: 2731 2731 42
Width: 511
GlyphClass: 2
Flags: W
AnchorPoint: "Anchor-3" 214 603 basechar 0
AnchorPoint: "Anchor-0" 314 603 basechar 0
LayerCount: 2
Fore
SplineSet
379 -178 m 2,0,1
 313 -178 313 -178 266 -148 c 128,-1,2
 219 -118 219 -118 184 -69 c 128,-1,3
 149 -20 149 -20 117 38 c 1,4,-1
 96 109 l 1,5,6
 125 93 125 93 148 82.5 c 128,-1,7
 171 72 171 72 196 66.5 c 128,-1,8
 221 61 221 61 257 61 c 0,9,10
 314 61 314 61 342.5 83 c 128,-1,11
 371 105 371 105 371 144 c 0,12,13
 371 163 371 163 361.5 184 c 128,-1,14
 352 205 352 205 325 230 c 128,-1,15
 298 255 298 255 246 285 c 1,16,-1
 219 306 l 2,17,18
 184 329 184 329 157.5 351.5 c 128,-1,19
 131 374 131 374 117 401 c 128,-1,20
 103 428 103 428 103 462 c 0,21,22
 103 524 103 524 150.5 563.5 c 128,-1,23
 198 603 198 603 277 603 c 0,24,25
 309 603 309 603 338 599.5 c 128,-1,26
 367 596 367 596 394 589 c 1,27,-1
 379 517 l 1,28,29
 353 523 353 523 332.5 526 c 128,-1,30
 312 529 312 529 286 529 c 0,31,32
 235 529 235 529 210 509 c 128,-1,33
 185 489 185 489 185 455 c 0,34,35
 185 437 185 437 195 419 c 128,-1,36
 205 401 205 401 227 383.5 c 128,-1,37
 249 366 249 366 285 347 c 1,38,-1
 313 322 l 1,39,40
 359 296 359 296 390 269 c 128,-1,41
 421 242 421 242 437 211 c 128,-1,42
 453 180 453 180 453 142 c 0,43,44
 453 105 453 105 434.5 70 c 128,-1,45
 416 35 416 35 373.5 12.5 c 128,-1,46
 331 -10 331 -10 259 -10 c 0,47,48
 234 -10 234 -10 205 -8 c 128,-1,49
 176 -6 176 -6 153 -4 c 0,50,51
 106 0 106 0 82.5 13.5 c 128,-1,52
 59 27 59 27 51 43.5 c 128,-1,53
 43 60 43 60 43 73 c 0,54,55
 43 96 43 96 58.5 109 c 128,-1,56
 74 122 74 122 96 122 c 0,57,58
 116 122 116 122 133.5 114 c 128,-1,59
 151 106 151 106 167.5 91.5 c 128,-1,60
 184 77 184 77 200 56 c 1,61,-1
 188 48 l 1,62,63
 222 -7 222 -7 251 -40.5 c 128,-1,64
 280 -74 280 -74 310 -88.5 c 128,-1,65
 340 -103 340 -103 378 -103 c 2,66,-1
 404 -103 l 1,67,-1
 395 -178 l 1,68,-1
 379 -178 l 2,0,1
65 211 m 1,69,-1
 38 282 l 1,70,-1
 229 350 l 1,71,-1
 464 438 l 1,72,-1
 496 368 l 1,73,-1
 289 297 l 1,74,-1
 65 211 l 1,69,-1
EndSplineSet
Substitution2: "Single Substitution lookup 65 subtable" phaaltgujr
Substitution2: "Single Substitution lookup 64 subtable" phasquishgujr
EndChar

StartChar: bagujr
Encoding: 2732 2732 43
Width: 734
Flags: W
LayerCount: 2
Fore
SplineSet
233 151 m 0,0,1
 178 151 178 151 135.5 175.5 c 128,-1,2
 93 200 93 200 68.5 246 c 128,-1,3
 44 292 44 292 44 354 c 0,4,5
 44 447 44 447 100 509.5 c 128,-1,6
 156 572 156 572 259 603 c 1,7,-1
 282 531 l 1,8,9
 194 503 194 503 160 457 c 128,-1,10
 126 411 126 411 126 353 c 0,11,12
 126 305 126 305 142 276.5 c 128,-1,13
 158 248 158 248 183 235.5 c 128,-1,14
 208 223 208 223 234 223 c 0,15,16
 262 223 262 223 281.5 232 c 128,-1,17
 301 241 301 241 314 258 c 256,18,19
 327 275 327 275 332 299 c 128,-1,20
 337 323 337 323 337 369 c 2,21,-1
 337 447 l 1,22,-1
 417 437 l 1,23,-1
 417 335 l 2,24,25
 417 256 417 256 372.5 203.5 c 128,-1,26
 328 151 328 151 233 151 c 0,0,1
475 228 m 0,27,28
 435 228 435 228 402.5 250 c 128,-1,29
 370 272 370 272 349 333 c 1,30,-1
 404 357 l 1,31,32
 414 325 414 325 432 312.5 c 128,-1,33
 450 300 450 300 475 300 c 0,34,35
 511 300 511 300 537 318.5 c 128,-1,36
 563 337 563 337 585 371 c 1,37,-1
 602 291 l 1,38,39
 576 261 576 261 548 244.5 c 128,-1,40
 520 228 520 228 475 228 c 0,27,28
708 0 m 2,41,42
 673 0 673 0 642.5 7.5 c 128,-1,43
 612 15 612 15 591 37 c 0,44,45
 572 57 572 57 566 81.5 c 128,-1,46
 560 106 560 106 560 148 c 2,47,-1
 560 603 l 1,48,-1
 640 592 l 1,49,-1
 640 152 l 2,50,51
 640 125 640 125 643 112.5 c 128,-1,52
 646 100 646 100 652 92 c 0,53,54
 663 78 663 78 684 75.5 c 128,-1,55
 705 73 705 73 726 73 c 1,56,-1
 718 0 l 1,57,-1
 708 0 l 2,41,42
EndSplineSet
Substitution2: "Single Substitution lookup 65 subtable" bastemgujr
EndChar

StartChar: bhagujr
Encoding: 2733 2733 44
Width: 809
Flags: W
LayerCount: 2
Fore
SplineSet
234 48 m 1,0,1
 180 96 180 96 137.5 146.5 c 128,-1,2
 95 197 95 197 70 255 c 128,-1,3
 45 313 45 313 45 384 c 0,4,5
 45 450 45 450 71.5 499 c 128,-1,6
 98 548 98 548 145.5 575.5 c 128,-1,7
 193 603 193 603 255 603 c 0,8,9
 299 603 299 603 331.5 591 c 128,-1,10
 364 579 364 579 389 556 c 0,11,12
 418 529 418 529 433.5 487.5 c 128,-1,13
 449 446 449 446 449 377 c 2,14,-1
 449 339 l 1,15,-1
 369 339 l 1,16,-1
 369 372 l 2,17,18
 369 416 369 416 362.5 445.5 c 128,-1,19
 356 475 356 475 341 494 c 0,20,21
 328 511 328 511 307 520.5 c 128,-1,22
 286 530 286 530 255 530 c 0,23,24
 209 530 209 530 180.5 508.5 c 128,-1,25
 152 487 152 487 139 453 c 128,-1,26
 126 419 126 419 126 382 c 0,27,28
 126 322 126 322 148 273.5 c 128,-1,29
 170 225 170 225 207.5 183.5 c 128,-1,30
 245 142 245 142 290 102 c 1,31,-1
 234 48 l 1,0,1
403 201 m 0,32,33
 384 201 384 201 363.5 212.5 c 128,-1,34
 343 224 343 224 326.5 242.5 c 128,-1,35
 310 261 310 261 299.5 282.5 c 128,-1,36
 289 304 289 304 289 323 c 0,37,38
 289 340 289 340 302 352.5 c 128,-1,39
 315 365 315 365 345 365 c 2,40,-1
 660 365 l 1,41,-1
 660 293 l 1,42,-1
 449 293 l 1,43,-1
 449 263 l 2,44,45
 449 229 449 229 435 215 c 128,-1,46
 421 201 421 201 403 201 c 0,32,33
783 0 m 2,47,48
 740 0 740 0 712 9.5 c 128,-1,49
 684 19 684 19 666 37 c 0,50,51
 649 54 649 54 641.5 79 c 128,-1,52
 634 104 634 104 634 148 c 2,53,-1
 634 602 l 1,54,-1
 714 592 l 1,55,-1
 714 152 l 2,56,57
 714 124 714 124 717 112 c 128,-1,58
 720 100 720 100 729 90 c 0,59,60
 740 77 740 77 758.5 75 c 128,-1,61
 777 73 777 73 801 73 c 1,62,-1
 793 0 l 1,63,-1
 783 0 l 2,47,48
EndSplineSet
Substitution2: "Single Substitution lookup 65 subtable" bhastemgujr
EndChar

StartChar: magujr
Encoding: 2734 2734 45
Width: 594
Flags: W
LayerCount: 2
Fore
SplineSet
568 0 m 2,0,1
 525 0 525 0 496.5 9.5 c 128,-1,2
 468 19 468 19 451 37 c 0,3,4
 435 54 435 54 427.5 79 c 128,-1,5
 420 104 420 104 420 148 c 2,6,-1
 420 603 l 1,7,-1
 500 592 l 1,8,-1
 500 152 l 2,9,10
 500 125 500 125 503 112.5 c 128,-1,11
 506 100 506 100 512 92 c 0,12,13
 523 78 523 78 544.5 75.5 c 128,-1,14
 566 73 566 73 586 73 c 1,15,-1
 579 0 l 1,16,-1
 568 0 l 2,0,1
166 152 m 0,17,18
 146 152 146 152 126 163.5 c 128,-1,19
 106 175 106 175 89 193.5 c 128,-1,20
 72 212 72 212 61.5 233.5 c 128,-1,21
 51 255 51 255 51 274 c 0,22,23
 51 291 51 291 64 303.5 c 128,-1,24
 77 316 77 316 107 316 c 2,25,-1
 432 316 l 1,26,-1
 432 244 l 1,27,-1
 211 244 l 1,28,-1
 211 215 l 2,29,30
 211 181 211 181 197 166.5 c 128,-1,31
 183 152 183 152 166 152 c 0,17,18
131 300 m 1,32,-1
 131 440 l 2,33,34
 131 468 131 468 128 480 c 128,-1,35
 125 492 125 492 119 500 c 0,36,37
 109 514 109 514 87 517 c 128,-1,38
 65 520 65 520 44 520 c 1,39,-1
 52 592 l 1,40,-1
 63 592 l 2,41,42
 106 592 106 592 134.5 583 c 128,-1,43
 163 574 163 574 180 556 c 0,44,45
 191 545 191 545 198 530 c 128,-1,46
 205 515 205 515 208 494.5 c 128,-1,47
 211 474 211 474 211 444 c 2,48,-1
 211 300 l 1,49,-1
 131 300 l 1,32,-1
EndSplineSet
Substitution2: "Single Substitution lookup 65 subtable" mastemgujr
EndChar

StartChar: yagujr
Encoding: 2735 2735 46
Width: 594
Flags: W
LayerCount: 2
Fore
SplineSet
271 161 m 0,0,1
 214 161 214 161 170 182 c 128,-1,2
 126 203 126 203 94.5 241.5 c 128,-1,3
 63 280 63 280 43 333 c 1,4,5
 103 350 103 350 138.5 378 c 128,-1,6
 174 406 174 406 174 452 c 0,7,8
 174 489 174 489 149.5 510 c 128,-1,9
 125 531 125 531 83 531 c 0,10,11
 65 531 65 531 54.5 529.5 c 128,-1,12
 44 528 44 528 32 526 c 1,13,-1
 14 594 l 1,14,15
 25 597 25 597 42.5 600 c 128,-1,16
 60 603 60 603 88 603 c 0,17,18
 139 603 139 603 176.5 585.5 c 128,-1,19
 214 568 214 568 234.5 534.5 c 128,-1,20
 255 501 255 501 255 453 c 0,21,22
 255 393 255 393 219.5 353 c 128,-1,23
 184 313 184 313 125 290 c 1,24,-1
 142 309 l 1,25,26
 155 279 155 279 188 256 c 128,-1,27
 221 233 221 233 269 233 c 0,28,29
 321 233 321 233 358.5 253 c 128,-1,30
 396 273 396 273 421 300 c 1,31,-1
 421 209 l 1,32,33
 393 188 393 188 358 174.5 c 128,-1,34
 323 161 323 161 271 161 c 0,0,1
568 0 m 2,35,36
 525 0 525 0 497 9.5 c 128,-1,37
 469 19 469 19 451 37 c 0,38,39
 434 54 434 54 426.5 79 c 128,-1,40
 419 104 419 104 419 148 c 2,41,-1
 419 603 l 1,42,-1
 499 593 l 1,43,-1
 499 152 l 2,44,45
 499 124 499 124 502 112 c 128,-1,46
 505 100 505 100 514 90 c 0,47,48
 525 77 525 77 544.5 75 c 128,-1,49
 564 73 564 73 586 73 c 1,50,-1
 578 0 l 1,51,-1
 568 0 l 2,35,36
EndSplineSet
Substitution2: "Single Substitution lookup 65 subtable" yastemgujr
EndChar

StartChar: ragujr
Encoding: 2736 2736 47
Width: 445
GlyphClass: 2
Flags: W
AnchorPoint: "Anchor-3" 169 603 basechar 0
AnchorPoint: "Anchor-2" 243 0 basechar 0
AnchorPoint: "Anchor-1" 264 0 basechar 0
AnchorPoint: "Anchor-0" 235 603 basechar 0
LayerCount: 2
Fore
SplineSet
412 0 m 2,0,1
 357 0 357 0 312.5 20.5 c 128,-1,2
 268 41 268 41 232.5 74 c 128,-1,3
 197 107 197 107 168.5 146.5 c 128,-1,4
 140 186 140 186 116 225 c 1,5,-1
 124 265 l 1,6,7
 169 268 169 268 212.5 285 c 128,-1,8
 256 302 256 302 284.5 335 c 128,-1,9
 313 368 313 368 313 417 c 0,10,11
 313 473 313 473 279 501.5 c 128,-1,12
 245 530 245 530 189 530 c 0,13,14
 153 530 153 530 121.5 523 c 128,-1,15
 90 516 90 516 55 499 c 1,16,-1
 29 568 l 1,17,18
 66 584 66 584 107.5 593.5 c 128,-1,19
 149 603 149 603 191 603 c 0,20,21
 252 603 252 603 298 582 c 128,-1,22
 344 561 344 561 370 520 c 128,-1,23
 396 479 396 479 396 418 c 0,24,25
 396 364 396 364 372.5 321.5 c 128,-1,26
 349 279 349 279 309 249 c 128,-1,27
 269 219 269 219 220 203.5 c 128,-1,28
 171 188 171 188 121 188 c 0,29,30
 75 188 75 188 52 202 c 128,-1,31
 29 216 29 216 29 249 c 0,32,33
 29 274 29 274 46 287.5 c 128,-1,34
 63 301 63 301 90 301 c 0,35,36
 116 301 116 301 141 290 c 128,-1,37
 166 279 166 279 199 246 c 1,38,-1
 186 246 l 1,39,40
 233 178 233 178 269.5 140.5 c 128,-1,41
 306 103 306 103 342 89 c 128,-1,42
 378 75 378 75 422 75 c 2,43,-1
 436 75 l 1,44,-1
 427 0 l 1,45,-1
 412 0 l 2,0,1
EndSplineSet
EndChar

StartChar: lagujr
Encoding: 2738 2738 48
Width: 651
Flags: W
LayerCount: 2
Fore
SplineSet
279 105 m 0,0,1
 208 105 208 105 155 133 c 128,-1,2
 102 161 102 161 73 213 c 128,-1,3
 44 265 44 265 44 337 c 0,4,5
 44 404 44 404 74 457.5 c 128,-1,6
 104 511 104 511 161 548 c 128,-1,7
 218 585 218 585 299 603 c 1,8,-1
 319 528 l 1,9,10
 226 509 226 509 176 462.5 c 128,-1,11
 126 416 126 416 126 333 c 0,12,13
 126 255 126 255 169 217 c 128,-1,14
 212 179 212 179 276 179 c 0,15,16
 308 179 308 179 333 184 c 128,-1,17
 358 189 358 189 380 199 c 1,18,-1
 411 132 l 1,19,20
 384 119 384 119 350.5 112 c 128,-1,21
 317 105 317 105 279 105 c 0,0,1
244 304 m 1,22,-1
 226 377 l 1,23,-1
 493 431 l 1,24,-1
 493 355 l 1,25,-1
 244 304 l 1,22,-1
625 0 m 2,26,27
 590 0 590 0 559.5 7.5 c 128,-1,28
 529 15 529 15 508 37 c 0,29,30
 489 57 489 57 483 81.5 c 128,-1,31
 477 106 477 106 477 148 c 2,32,-1
 477 603 l 1,33,-1
 557 592 l 1,34,-1
 557 152 l 2,35,36
 557 125 557 125 560 112.5 c 128,-1,37
 563 100 563 100 569 92 c 0,38,39
 580 78 580 78 601 75.5 c 128,-1,40
 622 73 622 73 643 73 c 1,41,-1
 635 0 l 1,42,-1
 625 0 l 2,26,27
EndSplineSet
Substitution2: "Single Substitution lookup 65 subtable" lastemgujr
EndChar

StartChar: llagujr
Encoding: 2739 2739 49
Width: 750
GlyphClass: 2
Flags: W
AnchorPoint: "Anchor-0" 509 603 basechar 0
LayerCount: 2
Fore
SplineSet
724 0 m 2,0,1
 681 0 681 0 652 9.5 c 128,-1,2
 623 19 623 19 606 37 c 0,3,4
 590 54 590 54 582.5 79 c 128,-1,5
 575 104 575 104 575 148 c 2,6,-1
 575 398 l 2,7,8
 575 444 575 444 570 466.5 c 128,-1,9
 565 489 565 489 551 503 c 0,10,11
 534 522 534 522 503 522 c 0,12,13
 488 522 488 522 476 516.5 c 128,-1,14
 464 511 464 511 455 503 c 0,15,16
 441 490 441 490 436 467.5 c 128,-1,17
 431 445 431 445 431 398 c 2,18,-1
 431 375 l 2,19,20
 431 317 431 317 422 269 c 128,-1,21
 413 221 413 221 378 188 c 0,22,23
 356 167 356 167 323 154 c 128,-1,24
 290 141 290 141 242 141 c 0,25,26
 185 141 185 141 140 166 c 128,-1,27
 95 191 95 191 69.5 239 c 128,-1,28
 44 287 44 287 44 354 c 0,29,30
 44 413 44 413 68.5 461 c 128,-1,31
 93 509 93 509 141 545 c 128,-1,32
 189 581 189 581 259 603 c 1,33,-1
 282 530 l 1,34,35
 195 501 195 501 160.5 454.5 c 128,-1,36
 126 408 126 408 126 350 c 0,37,38
 126 299 126 299 142.5 269 c 128,-1,39
 159 239 159 239 185.5 226 c 128,-1,40
 212 213 212 213 241 213 c 0,41,42
 271 213 271 213 291.5 222 c 128,-1,43
 312 231 312 231 325 246 c 0,44,45
 339 263 339 263 345 287 c 128,-1,46
 351 311 351 311 351 356 c 2,47,-1
 351 410 l 2,48,49
 351 451 351 451 357 489.5 c 128,-1,50
 363 528 363 528 400 559 c 0,51,52
 418 575 418 575 443.5 584 c 128,-1,53
 469 593 469 593 503 593 c 0,54,55
 536 593 536 593 562 584 c 128,-1,56
 588 575 588 575 606 559 c 0,57,58
 632 537 632 537 643.5 506.5 c 128,-1,59
 655 476 655 476 655 423 c 2,60,-1
 655 152 l 2,61,62
 655 125 655 125 658 112.5 c 128,-1,63
 661 100 661 100 667 92 c 0,64,65
 678 78 678 78 699.5 75.5 c 128,-1,66
 721 73 721 73 742 73 c 1,67,-1
 734 0 l 1,68,-1
 724 0 l 2,0,1
EndSplineSet
Substitution2: "Single Substitution lookup 65 subtable" llastemgujr
EndChar

StartChar: vagujr
Encoding: 2741 2741 50
Width: 577
Flags: W
LayerCount: 2
Fore
SplineSet
244 161 m 256,0,1
 185 161 185 161 140 183 c 128,-1,2
 95 205 95 205 69.5 246.5 c 128,-1,3
 44 288 44 288 44 345 c 0,4,5
 44 408 44 408 72.5 451 c 128,-1,6
 101 494 101 494 150.5 516.5 c 128,-1,7
 200 539 200 539 263 539 c 0,8,9
 285 539 285 539 313 536 c 128,-1,10
 341 533 341 533 359 528 c 1,11,-1
 346 458 l 1,12,13
 329 461 329 461 310 463.5 c 128,-1,14
 291 466 291 466 266 466 c 0,15,16
 199 466 199 466 162 435 c 128,-1,17
 125 404 125 404 125 346 c 256,18,19
 125 288 125 288 159 260.5 c 128,-1,20
 193 233 193 233 243 233 c 0,21,22
 299 233 299 233 336 252 c 128,-1,23
 373 271 373 271 408 304 c 1,24,-1
 408 210 l 1,25,26
 377 190 377 190 340 175.5 c 128,-1,27
 303 161 303 161 244 161 c 256,0,1
551 0 m 2,28,29
 508 0 508 0 479.5 9.5 c 128,-1,30
 451 19 451 19 434 37 c 0,31,32
 418 54 418 54 410.5 79 c 128,-1,33
 403 104 403 104 403 148 c 2,34,-1
 403 603 l 1,35,-1
 483 592 l 1,36,-1
 483 152 l 2,37,38
 483 125 483 125 486 112.5 c 128,-1,39
 489 100 489 100 495 92 c 0,40,41
 506 78 506 78 527.5 75.5 c 128,-1,42
 549 73 549 73 569 73 c 1,43,-1
 562 0 l 1,44,-1
 551 0 l 2,28,29
EndSplineSet
Substitution2: "Single Substitution lookup 65 subtable" vastemgujr
EndChar

StartChar: shagujr
Encoding: 2742 2742 51
Width: 677
Flags: W
LayerCount: 2
Fore
SplineSet
387 0 m 2,0,1
 342 0 342 0 303 19.5 c 128,-1,2
 264 39 264 39 231 71 c 128,-1,3
 198 103 198 103 170 141.5 c 128,-1,4
 142 180 142 180 118 219 c 1,5,-1
 126 254 l 1,6,7
 186 262 186 262 228 282 c 128,-1,8
 270 302 270 302 292 335.5 c 128,-1,9
 314 369 314 369 314 417 c 0,10,11
 314 460 314 460 298.5 485 c 128,-1,12
 283 510 283 510 260 520.5 c 128,-1,13
 237 531 237 531 212 531 c 0,14,15
 175 531 175 531 159.5 515 c 128,-1,16
 144 499 144 499 144 482 c 256,17,18
 144 465 144 465 152.5 449.5 c 128,-1,19
 161 434 161 434 186 421.5 c 128,-1,20
 211 409 211 409 258 399 c 1,21,-1
 232 332 l 1,22,23
 149 352 149 352 107.5 388.5 c 128,-1,24
 66 425 66 425 66 484 c 0,25,26
 66 514 66 514 82 541 c 128,-1,27
 98 568 98 568 131 585 c 128,-1,28
 164 602 164 602 214 602 c 0,29,30
 260 602 260 602 301.5 581.5 c 128,-1,31
 343 561 343 561 369.5 519 c 128,-1,32
 396 477 396 477 396 413 c 0,33,34
 396 361 396 361 374 318.5 c 128,-1,35
 352 276 352 276 313.5 246 c 128,-1,36
 275 216 275 216 227 199.5 c 128,-1,37
 179 183 179 183 126 183 c 0,38,39
 95 183 95 183 73.5 189.5 c 128,-1,40
 52 196 52 196 41.5 209.5 c 128,-1,41
 31 223 31 223 31 244 c 0,42,43
 31 267 31 267 48 280.5 c 128,-1,44
 65 294 65 294 91 294 c 256,45,46
 117 294 117 294 142 284 c 128,-1,47
 167 274 167 274 201 241 c 1,48,-1
 188 240 l 1,49,50
 223 190 223 190 254.5 152.5 c 128,-1,51
 286 115 286 115 320.5 95 c 128,-1,52
 355 75 355 75 398 75 c 2,53,-1
 411 75 l 1,54,-1
 402 0 l 1,55,-1
 387 0 l 2,0,1
651 0 m 2,56,57
 608 0 608 0 580 9.5 c 128,-1,58
 552 19 552 19 534 37 c 0,59,60
 517 54 517 54 509.5 79 c 128,-1,61
 502 104 502 104 502 148 c 2,62,-1
 502 603 l 1,63,-1
 583 592 l 1,64,-1
 583 152 l 2,65,66
 583 125 583 125 586 113 c 128,-1,67
 589 101 589 101 595 92 c 0,68,69
 605 78 605 78 626.5 75.5 c 128,-1,70
 648 73 648 73 669 73 c 1,71,-1
 661 0 l 1,72,-1
 651 0 l 2,56,57
EndSplineSet
Substitution2: "Single Substitution lookup 65 subtable" shastemgujr
EndChar

StartChar: ssagujr
Encoding: 2743 2743 52
Width: 578
Flags: W
LayerCount: 2
Fore
SplineSet
264 162 m 0,0,1
 225 162 225 162 194 174 c 128,-1,2
 163 186 163 186 143 205 c 0,3,4
 118 230 118 230 105.5 263 c 128,-1,5
 93 296 93 296 93 351 c 2,6,-1
 93 453 l 2,7,8
 93 472 93 472 91.5 483 c 128,-1,9
 90 494 90 494 84 502 c 0,10,11
 76 513 76 513 59 516.5 c 128,-1,12
 42 520 42 520 6 520 c 1,13,-1
 14 593 l 1,14,-1
 21 593 l 2,15,16
 56 593 56 593 77 589 c 128,-1,17
 98 585 98 585 114.5 575.5 c 128,-1,18
 131 566 131 566 152 550 c 2,19,-1
 340 411 l 2,20,21
 364 394 364 394 380 381 c 128,-1,22
 396 368 396 368 412 354 c 128,-1,23
 428 340 428 340 449 319 c 1,24,-1
 427 267 l 1,25,-1
 272 381 l 2,26,27
 248 399 248 399 229.5 413 c 128,-1,28
 211 427 211 427 192 444 c 128,-1,29
 173 461 173 461 148 484 c 1,30,-1
 166 478 l 1,31,32
 170 459 170 459 171.5 437 c 128,-1,33
 173 415 173 415 173 389 c 2,34,-1
 173 358 l 2,35,36
 173 312 173 312 181 289.5 c 128,-1,37
 189 267 189 267 202 254 c 0,38,39
 213 244 213 244 230.5 239 c 128,-1,40
 248 234 248 234 272 234 c 0,41,42
 309 234 309 234 343 250 c 128,-1,43
 377 266 377 266 408 293 c 1,44,-1
 419 219 l 1,45,46
 391 197 391 197 354.5 179.5 c 128,-1,47
 318 162 318 162 264 162 c 0,0,1
552 0 m 2,48,49
 509 0 509 0 481 9.5 c 128,-1,50
 453 19 453 19 435 37 c 0,51,52
 418 54 418 54 410.5 79 c 128,-1,53
 403 104 403 104 403 148 c 2,54,-1
 403 602 l 1,55,-1
 483 592 l 1,56,-1
 483 152 l 2,57,58
 483 124 483 124 486 112 c 128,-1,59
 489 100 489 100 498 90 c 0,60,61
 509 77 509 77 527 75 c 128,-1,62
 545 73 545 73 570 73 c 1,63,-1
 562 0 l 1,64,-1
 552 0 l 2,48,49
EndSplineSet
Substitution2: "Single Substitution lookup 65 subtable" ssastemgujr
EndChar

StartChar: sagujr
Encoding: 2744 2744 53
Width: 711
Flags: W
LayerCount: 2
Fore
SplineSet
413 0 m 2,0,1
 357 0 357 0 312.5 20.5 c 128,-1,2
 268 41 268 41 232.5 74 c 128,-1,3
 197 107 197 107 168.5 146.5 c 128,-1,4
 140 186 140 186 116 225 c 1,5,-1
 127 265 l 1,6,7
 170 270 170 270 209.5 287.5 c 128,-1,8
 249 305 249 305 274.5 337 c 128,-1,9
 300 369 300 369 300 416 c 0,10,11
 300 472 300 472 268 501 c 128,-1,12
 236 530 236 530 183 530 c 0,13,14
 149 530 149 530 119.5 523 c 128,-1,15
 90 516 90 516 55 499 c 1,16,-1
 29 568 l 1,17,18
 66 584 66 584 106 593.5 c 128,-1,19
 146 603 146 603 186 603 c 0,20,21
 245 603 245 603 288.5 582 c 128,-1,22
 332 561 332 561 356.5 520 c 128,-1,23
 381 479 381 479 381 418 c 0,24,25
 381 364 381 364 358.5 321.5 c 128,-1,26
 336 279 336 279 298.5 249 c 128,-1,27
 261 219 261 219 214.5 203.5 c 128,-1,28
 168 188 168 188 121 188 c 0,29,30
 75 188 75 188 52 202.5 c 128,-1,31
 29 217 29 217 29 249 c 0,32,33
 29 274 29 274 46 287.5 c 128,-1,34
 63 301 63 301 90 301 c 0,35,36
 116 301 116 301 140.5 290 c 128,-1,37
 165 279 165 279 199 246 c 1,38,-1
 186 246 l 1,39,40
 233 178 233 178 269.5 140.5 c 128,-1,41
 306 103 306 103 342 89 c 128,-1,42
 378 75 378 75 422 75 c 2,43,-1
 436 75 l 1,44,-1
 427 0 l 1,45,-1
 413 0 l 2,0,1
435 286 m 0,46,47
 402 286 402 286 370.5 294 c 128,-1,48
 339 302 339 302 316 318 c 1,49,-1
 325 389 l 1,50,51
 346 376 346 376 373.5 366.5 c 128,-1,52
 401 357 401 357 432 357 c 0,53,54
 476 357 476 357 503.5 367 c 128,-1,55
 531 377 531 377 562 400 c 1,56,-1
 577 329 l 1,57,58
 548 309 548 309 516.5 297.5 c 128,-1,59
 485 286 485 286 435 286 c 0,46,47
685 0 m 2,60,61
 650 0 650 0 619.5 7.5 c 128,-1,62
 589 15 589 15 568 37 c 0,63,64
 549 57 549 57 543 81.5 c 128,-1,65
 537 106 537 106 537 148 c 2,66,-1
 537 603 l 1,67,-1
 617 592 l 1,68,-1
 617 152 l 2,69,70
 617 125 617 125 620 112.5 c 128,-1,71
 623 100 623 100 629 92 c 0,72,73
 640 78 640 78 661 75.5 c 128,-1,74
 682 73 682 73 703 73 c 1,75,-1
 695 0 l 1,76,-1
 685 0 l 2,60,61
EndSplineSet
Substitution2: "Single Substitution lookup 65 subtable" sastemgujr
EndChar

StartChar: hagujr
Encoding: 2745 2745 54
Width: 633
GlyphClass: 2
Flags: W
AnchorPoint: "Anchor-3" 347 603 basechar 0
AnchorPoint: "Anchor-1" 362 0 basechar 0
AnchorPoint: "Anchor-0" 432 603 basechar 0
LayerCount: 2
Fore
SplineSet
396 -10 m 0,0,1
 307 -10 307 -10 241 14 c 128,-1,2
 175 38 175 38 132 79.5 c 128,-1,3
 89 121 89 121 67.5 175 c 128,-1,4
 46 229 46 229 46 289 c 0,5,6
 46 345 46 345 56 389 c 128,-1,7
 66 433 66 433 85 468 c 1,8,-1
 161 433 l 1,9,10
 147 402 147 402 138.5 366.5 c 128,-1,11
 130 331 130 331 130 289 c 0,12,13
 130 222 130 222 161.5 171 c 128,-1,14
 193 120 193 120 252 91.5 c 128,-1,15
 311 63 311 63 394 63 c 0,16,17
 449 63 449 63 497.5 73.5 c 128,-1,18
 546 84 546 84 595 106 c 1,19,-1
 628 35 l 1,20,21
 588 19 588 19 553 9 c 128,-1,22
 518 -1 518 -1 481 -5.5 c 128,-1,23
 444 -10 444 -10 396 -10 c 0,0,1
422 161 m 0,24,25
 359 161 359 161 299 191 c 128,-1,26
 239 221 239 221 189 291 c 1,27,-1
 257 332 l 1,28,29
 292 283 292 283 333 258 c 128,-1,30
 374 233 374 233 423 233 c 0,31,32
 455 233 455 233 476 244.5 c 128,-1,33
 497 256 497 256 497 284 c 0,34,35
 497 311 497 311 477.5 328 c 128,-1,36
 458 345 458 345 400 366 c 0,37,38
 336 389 336 389 304.5 419 c 128,-1,39
 273 449 273 449 273 493 c 0,40,41
 273 543 273 543 312 572.5 c 128,-1,42
 351 602 351 602 427 602 c 0,43,44
 452 602 452 602 479 598.5 c 128,-1,45
 506 595 506 595 526 590 c 1,46,-1
 511 518 l 1,47,48
 489 524 489 524 466 527 c 128,-1,49
 443 530 443 530 415 530 c 0,50,51
 384 530 384 530 368.5 521 c 128,-1,52
 353 512 353 512 353 494 c 0,53,54
 353 477 353 477 370 464 c 128,-1,55
 387 451 387 451 436 433 c 0,56,57
 517 404 517 404 547 369 c 128,-1,58
 577 334 577 334 577 285 c 0,59,60
 577 225 577 225 535 193 c 128,-1,61
 493 161 493 161 422 161 c 0,24,25
EndSplineSet
EndChar

StartChar: nuktagujr
Encoding: 2748 2748 55
Width: 0
GlyphClass: 4
Flags: W
AnchorPoint: "Anchor-8" -257 0 mark 0
AnchorPoint: "Anchor-6" -258 -192 basemark 0
AnchorPoint: "Anchor-1" -257 0 mark 0
LayerCount: 2
Fore
SplineSet
-257 -192 m 256,0,1
 -280 -192 -280 -192 -296.5 -175.5 c 128,-1,2
 -313 -159 -313 -159 -313 -134 c 0,3,4
 -313 -110 -313 -110 -296.5 -93 c 128,-1,5
 -280 -76 -280 -76 -257 -76 c 256,6,7
 -234 -76 -234 -76 -218 -93 c 128,-1,8
 -202 -110 -202 -110 -202 -134 c 0,9,10
 -202 -159 -202 -159 -218 -175.5 c 128,-1,11
 -234 -192 -234 -192 -257 -192 c 256,0,1
EndSplineSet
EndChar

StartChar: avagrahagujr
Encoding: 2749 2749 56
Width: 471
Flags: W
LayerCount: 2
Fore
SplineSet
262 38 m 0,0,1
 174 38 174 38 115 82 c 128,-1,2
 56 126 56 126 12 193 c 1,3,-1
 83 235 l 1,4,5
 132 163 132 163 173.5 137 c 128,-1,6
 215 111 215 111 262 111 c 0,7,8
 299 111 299 111 323 127.5 c 128,-1,9
 347 144 347 144 347 180 c 0,10,11
 347 203 347 203 337.5 223 c 128,-1,12
 328 243 328 243 304.5 267.5 c 128,-1,13
 281 292 281 292 237 326 c 0,14,15
 192 363 192 363 168 390.5 c 128,-1,16
 144 418 144 418 135.5 442 c 128,-1,17
 127 466 127 466 127 490 c 0,18,19
 127 513 127 513 136.5 531.5 c 128,-1,20
 146 550 146 550 165 565 c 0,21,22
 181 578 181 578 206.5 585 c 128,-1,23
 232 592 232 592 282 592 c 2,24,-1
 417 592 l 1,25,-1
 417 520 l 1,26,-1
 272 520 l 2,27,28
 246 520 246 520 236 517.5 c 128,-1,29
 226 515 226 515 221 511 c 0,30,31
 215 507 215 507 211.5 500.5 c 128,-1,32
 208 494 208 494 208 484 c 0,33,34
 208 469 208 469 216 455.5 c 128,-1,35
 224 442 224 442 245.5 422.5 c 128,-1,36
 267 403 267 403 308 370 c 0,37,38
 353 334 353 334 380 304 c 128,-1,39
 407 274 407 274 418.5 244.5 c 128,-1,40
 430 215 430 215 430 180 c 0,41,42
 430 110 430 110 383 74 c 128,-1,43
 336 38 336 38 262 38 c 0,0,1
EndSplineSet
EndChar

StartChar: aavowelsigngujr
Encoding: 2750 2750 57
Width: 265
Flags: W
LayerCount: 2
Fore
SplineSet
239 0 m 2,0,1
 196 0 196 0 168 9.5 c 128,-1,2
 140 19 140 19 122 37 c 0,3,4
 105 54 105 54 97.5 79 c 128,-1,5
 90 104 90 104 90 148 c 2,6,-1
 90 603 l 1,7,-1
 170 593 l 1,8,-1
 170 152 l 2,9,10
 170 124 170 124 173 112 c 128,-1,11
 176 100 176 100 185 90 c 0,12,13
 196 77 196 77 215.5 75 c 128,-1,14
 235 73 235 73 257 73 c 1,15,-1
 249 0 l 1,16,-1
 239 0 l 2,0,1
EndSplineSet
EndChar

StartChar: iivowelsigngujr
Encoding: 2752 2752 59
Width: 265
Flags: W
LayerCount: 2
Fore
SplineSet
239 0 m 2,0,1
 204 0 204 0 173.5 7.5 c 128,-1,2
 143 15 143 15 122 37 c 0,3,4
 102 57 102 57 96 84 c 128,-1,5
 90 111 90 111 90 148 c 2,6,-1
 90 611 l 1,7,8
 83 661 83 661 70 700.5 c 128,-1,9
 57 740 57 740 40 767.5 c 128,-1,10
 23 795 23 795 2.5 809.5 c 128,-1,11
 -18 824 -18 824 -41 824 c 0,12,13
 -71 824 -71 824 -91.5 801.5 c 128,-1,14
 -112 779 -112 779 -112 729 c 0,15,16
 -112 715 -112 715 -111 699 c 128,-1,17
 -110 683 -110 683 -107 668 c 1,18,-1
 -184 668 l 1,19,20
 -187 682 -187 682 -189 702.5 c 128,-1,21
 -191 723 -191 723 -191 739 c 0,22,23
 -191 813 -191 813 -151 854.5 c 128,-1,24
 -111 896 -111 896 -41 896 c 0,25,26
 4 896 4 896 40.5 873 c 128,-1,27
 77 850 77 850 103.5 810.5 c 128,-1,28
 130 771 130 771 146.5 720.5 c 128,-1,29
 163 670 163 670 170 614 c 1,30,-1
 170 152 l 2,31,32
 170 124 170 124 173 113 c 128,-1,33
 176 102 176 102 183 92 c 0,34,35
 194 78 194 78 215.5 75.5 c 128,-1,36
 237 73 237 73 257 73 c 1,37,-1
 249 0 l 1,38,-1
 239 0 l 2,0,1
EndSplineSet
Substitution2: "Single Substitution lookup 70 subtable" iivowelsign1gujr
Substitution2: "Single Substitution lookup 69 subtable" iivowelsign2gujr
EndChar

StartChar: uvowelsigngujr
Encoding: 2753 2753 60
Width: 0
GlyphClass: 4
Flags: W
AnchorPoint: "Anchor-8" -175 0 mark 0
AnchorPoint: "Anchor-1" -175 0 mark 0
LayerCount: 2
Fore
SplineSet
-162 -268 m 0,0,1
 -227 -268 -227 -268 -280 -247.5 c 128,-1,2
 -333 -227 -333 -227 -377 -189 c 128,-1,3
 -421 -151 -421 -151 -461 -100 c 1,4,-1
 -399 -57 l 1,5,6
 -360 -105 -360 -105 -324.5 -136 c 128,-1,7
 -289 -167 -289 -167 -250 -181.5 c 128,-1,8
 -211 -196 -211 -196 -162 -196 c 0,9,10
 -106 -196 -106 -196 -81.5 -178.5 c 128,-1,11
 -57 -161 -57 -161 -57 -127 c 0,12,13
 -57 -97 -57 -97 -79.5 -82.5 c 128,-1,14
 -102 -68 -102 -68 -137 -68 c 0,15,16
 -164 -68 -164 -68 -185 -73.5 c 128,-1,17
 -206 -79 -206 -79 -227 -90 c 1,18,-1
 -253 -23 l 1,19,20
 -227 -12 -227 -12 -198.5 -6 c 128,-1,21
 -170 0 -170 0 -142 0 c 0,22,23
 -65 0 -65 0 -24 -37 c 128,-1,24
 17 -74 17 -74 17 -135 c 0,25,26
 17 -193 17 -193 -28 -230.5 c 128,-1,27
 -73 -268 -73 -268 -162 -268 c 0,0,1
EndSplineSet
Substitution2: "Single Substitution lookup 66 subtable" uvowelsignnarrowgujr
Substitution2: "Single Substitution lookup 63 subtable" uvowelsignlowgujr
EndChar

StartChar: uuvowelsigngujr
Encoding: 2754 2754 61
Width: 0
GlyphClass: 4
Flags: W
AnchorPoint: "Anchor-8" -175 0 mark 0
AnchorPoint: "Anchor-1" -175 0 mark 0
LayerCount: 2
Fore
SplineSet
-178 -268 m 0,0,1
 -229 -268 -229 -268 -265 -250.5 c 128,-1,2
 -301 -233 -301 -233 -319.5 -202.5 c 128,-1,3
 -338 -172 -338 -172 -338 -132 c 0,4,5
 -338 -95 -338 -95 -317.5 -65 c 128,-1,6
 -297 -35 -297 -35 -259 -17.5 c 128,-1,7
 -221 0 -221 0 -167 0 c 0,8,9
 -92 0 -92 0 -36 -26 c 128,-1,10
 20 -52 20 -52 62.5 -95 c 128,-1,11
 105 -138 105 -138 139 -189 c 1,12,-1
 78 -228 l 1,13,14
 42 -176 42 -176 5 -140.5 c 128,-1,15
 -32 -105 -32 -105 -72.5 -86.5 c 128,-1,16
 -113 -68 -113 -68 -162 -68 c 0,17,18
 -214 -68 -214 -68 -239 -86 c 128,-1,19
 -264 -104 -264 -104 -264 -133 c 0,20,21
 -264 -169 -264 -169 -239.5 -182.5 c 128,-1,22
 -215 -196 -215 -196 -184 -196 c 0,23,24
 -156 -196 -156 -196 -135 -190.5 c 128,-1,25
 -114 -185 -114 -185 -93 -175 c 1,26,-1
 -68 -245 l 1,27,28
 -94 -255 -94 -255 -122.5 -261.5 c 128,-1,29
 -151 -268 -151 -268 -178 -268 c 0,0,1
EndSplineSet
Substitution2: "Single Substitution lookup 63 subtable" uuvowelsignlowgujr
EndChar

StartChar: rvocalicvowelsigngujr
Encoding: 2755 2755 62
Width: 0
GlyphClass: 4
Flags: W
AnchorPoint: "Anchor-8" -174 0 mark 0
AnchorPoint: "Anchor-1" -174 0 mark 0
LayerCount: 2
Fore
SplineSet
25 -233 m 1,0,1
 -1 -246 -1 -246 -35 -257 c 128,-1,2
 -69 -268 -69 -268 -110 -268 c 0,3,4
 -160 -268 -160 -268 -196 -250 c 128,-1,5
 -232 -232 -232 -232 -251 -200 c 128,-1,6
 -270 -168 -270 -168 -270 -126 c 0,7,8
 -270 -70 -270 -70 -225.5 -28.5 c 128,-1,9
 -181 13 -181 13 -94 18 c 1,10,-1
 -94 -49 l 1,11,12
 -148 -57 -148 -57 -171.5 -78 c 128,-1,13
 -195 -99 -195 -99 -195 -132 c 256,14,15
 -195 -165 -195 -165 -171 -180 c 128,-1,16
 -147 -195 -147 -195 -116 -195 c 0,17,18
 -84 -195 -84 -195 -60 -187.5 c 128,-1,19
 -36 -180 -36 -180 -2 -163 c 1,20,-1
 25 -233 l 1,0,1
EndSplineSet
Substitution2: "Single Substitution lookup 63 subtable" rvocalicvowelsignlowgujr
EndChar

StartChar: rrvocalicvowelsigngujr
Encoding: 2756 2756 63
Width: 0
GlyphClass: 4
Flags: W
AnchorPoint: "Anchor-8" -174 0 mark 0
AnchorPoint: "Anchor-1" -174 0 mark 0
LayerCount: 2
Fore
SplineSet
-71 -394 m 0,0,1
 -124 -394 -124 -394 -159.5 -377 c 128,-1,2
 -195 -360 -195 -360 -213 -330 c 128,-1,3
 -231 -300 -231 -300 -231 -262 c 0,4,5
 -231 -242 -231 -242 -223 -223.5 c 128,-1,6
 -215 -205 -215 -205 -198 -188 c 1,7,-1
 -192 -221 l 1,8,9
 -229 -205 -229 -205 -249.5 -174.5 c 128,-1,10
 -270 -144 -270 -144 -270 -107 c 0,11,12
 -270 -60 -270 -60 -225.5 -23.5 c 128,-1,13
 -181 13 -181 13 -94 18 c 1,14,-1
 -94 -49 l 1,15,16
 -148 -55 -148 -55 -172 -72.5 c 128,-1,17
 -196 -90 -196 -90 -196 -115 c 0,18,19
 -196 -143 -196 -143 -174 -156 c 128,-1,20
 -152 -169 -152 -169 -115 -169 c 0,21,22
 -83 -169 -83 -169 -59.5 -162.5 c 128,-1,23
 -36 -156 -36 -156 -2 -141 c 1,24,-1
 23 -204 l 1,25,26
 -3 -217 -3 -217 -36 -227.5 c 128,-1,27
 -69 -238 -69 -238 -110 -238 c 0,28,29
 -125 -238 -125 -238 -139 -236.5 c 128,-1,30
 -153 -235 -153 -235 -167 -231 c 1,31,-1
 -133 -226 l 1,32,33
 -146 -236 -146 -236 -151.5 -247 c 128,-1,34
 -157 -258 -157 -258 -157 -271 c 0,35,36
 -157 -299 -157 -299 -135 -311.5 c 128,-1,37
 -113 -324 -113 -324 -76 -324 c 0,38,39
 -44 -324 -44 -324 -20.5 -317.5 c 128,-1,40
 3 -311 3 -311 37 -296 c 1,41,-1
 62 -359 l 1,42,43
 36 -372 36 -372 3 -383 c 128,-1,44
 -30 -394 -30 -394 -71 -394 c 0,0,1
EndSplineSet
EndChar

StartChar: ecandravowelsigngujr
Encoding: 2757 2757 64
Width: 0
GlyphClass: 4
Flags: W
AnchorPoint: "Anchor-7" -175 603 mark 0
AnchorPoint: "Anchor-4" -175 603 mark 0
AnchorPoint: "Anchor-0" -175 603 mark 0
LayerCount: 2
Fore
SplineSet
-130 641 m 0,0,1
 -190 641 -190 641 -239.5 666.5 c 128,-1,2
 -289 692 -289 692 -329 735 c 128,-1,3
 -369 778 -369 778 -403 829 c 1,4,-1
 -342 868 l 1,5,6
 -305 814 -305 814 -272.5 780 c 128,-1,7
 -240 746 -240 746 -206 730.5 c 128,-1,8
 -172 715 -172 715 -130 715 c 0,9,10
 -111 715 -111 715 -96 718 c 128,-1,11
 -81 721 -81 721 -73 724 c 1,12,-1
 -49 653 l 1,13,14
 -65 648 -65 648 -84.5 644.5 c 128,-1,15
 -104 641 -104 641 -130 641 c 0,0,1
EndSplineSet
EndChar

StartChar: evowelsigngujr
Encoding: 2759 2759 65
Width: 0
GlyphClass: 4
Flags: W
AnchorPoint: "Anchor-7" -175 603 mark 0
AnchorPoint: "Anchor-4" -175 603 mark 0
AnchorPoint: "Anchor-0" -175 603 mark 0
LayerCount: 2
Fore
SplineSet
-173 641 m 1,0,1
 -191 707 -191 707 -210.5 747.5 c 128,-1,2
 -230 788 -230 788 -254.5 806 c 128,-1,3
 -279 824 -279 824 -314 824 c 0,4,5
 -325 824 -325 824 -339 822 c 128,-1,6
 -353 820 -353 820 -366 815 c 1,7,-1
 -390 884 l 1,8,9
 -369 891 -369 891 -348 893.5 c 128,-1,10
 -327 896 -327 896 -309 896 c 0,11,12
 -274 896 -274 896 -244 885.5 c 128,-1,13
 -214 875 -214 875 -189 847.5 c 128,-1,14
 -164 820 -164 820 -142 770 c 128,-1,15
 -120 720 -120 720 -102 641 c 1,16,-1
 -173 641 l 1,0,1
EndSplineSet
EndChar

StartChar: aivowelsigngujr
Encoding: 2760 2760 66
Width: 0
GlyphClass: 4
Flags: W
AnchorPoint: "Anchor-7" -175 603 mark 0
AnchorPoint: "Anchor-4" -46 763 basemark 0
AnchorPoint: "Anchor-4" -175 603 mark 0
AnchorPoint: "Anchor-0" -175 603 mark 0
LayerCount: 2
Fore
SplineSet
-165 641 m 1,0,1
 -181 712 -181 712 -198 752.5 c 128,-1,2
 -215 793 -215 793 -237.5 809.5 c 128,-1,3
 -260 826 -260 826 -295 826 c 0,4,5
 -305 826 -305 826 -319.5 823.5 c 128,-1,6
 -334 821 -334 821 -347 816 c 1,7,-1
 -370 884 l 1,8,9
 -350 891 -350 891 -329 893.5 c 128,-1,10
 -308 896 -308 896 -290 896 c 0,11,12
 -254 896 -254 896 -225 884 c 128,-1,13
 -196 872 -196 872 -173 843 c 128,-1,14
 -150 814 -150 814 -132 764.5 c 128,-1,15
 -114 715 -114 715 -101 641 c 1,16,-1
 -165 641 l 1,0,1
-210 624 m 1,17,18
 -246 656 -246 656 -275.5 675 c 128,-1,19
 -305 694 -305 694 -332 702.5 c 128,-1,20
 -359 711 -359 711 -389 711 c 0,21,22
 -408 711 -408 711 -423 708 c 128,-1,23
 -438 705 -438 705 -447 701 c 1,24,-1
 -470 770 l 1,25,26
 -454 775 -454 775 -434.5 778 c 128,-1,27
 -415 781 -415 781 -390 781 c 0,28,29
 -351 781 -351 781 -317 769.5 c 128,-1,30
 -283 758 -283 758 -247.5 732.5 c 128,-1,31
 -212 707 -212 707 -169 665 c 1,32,-1
 -210 624 l 1,17,18
EndSplineSet
EndChar

StartChar: viramagujr
Encoding: 2765 2765 70
Width: 0
GlyphClass: 4
Flags: W
AnchorPoint: "Anchor-8" -175 0 mark 0
AnchorPoint: "Anchor-1" -175 0 mark 0
LayerCount: 2
Fore
SplineSet
86 -258 m 1,0,1
 49 -204 49 -204 19 -175 c 128,-1,2
 -11 -146 -11 -146 -39.5 -135 c 128,-1,3
 -68 -124 -68 -124 -101 -124 c 0,4,5
 -120 -124 -120 -124 -134.5 -127 c 128,-1,6
 -149 -130 -149 -130 -158 -133 c 1,7,-1
 -182 -62 l 1,8,9
 -166 -57 -166 -57 -146 -53.5 c 128,-1,10
 -126 -50 -126 -50 -101 -50 c 0,11,12
 -47 -50 -47 -50 -3.5 -71 c 128,-1,13
 40 -92 40 -92 77 -130 c 128,-1,14
 114 -168 114 -168 149 -220 c 1,15,-1
 86 -258 l 1,0,1
EndSplineSet
Substitution2: "Single Substitution lookup 63 subtable" viramalowgujr
EndChar

StartChar: omgujr
Encoding: 2768 2768 71
Width: 890
Flags: W
LayerCount: 2
Fore
SplineSet
256 -10 m 0,0,1
 198 -10 198 -10 153.5 10 c 128,-1,2
 109 30 109 30 75 65.5 c 128,-1,3
 41 101 41 101 12 145 c 1,4,-1
 82 187 l 1,5,6
 129 116 129 116 168.5 89.5 c 128,-1,7
 208 63 208 63 253 63 c 0,8,9
 303 63 303 63 335.5 87.5 c 128,-1,10
 368 112 368 112 368 166 c 0,11,12
 368 203 368 203 353 231.5 c 128,-1,13
 338 260 338 260 312 280 c 1,14,15
 284 268 284 268 251 261 c 128,-1,16
 218 254 218 254 183 251 c 1,17,-1
 168 328 l 1,18,19
 224 333 224 333 266 344.5 c 128,-1,20
 308 356 308 356 331.5 379 c 128,-1,21
 355 402 355 402 355 440 c 0,22,23
 355 481 355 481 327.5 505 c 128,-1,24
 300 529 300 529 244 529 c 0,25,26
 204 529 204 529 176 522.5 c 128,-1,27
 148 516 148 516 110 499 c 1,28,-1
 84 567 l 1,29,30
 122 584 122 584 162.5 593.5 c 128,-1,31
 203 603 203 603 246 603 c 0,32,33
 314 603 314 603 356 582 c 128,-1,34
 398 561 398 561 417 524.5 c 128,-1,35
 436 488 436 488 436 442 c 0,36,37
 436 402 436 402 420.5 371 c 128,-1,38
 405 340 405 340 379 318 c 1,39,40
 384 314 384 314 387.5 310.5 c 128,-1,41
 391 307 391 307 395 302 c 0,42,43
 406 296 406 296 416 293.5 c 128,-1,44
 426 291 426 291 436 291 c 0,45,46
 456 291 456 291 471.5 302.5 c 128,-1,47
 487 314 487 314 505 342 c 2,48,-1
 535 390 l 2,49,50
 559 428 559 428 581.5 450.5 c 128,-1,51
 604 473 604 473 631 483.5 c 128,-1,52
 658 494 658 494 694 494 c 0,53,54
 733 494 733 494 768 475 c 128,-1,55
 803 456 803 456 825.5 416.5 c 128,-1,56
 848 377 848 377 848 314 c 0,57,58
 848 261 848 261 826.5 221 c 128,-1,59
 805 181 805 181 766 159.5 c 128,-1,60
 727 138 727 138 675 138 c 0,61,62
 627 138 627 138 591.5 154 c 128,-1,63
 556 170 556 170 524 198 c 1,64,-1
 575 253 l 1,65,66
 598 233 598 233 621 221 c 128,-1,67
 644 209 644 209 675 209 c 0,68,69
 710 209 710 209 738.5 235.5 c 128,-1,70
 767 262 767 262 767 315 c 256,71,72
 767 368 767 368 745.5 394.5 c 128,-1,73
 724 421 724 421 691 421 c 0,74,75
 663 421 663 421 643 405 c 128,-1,76
 623 389 623 389 599 348 c 2,77,-1
 573 304 l 2,78,79
 558 279 558 279 540.5 260.5 c 128,-1,80
 523 242 523 242 500 231.5 c 128,-1,81
 477 221 477 221 446 221 c 0,82,83
 436 221 436 221 426 224.5 c 128,-1,84
 416 228 416 228 405 234 c 1,85,-1
 434 245 l 1,86,87
 441 225 441 225 445 204.5 c 128,-1,88
 449 184 449 184 449 164 c 0,89,90
 449 112 449 112 426 73 c 128,-1,91
 403 34 403 34 360 12 c 128,-1,92
 317 -10 317 -10 256 -10 c 0,0,1
451 631 m 0,93,94
 389 631 389 631 337 662 c 128,-1,95
 285 693 285 693 253 764 c 1,96,-1
 322 792 l 1,97,98
 342 749 342 749 372 725.5 c 128,-1,99
 402 702 402 702 451 702 c 256,100,101
 500 702 500 702 530 725.5 c 128,-1,102
 560 749 560 749 579 792 c 1,103,-1
 648 764 l 1,104,105
 617 695 617 695 565.5 663 c 128,-1,106
 514 631 514 631 451 631 c 0,93,94
450 750 m 0,107,108
 429 750 429 750 413.5 766 c 128,-1,109
 398 782 398 782 398 804 c 0,110,111
 398 827 398 827 413.5 843 c 128,-1,112
 429 859 429 859 450 859 c 0,113,114
 472 859 472 859 487 843 c 128,-1,115
 502 827 502 827 502 804 c 0,116,117
 502 782 502 782 487 766 c 128,-1,118
 472 750 472 750 450 750 c 0,107,108
EndSplineSet
EndChar

StartChar: rrvocalicgujr
Encoding: 2784 2784 72
Width: 895
GlyphClass: 2
Flags: W
AnchorPoint: "Anchor-1" 457 0 basechar 0
AnchorPoint: "Anchor-0" 407 603 basechar 0
LayerCount: 2
Fore
SplineSet
556 0 m 2,0,1
 513 0 513 0 485 9.5 c 128,-1,2
 457 19 457 19 439 37 c 0,3,4
 422 54 422 54 414.5 79 c 128,-1,5
 407 104 407 104 407 148 c 2,6,-1
 407 602 l 1,7,-1
 487 592 l 1,8,-1
 487 152 l 2,9,10
 487 124 487 124 490 112 c 128,-1,11
 493 100 493 100 502 90 c 0,12,13
 513 77 513 77 531 75 c 128,-1,14
 549 73 549 73 574 73 c 1,15,-1
 566 0 l 1,16,-1
 556 0 l 2,0,1
146 135 m 1,17,-1
 96 205 l 1,18,-1
 414 394 l 1,19,-1
 447 334 l 1,20,-1
 146 135 l 1,17,-1
348 334 m 1,21,22
 313 387 313 387 282.5 413.5 c 128,-1,23
 252 440 252 440 224 449 c 128,-1,24
 196 458 196 458 165 458 c 0,25,26
 128 458 128 458 100 449 c 128,-1,27
 72 440 72 440 40 423 c 1,28,-1
 11 493 l 1,29,30
 50 513 50 513 89 523 c 128,-1,31
 128 533 128 533 161 533 c 0,32,33
 213 533 213 533 250.5 518.5 c 128,-1,34
 288 504 288 504 323 471.5 c 128,-1,35
 358 439 358 439 401 383 c 1,36,-1
 348 334 l 1,21,22
780 0 m 0,37,38
 730 0 730 0 694 18 c 128,-1,39
 658 36 658 36 639 68 c 128,-1,40
 620 100 620 100 620 141 c 0,41,42
 620 197 620 197 661 236 c 128,-1,43
 702 275 702 275 778 285 c 1,44,-1
 808 219 l 1,45,46
 745 211 745 211 720 190 c 128,-1,47
 695 169 695 169 695 136 c 256,48,49
 695 103 695 103 719 87.5 c 128,-1,50
 743 72 743 72 774 72 c 0,51,52
 806 72 806 72 830 80 c 128,-1,53
 854 88 854 88 888 105 c 1,54,-1
 915 35 l 1,55,56
 889 22 889 22 855 11 c 128,-1,57
 821 0 821 0 780 0 c 0,37,38
808 219 m 1,58,-1
 730 233 l 1,59,60
 722 260 722 260 710.5 287.5 c 128,-1,61
 699 315 699 315 685 342 c 1,62,-1
 717 325 l 1,63,64
 699 321 699 321 678 317 c 128,-1,65
 657 313 657 313 633 313 c 0,66,67
 594 313 594 313 551.5 327 c 128,-1,68
 509 341 509 341 474 369 c 1,69,-1
 483 446 l 1,70,71
 511 417 511 417 546.5 401 c 128,-1,72
 582 385 582 385 623 385 c 0,73,74
 641 385 641 385 654 387 c 128,-1,75
 667 389 667 389 678 392 c 1,76,-1
 674 369 l 1,77,78
 662 383 662 383 655 397 c 128,-1,79
 648 411 648 411 648 429 c 0,80,81
 648 461 648 461 669 475.5 c 128,-1,82
 690 490 690 490 717 490 c 0,83,84
 749 490 749 490 768 470 c 128,-1,85
 787 450 787 450 787 418 c 0,86,87
 787 397 787 397 779 380 c 128,-1,88
 771 363 771 363 756 349 c 1,89,90
 772 320 772 320 785 287.5 c 128,-1,91
 798 255 798 255 808 219 c 1,58,-1
EndSplineSet
EndChar

StartChar: llvocalicgujr
Encoding: 2785 2785 73
Width: 697
GlyphClass: 2
Flags: W
AnchorPoint: "Anchor-1" 329 0 basechar 0
AnchorPoint: "Anchor-0" 454 603 basechar 0
LayerCount: 2
Fore
SplineSet
583 -18 m 0,0,1
 537 -18 537 -18 500.5 -1.5 c 128,-1,2
 464 15 464 15 443.5 44.5 c 128,-1,3
 423 74 423 74 423 113 c 0,4,5
 423 155 423 155 458 188.5 c 128,-1,6
 493 222 493 222 565 235 c 1,7,8
 569 248 569 248 571.5 262 c 128,-1,9
 574 276 574 276 574 292 c 0,10,11
 574 338 574 338 552 359 c 128,-1,12
 530 380 530 380 494 380 c 0,13,14
 469 380 469 380 443.5 368.5 c 128,-1,15
 418 357 418 357 395 325.5 c 128,-1,16
 372 294 372 294 354 233 c 1,17,-1
 278 257 l 1,18,19
 302 352 302 352 360.5 401 c 128,-1,20
 419 450 419 450 504 450 c 0,21,22
 537 450 537 450 571.5 434 c 128,-1,23
 606 418 606 418 630 382.5 c 128,-1,24
 654 347 654 347 654 288 c 0,25,26
 654 253 654 253 647.5 225.5 c 128,-1,27
 641 198 641 198 632 177 c 1,28,29
 578 173 578 173 549 162 c 128,-1,30
 520 151 520 151 508.5 136 c 128,-1,31
 497 121 497 121 497 104 c 0,32,33
 497 77 497 77 519.5 64 c 128,-1,34
 542 51 542 51 578 51 c 0,35,36
 610 51 610 51 633.5 58 c 128,-1,37
 657 65 657 65 691 79 c 1,38,-1
 716 16 l 1,39,40
 691 3 691 3 657.5 -7.5 c 128,-1,41
 624 -18 624 -18 583 -18 c 0,0,1
210 36 m 1,42,43
 164 78 164 78 125.5 120 c 128,-1,44
 87 162 87 162 64.5 206.5 c 128,-1,45
 42 251 42 251 42 300 c 0,46,47
 42 353 42 353 67 386 c 128,-1,48
 92 419 92 419 129.5 434.5 c 128,-1,49
 167 450 167 450 203 450 c 0,50,51
 251 450 251 450 291 432.5 c 128,-1,52
 331 415 331 415 368 382 c 1,53,-1
 335 316 l 1,54,55
 304 342 304 342 275 359.5 c 128,-1,56
 246 377 246 377 208 377 c 0,57,58
 167 377 167 377 146 354 c 128,-1,59
 125 331 125 331 125 296 c 0,60,61
 125 264 125 264 141 231.5 c 128,-1,62
 157 199 157 199 188.5 163.5 c 128,-1,63
 220 128 220 128 264 88 c 1,64,-1
 210 36 l 1,42,43
622 -173 m 0,65,66
 569 -173 569 -173 533.5 -156 c 128,-1,67
 498 -139 498 -139 480 -109.5 c 128,-1,68
 462 -80 462 -80 462 -42 c 0,69,70
 462 -24 462 -24 469 -7 c 128,-1,71
 476 10 476 10 487 24 c 1,72,-1
 563 -4 l 1,73,74
 549 -13 549 -13 542.5 -25 c 128,-1,75
 536 -37 536 -37 536 -50 c 0,76,77
 536 -78 536 -78 558 -91 c 128,-1,78
 580 -104 580 -104 617 -104 c 0,79,80
 649 -104 649 -104 672.5 -97.5 c 128,-1,81
 696 -91 696 -91 730 -76 c 1,82,-1
 755 -139 l 1,83,84
 730 -152 730 -152 696.5 -162.5 c 128,-1,85
 663 -173 663 -173 622 -173 c 0,65,66
454 412 m 1,86,-1
 454 603 l 1,87,-1
 534 592 l 1,88,-1
 534 412 l 1,89,-1
 454 412 l 1,86,-1
EndSplineSet
EndChar

StartChar: lvocalicvowelsigngujr
Encoding: 2786 2786 74
Width: 0
GlyphClass: 4
Flags: W
LayerCount: 2
Fore
SplineSet
-67 -394 m 0,0,1
 -126 -394 -126 -394 -159.5 -362.5 c 128,-1,2
 -193 -331 -193 -331 -193 -281 c 0,3,4
 -193 -235 -193 -235 -157 -202.5 c 128,-1,5
 -121 -170 -121 -170 -39 -160 c 1,6,-1
 -91 -191 l 1,7,8
 -80 -176 -80 -176 -71.5 -157.5 c 128,-1,9
 -63 -139 -63 -139 -63 -118 c 0,10,11
 -63 -89 -63 -89 -79.5 -76 c 128,-1,12
 -96 -63 -96 -63 -122 -63 c 0,13,14
 -140 -63 -140 -63 -158.5 -72 c 128,-1,15
 -177 -81 -177 -81 -193.5 -105 c 128,-1,16
 -210 -129 -210 -129 -223 -175 c 1,17,-1
 -292 -157 l 1,18,19
 -280 -111 -280 -111 -256 -76 c 128,-1,20
 -232 -41 -232 -41 -196 -20.5 c 128,-1,21
 -160 0 -160 0 -111 0 c 0,22,23
 -85 0 -85 0 -57 -11 c 128,-1,24
 -29 -22 -29 -22 -10 -47.5 c 128,-1,25
 9 -73 9 -73 9 -115 c 0,26,27
 9 -144 9 -144 1 -171 c 128,-1,28
 -7 -198 -7 -198 -21 -221 c 1,29,30
 -78 -227 -78 -227 -102 -242.5 c 128,-1,31
 -126 -258 -126 -258 -126 -284 c 0,32,33
 -126 -308 -126 -308 -107.5 -319 c 128,-1,34
 -89 -330 -89 -330 -66 -330 c 0,35,36
 -42 -330 -42 -330 -24.5 -324 c 128,-1,37
 -7 -318 -7 -318 19 -305 c 1,38,-1
 39 -367 l 1,39,40
 18 -377 18 -377 -8.5 -385.5 c 128,-1,41
 -35 -394 -35 -394 -67 -394 c 0,0,1
-341 -345 m 1,42,43
 -385 -307 -385 -307 -415.5 -271 c 128,-1,44
 -446 -235 -446 -235 -461.5 -199.5 c 128,-1,45
 -477 -164 -477 -164 -477 -127 c 0,46,47
 -477 -82 -477 -82 -457 -54 c 128,-1,48
 -437 -26 -437 -26 -407 -13 c 128,-1,49
 -377 0 -377 0 -347 0 c 0,50,51
 -306 0 -306 0 -276 -14 c 128,-1,52
 -246 -28 -246 -28 -215 -54 c 1,53,-1
 -253 -102 l 1,54,55
 -272 -86 -272 -86 -293 -75.5 c 128,-1,56
 -314 -65 -314 -65 -339 -65 c 0,57,58
 -370 -65 -370 -65 -387.5 -83.5 c 128,-1,59
 -405 -102 -405 -102 -405 -128 c 0,60,61
 -405 -165 -405 -165 -380 -201.5 c 128,-1,62
 -355 -238 -355 -238 -291 -297 c 1,63,-1
 -341 -345 l 1,42,43
EndSplineSet
EndChar

StartChar: llvocalicvowelsigngujr
Encoding: 2787 2787 75
Width: 0
GlyphClass: 4
Flags: W
LayerCount: 2
Fore
SplineSet
-7 -278 m 0,0,1
 -42 -278 -42 -278 -71 -266 c 128,-1,2
 -100 -254 -100 -254 -117 -231 c 128,-1,3
 -134 -208 -134 -208 -134 -176 c 256,4,5
 -134 -144 -134 -144 -111.5 -118 c 128,-1,6
 -89 -92 -89 -92 -37 -76 c 1,7,-1
 -62 -115 l 1,8,9
 -68 -88 -68 -88 -82 -75.5 c 128,-1,10
 -96 -63 -96 -63 -122 -63 c 0,11,12
 -140 -63 -140 -63 -158.5 -72 c 128,-1,13
 -177 -81 -177 -81 -193.5 -105 c 128,-1,14
 -210 -129 -210 -129 -223 -175 c 1,15,-1
 -292 -157 l 1,16,17
 -279 -110 -279 -110 -255 -74.5 c 128,-1,18
 -231 -39 -231 -39 -195 -19.5 c 128,-1,19
 -159 0 -159 0 -111 0 c 0,20,21
 -73 0 -73 0 -46.5 -15.5 c 128,-1,22
 -20 -31 -20 -31 -6 -60 c 128,-1,23
 8 -89 8 -89 8 -128 c 1,24,25
 -34 -135 -34 -135 -50.5 -149 c 128,-1,26
 -67 -163 -67 -163 -67 -180 c 0,27,28
 -67 -199 -67 -199 -50.5 -207.5 c 128,-1,29
 -34 -216 -34 -216 -10 -216 c 256,30,31
 14 -216 14 -216 32.5 -210 c 128,-1,32
 51 -204 51 -204 78 -191 c 1,33,-1
 97 -252 l 1,34,35
 73 -264 73 -264 45 -271 c 128,-1,36
 17 -278 17 -278 -7 -278 c 0,0,1
-341 -345 m 1,37,38
 -385 -307 -385 -307 -415.5 -271 c 128,-1,39
 -446 -235 -446 -235 -461.5 -199.5 c 128,-1,40
 -477 -164 -477 -164 -477 -127 c 0,41,42
 -477 -82 -477 -82 -457 -54 c 128,-1,43
 -437 -26 -437 -26 -407 -13 c 128,-1,44
 -377 0 -377 0 -347 0 c 0,45,46
 -306 0 -306 0 -276 -14 c 128,-1,47
 -246 -28 -246 -28 -215 -54 c 1,48,-1
 -253 -102 l 1,49,50
 -272 -86 -272 -86 -293 -75.5 c 128,-1,51
 -314 -65 -314 -65 -339 -65 c 0,52,53
 -370 -65 -370 -65 -387.5 -83.5 c 128,-1,54
 -405 -102 -405 -102 -405 -128 c 0,55,56
 -405 -165 -405 -165 -380 -201.5 c 128,-1,57
 -355 -238 -355 -238 -291 -297 c 1,58,-1
 -341 -345 l 1,37,38
31 -394 m 0,59,60
 -28 -394 -28 -394 -61.5 -363.5 c 128,-1,61
 -95 -333 -95 -333 -95 -283 c 0,62,63
 -95 -261 -95 -261 -88 -236 c 1,64,-1
 -24 -268 l 1,65,66
 -28 -274 -28 -274 -28 -287 c 0,67,68
 -28 -310 -28 -310 -9.5 -321 c 128,-1,69
 9 -332 9 -332 32 -332 c 256,70,71
 55 -332 55 -332 73 -326 c 128,-1,72
 91 -320 91 -320 117 -307 c 1,73,-1
 136 -368 l 1,74,75
 116 -378 116 -378 89.5 -386 c 128,-1,76
 63 -394 63 -394 31 -394 c 0,59,60
EndSplineSet
EndChar

StartChar: zerogujr
Encoding: 2790 2790 76
Width: 551
Flags: W
LayerCount: 2
Fore
SplineSet
276 98 m 0,0,1
 214 98 214 98 166 124.5 c 128,-1,2
 118 151 118 151 91.5 198 c 128,-1,3
 65 245 65 245 65 306 c 0,4,5
 65 366 65 366 92 412.5 c 128,-1,6
 119 459 119 459 166.5 486 c 128,-1,7
 214 513 214 513 275 513 c 0,8,9
 338 513 338 513 385.5 486.5 c 128,-1,10
 433 460 433 460 459 413 c 128,-1,11
 485 366 485 366 485 305 c 256,12,13
 485 244 485 244 457.5 197.5 c 128,-1,14
 430 151 430 151 383 124.5 c 128,-1,15
 336 98 336 98 276 98 c 0,0,1
273 172 m 0,16,17
 312 172 312 172 341 189.5 c 128,-1,18
 370 207 370 207 386.5 238 c 128,-1,19
 403 269 403 269 403 308 c 256,20,21
 403 347 403 347 387.5 376 c 128,-1,22
 372 405 372 405 344 421.5 c 128,-1,23
 316 438 316 438 277 438 c 0,24,25
 239 438 239 438 209.5 421 c 128,-1,26
 180 404 180 404 163.5 373.5 c 128,-1,27
 147 343 147 343 147 304 c 256,28,29
 147 265 147 265 162.5 235.5 c 128,-1,30
 178 206 178 206 206.5 189 c 128,-1,31
 235 172 235 172 273 172 c 0,16,17
EndSplineSet
EndChar

StartChar: onegujr
Encoding: 2791 2791 77
Width: 551
Flags: W
LayerCount: 2
Fore
SplineSet
484 0 m 2,0,1
 441 0 441 0 412.5 9.5 c 128,-1,2
 384 19 384 19 367 37 c 0,3,4
 351 54 351 54 343.5 79 c 128,-1,5
 336 104 336 104 336 148 c 2,6,-1
 336 394 l 2,7,8
 336 437 336 437 330 465 c 128,-1,9
 324 493 324 493 308 509 c 0,10,11
 298 519 298 519 284.5 524.5 c 128,-1,12
 271 530 271 530 252 530 c 0,13,14
 212 530 212 530 189 505 c 128,-1,15
 166 480 166 480 166 437 c 0,16,17
 166 396 166 396 191.5 373.5 c 128,-1,18
 217 351 217 351 258 351 c 0,19,20
 290 351 290 351 316.5 363 c 128,-1,21
 343 375 343 375 364 396 c 1,22,-1
 380 314 l 1,23,24
 351 298 351 298 322.5 288 c 128,-1,25
 294 278 294 278 256 278 c 0,26,27
 208 278 208 278 169 298.5 c 128,-1,28
 130 319 130 319 107.5 356 c 128,-1,29
 85 393 85 393 85 442 c 0,30,31
 85 485 85 485 104.5 521.5 c 128,-1,32
 124 558 124 558 161.5 580.5 c 128,-1,33
 199 603 199 603 251 603 c 0,34,35
 287 603 287 603 313.5 594 c 128,-1,36
 340 585 340 585 359 569 c 0,37,38
 388 545 388 545 402 507.5 c 128,-1,39
 416 470 416 470 416 411 c 2,40,-1
 416 152 l 2,41,42
 416 125 416 125 419 112.5 c 128,-1,43
 422 100 422 100 428 92 c 0,44,45
 439 78 439 78 460.5 75.5 c 128,-1,46
 482 73 482 73 502 73 c 1,47,-1
 495 0 l 1,48,-1
 484 0 l 2,0,1
EndSplineSet
EndChar

StartChar: twogujr
Encoding: 2792 2792 78
Width: 551
Flags: W
LayerCount: 2
Fore
SplineSet
420 0 m 0,0,1
 354 0 354 0 309 31.5 c 128,-1,2
 264 63 264 63 231 114 c 128,-1,3
 198 165 198 165 168 225 c 1,4,-1
 171 269 l 1,5,6
 217 272 217 272 260 288 c 128,-1,7
 303 304 303 304 331.5 335.5 c 128,-1,8
 360 367 360 367 360 414 c 0,9,10
 360 472 360 472 326.5 500.5 c 128,-1,11
 293 529 293 529 236 529 c 0,12,13
 200 529 200 529 168.5 522.5 c 128,-1,14
 137 516 137 516 102 499 c 1,15,-1
 77 567 l 1,16,17
 113 583 113 583 155 593 c 128,-1,18
 197 603 197 603 238 603 c 0,19,20
 299 603 299 603 345 582 c 128,-1,21
 391 561 391 561 417 519 c 128,-1,22
 443 477 443 477 443 413 c 0,23,24
 443 361 443 361 419.5 320 c 128,-1,25
 396 279 396 279 356 250.5 c 128,-1,26
 316 222 316 222 267.5 207 c 128,-1,27
 219 192 219 192 168 192 c 0,28,29
 122 192 122 192 99.5 206 c 128,-1,30
 77 220 77 220 77 252 c 0,31,32
 77 276 77 276 94 289.5 c 128,-1,33
 111 303 111 303 137 303 c 256,34,35
 163 303 163 303 188 293 c 128,-1,36
 213 283 213 283 247 250 c 1,37,-1
 240 246 l 1,38,39
 277 183 277 183 303.5 145.5 c 128,-1,40
 330 108 330 108 357.5 91.5 c 128,-1,41
 385 75 385 75 424 75 c 0,42,43
 444 75 444 75 464 81 c 128,-1,44
 484 87 484 87 500 95 c 1,45,-1
 527 26 l 1,46,47
 498 10 498 10 471.5 5 c 128,-1,48
 445 0 445 0 420 0 c 0,0,1
EndSplineSet
EndChar

StartChar: threegujr
Encoding: 2793 2793 79
Width: 551
Flags: W
LayerCount: 2
Fore
SplineSet
281 -10 m 0,0,1
 223 -10 223 -10 178.5 10 c 128,-1,2
 134 30 134 30 100 65.5 c 128,-1,3
 66 101 66 101 38 145 c 1,4,-1
 107 187 l 1,5,6
 154 116 154 116 193.5 89.5 c 128,-1,7
 233 63 233 63 279 63 c 0,8,9
 329 63 329 63 361.5 87.5 c 128,-1,10
 394 112 394 112 394 166 c 0,11,12
 394 218 394 218 364.5 254 c 128,-1,13
 335 290 335 290 287 306 c 1,14,-1
 286 337 l 1,15,-1
 357 352 l 1,16,17
 416 319 416 319 445 268 c 128,-1,18
 474 217 474 217 474 164 c 0,19,20
 474 112 474 112 451 73 c 128,-1,21
 428 34 428 34 385 12 c 128,-1,22
 342 -10 342 -10 281 -10 c 0,0,1
208 251 m 1,23,-1
 193 328 l 1,24,25
 249 333 249 333 291.5 344.5 c 128,-1,26
 334 356 334 356 357.5 379 c 128,-1,27
 381 402 381 402 381 440 c 0,28,29
 381 481 381 481 353 505 c 128,-1,30
 325 529 325 529 269 529 c 0,31,32
 230 529 230 529 201.5 522.5 c 128,-1,33
 173 516 173 516 135 499 c 1,34,-1
 110 567 l 1,35,36
 148 584 148 584 188 593.5 c 128,-1,37
 228 603 228 603 271 603 c 0,38,39
 339 603 339 603 381 582 c 128,-1,40
 423 561 423 561 442 524.5 c 128,-1,41
 461 488 461 488 461 442 c 0,42,43
 461 394 461 394 440.5 360 c 128,-1,44
 420 326 420 326 385 303.5 c 128,-1,45
 350 281 350 281 304.5 268.5 c 128,-1,46
 259 256 259 256 208 251 c 1,23,-1
EndSplineSet
EndChar

StartChar: fourgujr
Encoding: 2794 2794 80
Width: 551
Flags: W
LayerCount: 2
Fore
SplineSet
268 -10 m 0,0,1
 214 -10 214 -10 180 12 c 128,-1,2
 146 34 146 34 129.5 67.5 c 128,-1,3
 113 101 113 101 113 137 c 0,4,5
 113 172 113 172 123 203.5 c 128,-1,6
 133 235 133 235 157 270 c 128,-1,7
 181 305 181 305 223 348 c 1,8,9
 186 386 186 386 132.5 434.5 c 128,-1,10
 79 483 79 483 8 544 c 1,11,-1
 60 603 l 1,12,13
 127 545 127 545 179.5 496 c 128,-1,14
 232 447 232 447 275 400 c 1,15,16
 319 444 319 444 371.5 494 c 128,-1,17
 424 544 424 544 490 603 c 1,18,-1
 543 544 l 1,19,20
 473 482 473 482 419.5 434 c 128,-1,21
 366 386 366 386 325 348 c 1,22,23
 362 308 362 308 383 273 c 128,-1,24
 404 238 404 238 412.5 205 c 128,-1,25
 421 172 421 172 421 136 c 256,26,27
 421 100 421 100 406.5 66.5 c 128,-1,28
 392 33 392 33 358.5 11.5 c 128,-1,29
 325 -10 325 -10 268 -10 c 0,0,1
267 62 m 0,30,31
 305 62 305 62 323 84 c 128,-1,32
 341 106 341 106 341 138 c 0,33,34
 341 176 341 176 327 210.5 c 128,-1,35
 313 245 313 245 272 293 c 1,36,37
 240 258 240 258 222.5 232 c 128,-1,38
 205 206 205 206 199 184 c 128,-1,39
 193 162 193 162 193 136 c 0,40,41
 193 102 193 102 212.5 82 c 128,-1,42
 232 62 232 62 267 62 c 0,30,31
EndSplineSet
EndChar

StartChar: fivegujr
Encoding: 2795 2795 81
Width: 551
Flags: W
LayerCount: 2
Fore
SplineSet
248 161 m 0,0,1
 214 161 214 161 186 171.5 c 128,-1,2
 158 182 158 182 140 201 c 0,3,4
 118 224 118 224 107 256.5 c 128,-1,5
 96 289 96 289 96 341 c 2,6,-1
 96 440 l 2,7,8
 96 467 96 467 93 479.5 c 128,-1,9
 90 492 90 492 84 500 c 0,10,11
 74 514 74 514 52.5 516.5 c 128,-1,12
 31 519 31 519 10 519 c 1,13,-1
 18 592 l 1,14,-1
 28 592 l 2,15,16
 71 592 71 592 99.5 582.5 c 128,-1,17
 128 573 128 573 145 555 c 0,18,19
 162 538 162 538 169 513 c 128,-1,20
 176 488 176 488 176 443 c 2,21,-1
 176 345 l 2,22,23
 176 303 176 303 183 282.5 c 128,-1,24
 190 262 190 262 201 251 c 0,25,26
 211 241 211 241 225.5 237 c 128,-1,27
 240 233 240 233 260 233 c 0,28,29
 294 233 294 233 324 250 c 128,-1,30
 354 267 354 267 374 292 c 1,31,-1
 374 200 l 1,32,33
 349 182 349 182 319 171.5 c 128,-1,34
 289 161 289 161 248 161 c 0,0,1
516 0 m 2,35,36
 473 0 473 0 444 9.5 c 128,-1,37
 415 19 415 19 398 37 c 0,38,39
 382 54 382 54 374.5 79 c 128,-1,40
 367 104 367 104 367 148 c 2,41,-1
 367 603 l 1,42,-1
 447 592 l 1,43,-1
 447 152 l 2,44,45
 447 125 447 125 450 112.5 c 128,-1,46
 453 100 453 100 459 92 c 0,47,48
 470 78 470 78 491.5 75.5 c 128,-1,49
 513 73 513 73 534 73 c 1,50,-1
 526 0 l 1,51,-1
 516 0 l 2,35,36
EndSplineSet
EndChar

StartChar: sixgujr
Encoding: 2796 2796 82
Width: 551
Flags: W
LayerCount: 2
Fore
SplineSet
216 285 m 1,0,1
 167 314 167 314 130.5 355 c 128,-1,2
 94 396 94 396 94 457 c 0,3,4
 94 495 94 495 114 528 c 128,-1,5
 134 561 134 561 179 582 c 128,-1,6
 224 603 224 603 297 603 c 0,7,8
 330 603 330 603 361 598 c 128,-1,9
 392 593 392 593 413 588 c 1,10,-1
 399 516 l 1,11,12
 380 521 380 521 355 525 c 128,-1,13
 330 529 330 529 301 529 c 0,14,15
 234 529 234 529 205 506 c 128,-1,16
 176 483 176 483 176 451 c 0,17,18
 176 418 176 418 198 390.5 c 128,-1,19
 220 363 220 363 272 338 c 1,20,-1
 216 285 l 1,0,1
337 -74 m 0,21,22
 274 -74 274 -74 224.5 -53.5 c 128,-1,23
 175 -33 175 -33 137 -0.5 c 128,-1,24
 99 32 99 32 69 66 c 1,25,-1
 136 112 l 1,26,27
 186 51 186 51 235.5 25 c 128,-1,28
 285 -1 285 -1 334 -1 c 0,29,30
 375 -1 375 -1 397.5 12 c 128,-1,31
 420 25 420 25 420 53 c 0,32,33
 420 79 420 79 403 97.5 c 128,-1,34
 386 116 386 116 331 138 c 0,35,36
 268 163 268 163 234.5 185.5 c 128,-1,37
 201 208 201 208 188.5 232 c 128,-1,38
 176 256 176 256 176 284 c 0,39,40
 176 332 176 332 218 362.5 c 128,-1,41
 260 393 260 393 333 393 c 0,42,43
 366 393 366 393 392.5 391 c 128,-1,44
 419 389 419 389 444 383 c 1,45,-1
 429 311 l 1,46,47
 401 316 401 316 379 318 c 128,-1,48
 357 320 357 320 335 320 c 0,49,50
 294 320 294 320 276 310 c 128,-1,51
 258 300 258 300 258 281 c 0,52,53
 258 260 258 260 279 246 c 128,-1,54
 300 232 300 232 354 210 c 0,55,56
 411 187 411 187 443.5 163.5 c 128,-1,57
 476 140 476 140 489.5 112.5 c 128,-1,58
 503 85 503 85 503 51 c 0,59,60
 503 -4 503 -4 461.5 -39 c 128,-1,61
 420 -74 420 -74 337 -74 c 0,21,22
EndSplineSet
EndChar

StartChar: sevengujr
Encoding: 2797 2797 83
Width: 551
Flags: W
LayerCount: 2
Fore
SplineSet
295 -9 m 0,0,1
 227 -9 227 -9 173 18.5 c 128,-1,2
 119 46 119 46 81.5 108.5 c 128,-1,3
 44 171 44 171 25 275 c 1,4,-1
 107 286 l 1,5,6
 127 179 127 179 169.5 121.5 c 128,-1,7
 212 64 212 64 292 64 c 0,8,9
 344 64 344 64 373.5 90.5 c 128,-1,10
 403 117 403 117 415 169 c 128,-1,11
 427 221 427 221 427 296 c 0,12,13
 427 339 427 339 419 380.5 c 128,-1,14
 411 422 411 422 394 456 c 128,-1,15
 377 490 377 490 351 510 c 128,-1,16
 325 530 325 530 290 530 c 0,17,18
 251 530 251 530 229 507 c 128,-1,19
 207 484 207 484 207 448 c 0,20,21
 207 405 207 405 232.5 380.5 c 128,-1,22
 258 356 258 356 303.5 345.5 c 128,-1,23
 349 335 349 335 408 335 c 1,24,-1
 406 261 l 1,25,26
 316 261 316 261 253 282.5 c 128,-1,27
 190 304 190 304 157 346.5 c 128,-1,28
 124 389 124 389 124 451 c 0,29,30
 124 492 124 492 142.5 526.5 c 128,-1,31
 161 561 161 561 198 582 c 128,-1,32
 235 603 235 603 292 603 c 0,33,34
 355 603 355 603 404.5 567 c 128,-1,35
 454 531 454 531 482.5 460 c 128,-1,36
 511 389 511 389 511 284 c 0,37,38
 511 178 511 178 484 113.5 c 128,-1,39
 457 49 457 49 408.5 20 c 128,-1,40
 360 -9 360 -9 295 -9 c 0,0,1
EndSplineSet
EndChar

StartChar: eightgujr
Encoding: 2798 2798 84
Width: 551
Flags: W
LayerCount: 2
Fore
SplineSet
268 -10 m 0,0,1
 217 -10 217 -10 172 10 c 128,-1,2
 127 30 127 30 99.5 68.5 c 128,-1,3
 72 107 72 107 72 162 c 0,4,5
 72 195 72 195 81 224 c 128,-1,6
 90 253 90 253 113 286 c 128,-1,7
 136 319 136 319 179 362 c 2,8,-1
 417 603 l 1,9,-1
 479 543 l 1,10,-1
 269 337 l 2,11,12
 225 294 225 294 200 264 c 128,-1,13
 175 234 175 234 164.5 210 c 128,-1,14
 154 186 154 186 154 160 c 0,15,16
 154 112 154 112 188 87.5 c 128,-1,17
 222 63 222 63 272 63 c 0,18,19
 331 63 331 63 374 80.5 c 128,-1,20
 417 98 417 98 460 124 c 1,21,-1
 497 55 l 1,22,23
 469 38 469 38 435 23 c 128,-1,24
 401 8 401 8 359.5 -1 c 128,-1,25
 318 -10 318 -10 268 -10 c 0,0,1
EndSplineSet
EndChar

StartChar: ninegujr
Encoding: 2799 2799 85
Width: 551
Flags: W
LayerCount: 2
Fore
SplineSet
346 -10 m 0,0,1
 252 -10 252 -10 185 26 c 128,-1,2
 118 62 118 62 83 126 c 128,-1,3
 48 190 48 190 48 275 c 0,4,5
 48 357 48 357 86 421.5 c 128,-1,6
 124 486 124 486 192 531.5 c 128,-1,7
 260 577 260 577 350 602 c 1,8,-1
 373 528 l 1,9,10
 286 502 286 502 233 466 c 128,-1,11
 180 430 180 430 156 381 c 128,-1,12
 132 332 132 332 132 266 c 0,13,14
 132 197 132 197 160 152.5 c 128,-1,15
 188 108 188 108 236 86.5 c 128,-1,16
 284 65 284 65 343 65 c 0,17,18
 389 65 389 65 423.5 72.5 c 128,-1,19
 458 80 458 80 490 91 c 1,20,-1
 520 20 l 1,21,22
 486 7 486 7 442.5 -1.5 c 128,-1,23
 399 -10 399 -10 346 -10 c 0,0,1
248 229 m 1,24,-1
 228 307 l 1,25,-1
 478 364 l 1,26,-1
 497 289 l 1,27,-1
 248 229 l 1,24,-1
EndSplineSet
EndChar

StartChar: uni0AF0
Encoding: 2800 2800 86
Width: 383
Flags: W
LayerCount: 2
Fore
SplineSet
192 199 m 0,0,1
 151 199 151 199 117 216.5 c 128,-1,2
 83 234 83 234 63 265 c 128,-1,3
 43 296 43 296 43 338 c 0,4,5
 43 377 43 377 61.5 408.5 c 128,-1,6
 80 440 80 440 114 458.5 c 128,-1,7
 148 477 148 477 192 477 c 0,8,9
 234 477 234 477 267.5 459 c 128,-1,10
 301 441 301 441 320.5 410 c 128,-1,11
 340 379 340 379 340 338 c 0,12,13
 340 298 340 298 320.5 266.5 c 128,-1,14
 301 235 301 235 267.5 217 c 128,-1,15
 234 199 234 199 192 199 c 0,0,1
191 264 m 0,16,17
 226 264 226 264 248.5 284 c 128,-1,18
 271 304 271 304 271 338 c 0,19,20
 271 371 271 371 248.5 391 c 128,-1,21
 226 411 226 411 191 411 c 0,22,23
 155 411 155 411 133.5 390.5 c 128,-1,24
 112 370 112 370 112 338 c 0,25,26
 112 304 112 304 135 284 c 128,-1,27
 158 264 158 264 191 264 c 0,16,17
EndSplineSet
EndChar

StartChar: zhagujr
Encoding: 2809 2809 88
Width: 822
GlyphClass: 2
Flags: W
AnchorPoint: "Anchor-3" 528 603 basechar 0
AnchorPoint: "Anchor-2" 513 0 basechar 0
AnchorPoint: "Anchor-1" 555 0 basechar 0
AnchorPoint: "Anchor-0" 667 603 basechar 0
LayerCount: 2
Fore
SplineSet
213 103 m 0,0,1
 193 103 193 103 179 118 c 128,-1,2
 165 133 165 133 165 155 c 256,3,4
 165 177 165 177 179 192 c 128,-1,5
 193 207 193 207 213 207 c 0,6,7
 235 207 235 207 249.5 192 c 128,-1,8
 264 177 264 177 264 155 c 256,9,10
 264 133 264 133 249.5 118 c 128,-1,11
 235 103 235 103 213 103 c 0,0,1
124 -13 m 256,12,13
 104 -13 104 -13 89.5 2.5 c 128,-1,14
 75 18 75 18 75 39 c 0,15,16
 75 61 75 61 89.5 76.5 c 128,-1,17
 104 92 104 92 124 92 c 256,18,19
 144 92 144 92 158.5 76.5 c 128,-1,20
 173 61 173 61 173 39 c 0,21,22
 173 18 173 18 158.5 2.5 c 128,-1,23
 144 -13 144 -13 124 -13 c 256,12,13
272 -38 m 0,24,25
 253 -38 253 -38 238 -22.5 c 128,-1,26
 223 -7 223 -7 223 15 c 0,27,28
 223 36 223 36 238 51.5 c 128,-1,29
 253 67 253 67 272 67 c 0,30,31
 292 67 292 67 307 51.5 c 128,-1,32
 322 36 322 36 322 15 c 0,33,34
 322 -7 322 -7 307 -22.5 c 128,-1,35
 292 -38 292 -38 272 -38 c 0,24,25
549 -10 m 0,36,37
 485 -10 485 -10 446 14.5 c 128,-1,38
 407 39 407 39 389.5 78 c 128,-1,39
 372 117 372 117 372 160 c 0,40,41
 372 213 372 213 391.5 259 c 128,-1,42
 411 305 411 305 450.5 348.5 c 128,-1,43
 490 392 490 392 549 437 c 0,44,45
 585 465 585 465 620 490.5 c 128,-1,46
 655 516 655 516 694.5 544 c 128,-1,47
 734 572 734 572 782 604 c 1,48,-1
 827 539 l 1,49,50
 779 508 779 508 738 481 c 128,-1,51
 697 454 697 454 659.5 428 c 128,-1,52
 622 402 622 402 585 374 c 0,53,54
 529 333 529 333 501 296 c 128,-1,55
 473 259 473 259 463.5 226 c 128,-1,56
 454 193 454 193 454 161 c 0,57,58
 454 115 454 115 476 89 c 128,-1,59
 498 63 498 63 547 63 c 0,60,61
 589 63 589 63 614 88.5 c 128,-1,62
 639 114 639 114 639 170 c 0,63,64
 639 233 639 233 616.5 286 c 128,-1,65
 594 339 594 339 552 385 c 0,66,67
 512 432 512 432 464 465 c 128,-1,68
 416 498 416 498 359 515.5 c 128,-1,69
 302 533 302 533 234 533 c 0,70,71
 169 533 169 533 141 501.5 c 128,-1,72
 113 470 113 470 113 429 c 0,73,74
 113 386 113 386 135 364.5 c 128,-1,75
 157 343 157 343 191 343 c 0,76,77
 237 343 237 343 256.5 367 c 128,-1,78
 276 391 276 391 276 434 c 0,79,80
 276 466 276 466 265.5 494 c 128,-1,81
 255 522 255 522 236 544 c 1,82,-1
 307 555 l 1,83,84
 326 533 326 533 341 502 c 128,-1,85
 356 471 356 471 356 428 c 0,86,87
 356 400 356 400 347.5 371.5 c 128,-1,88
 339 343 339 343 320 320.5 c 128,-1,89
 301 298 301 298 269.5 284 c 128,-1,90
 238 270 238 270 191 270 c 0,91,92
 140 270 140 270 105 291.5 c 128,-1,93
 70 313 70 313 51.5 349.5 c 128,-1,94
 33 386 33 386 33 430 c 0,95,96
 33 477 33 477 57 516.5 c 128,-1,97
 81 556 81 556 127 579.5 c 128,-1,98
 173 603 173 603 240 603 c 0,99,100
 353 603 353 603 442.5 559.5 c 128,-1,101
 532 516 532 516 605 436 c 0,102,103
 658 377 658 377 689.5 310 c 128,-1,104
 721 243 721 243 721 169 c 0,105,106
 721 84 721 84 674.5 37 c 128,-1,107
 628 -10 628 -10 549 -10 c 0,36,37
EndSplineSet
EndChar

StartChar: uni0AFA
Encoding: 2810 2810 89
Width: 0
GlyphClass: 4
Flags: W
AnchorPoint: "Anchor-7" -174 603 mark 0
AnchorPoint: "Anchor-4" -174 603 mark 0
AnchorPoint: "Anchor-0" -174 603 mark 0
LayerCount: 2
Fore
SplineSet
-176 625 m 1,0,-1
 -212 688 l 1,1,2
 -173 702 -173 702 -149.5 721.5 c 128,-1,3
 -126 741 -126 741 -126 772 c 0,4,5
 -126 795 -126 795 -143.5 812.5 c 128,-1,6
 -161 830 -161 830 -197 830 c 0,7,8
 -223 830 -223 830 -244.5 824.5 c 128,-1,9
 -266 819 -266 819 -288 809 c 1,10,-1
 -310 872 l 1,11,12
 -281 884 -281 884 -255.5 890 c 128,-1,13
 -230 896 -230 896 -194 896 c 0,14,15
 -146 896 -146 896 -115 879 c 128,-1,16
 -84 862 -84 862 -68.5 834.5 c 128,-1,17
 -53 807 -53 807 -53 773 c 0,18,19
 -53 735 -53 735 -69 707 c 128,-1,20
 -85 679 -85 679 -112.5 659 c 128,-1,21
 -140 639 -140 639 -176 625 c 1,0,-1
EndSplineSet
EndChar

StartChar: uni0AFB
Encoding: 2811 2811 90
Width: 0
GlyphClass: 4
Flags: W
LayerCount: 2
Fore
SplineSet
-163 829 m 1,0,1
 -172 776 -172 776 -186 743 c 128,-1,2
 -200 710 -200 710 -221.5 695 c 128,-1,3
 -243 680 -243 680 -276 680 c 0,4,5
 -325 680 -325 680 -354.5 711.5 c 128,-1,6
 -384 743 -384 743 -387 827 c 1,7,-1
 -320 830 l 1,8,9
 -318 776 -318 776 -305 758 c 128,-1,10
 -292 740 -292 740 -270 740 c 0,11,12
 -245 740 -245 740 -233.5 761 c 128,-1,13
 -222 782 -222 782 -221 829 c 1,14,-1
 -163 829 l 1,0,1
-159 829 m 1,15,16
 -157 782 -157 782 -146 761 c 128,-1,17
 -135 740 -135 740 -110 740 c 0,18,19
 -87 740 -87 740 -74.5 758 c 128,-1,20
 -62 776 -62 776 -61 830 c 1,21,-1
 7 827 l 1,22,23
 5 771 5 771 -9 739 c 128,-1,24
 -23 707 -23 707 -47 693.5 c 128,-1,25
 -71 680 -71 680 -104 680 c 256,26,27
 -137 680 -137 680 -158.5 695 c 128,-1,28
 -180 710 -180 710 -193.5 743 c 128,-1,29
 -207 776 -207 776 -217 829 c 1,30,-1
 -159 829 l 1,15,16
EndSplineSet
EndChar

StartChar: uni0AFC
Encoding: 2812 2812 91
Width: 0
GlyphClass: 4
Flags: W
AnchorPoint: "Anchor-7" -199 603 mark 0
AnchorPoint: "Anchor-4" -199 603 mark 0
AnchorPoint: "Anchor-0" -199 603 mark 0
LayerCount: 2
Fore
SplineSet
-25 850 m 1,0,-1
 14 800 l 1,1,2
 -44 758 -44 758 -88.5 729.5 c 128,-1,3
 -133 701 -133 701 -169.5 684.5 c 128,-1,4
 -206 668 -206 668 -239 661 c 128,-1,5
 -272 654 -272 654 -307 654 c 0,6,7
 -350 654 -350 654 -389.5 664.5 c 128,-1,8
 -429 675 -429 675 -455 691 c 1,9,-1
 -420 747 l 1,10,11
 -391 728 -391 728 -363.5 719 c 128,-1,12
 -336 710 -336 710 -300 710 c 0,13,14
 -278 710 -278 710 -262 712.5 c 128,-1,15
 -246 715 -246 715 -230 721 c 1,16,-1
 -227 720 l 1,17,18
 -230 719 -230 719 -233 719 c 128,-1,19
 -236 719 -236 719 -239 719 c 0,20,21
 -270 719 -270 719 -302.5 731.5 c 128,-1,22
 -335 744 -335 744 -358 763 c 1,23,-1
 -318 808 l 1,24,25
 -293 787 -293 787 -269 776.5 c 128,-1,26
 -245 766 -245 766 -214 766 c 0,27,28
 -190 766 -190 766 -170 770 c 128,-1,29
 -150 774 -150 774 -130 783 c 128,-1,30
 -110 792 -110 792 -85 808.5 c 128,-1,31
 -60 825 -60 825 -25 850 c 1,0,-1
EndSplineSet
EndChar

StartChar: uni0AFD
Encoding: 2813 2813 92
Width: 0
GlyphClass: 4
Flags: W
LayerCount: 2
Fore
SplineSet
-256 787 m 0,0,1
 -276 787 -276 787 -290 801 c 128,-1,2
 -304 815 -304 815 -304 839 c 0,3,4
 -304 862 -304 862 -290 876.5 c 128,-1,5
 -276 891 -276 891 -256 891 c 0,6,7
 -234 891 -234 891 -219.5 876.5 c 128,-1,8
 -205 862 -205 862 -205 839 c 0,9,10
 -205 815 -205 815 -219.5 801 c 128,-1,11
 -234 787 -234 787 -256 787 c 0,0,1
-329 663 m 256,12,13
 -349 663 -349 663 -363.5 677.5 c 128,-1,14
 -378 692 -378 692 -378 715 c 0,15,16
 -378 739 -378 739 -363.5 753.5 c 128,-1,17
 -349 768 -349 768 -329 768 c 256,18,19
 -309 768 -309 768 -294.5 753.5 c 128,-1,20
 -280 739 -280 739 -280 715 c 0,21,22
 -280 692 -280 692 -294.5 677.5 c 128,-1,23
 -309 663 -309 663 -329 663 c 256,12,13
-181 663 m 0,24,25
 -200 663 -200 663 -215 677.5 c 128,-1,26
 -230 692 -230 692 -230 716 c 0,27,28
 -230 739 -230 739 -215 753.5 c 128,-1,29
 -200 768 -200 768 -181 768 c 0,30,31
 -161 768 -161 768 -146 753.5 c 128,-1,32
 -131 739 -131 739 -131 716 c 0,33,34
 -131 692 -131 692 -146 677.5 c 128,-1,35
 -161 663 -161 663 -181 663 c 0,24,25
EndSplineSet
Substitution2: "Single Substitution lookup 71 subtable" uni0AFD.alt
EndChar

StartChar: uni0AFE
Encoding: 2814 2814 93
Width: 0
GlyphClass: 4
Flags: W
LayerCount: 2
Fore
SplineSet
-359 763 m 0,0,1
 -359 807 -359 807 -330 834.5 c 128,-1,2
 -301 862 -301 862 -255 862 c 0,3,4
 -208 862 -208 862 -179 834.5 c 128,-1,5
 -150 807 -150 807 -150 763 c 256,6,7
 -150 719 -150 719 -179 691 c 128,-1,8
 -208 663 -208 663 -254 663 c 256,9,10
 -300 663 -300 663 -329.5 691.5 c 128,-1,11
 -359 720 -359 720 -359 763 c 0,0,1
-310 762 m 0,12,13
 -310 738 -310 738 -295.5 723 c 128,-1,14
 -281 708 -281 708 -256 708 c 256,15,16
 -231 708 -231 708 -215 723.5 c 128,-1,17
 -199 739 -199 739 -199 764 c 0,18,19
 -199 788 -199 788 -214 802.5 c 128,-1,20
 -229 817 -229 817 -254 817 c 256,21,22
 -279 817 -279 817 -294.5 802 c 128,-1,23
 -310 787 -310 787 -310 762 c 0,12,13
EndSplineSet
EndChar

StartChar: uni0AFF
Encoding: 2815 2815 94
Width: 0
GlyphClass: 4
Flags: W
AnchorPoint: "Anchor-7" -194 603 mark 0
AnchorPoint: "Anchor-4" -194 603 mark 0
AnchorPoint: "Anchor-0" -194 603 mark 0
LayerCount: 2
Fore
SplineSet
-465 763 m 0,0,1
 -465 807 -465 807 -437.5 834.5 c 128,-1,2
 -410 862 -410 862 -366 862 c 0,3,4
 -321 862 -321 862 -293.5 834.5 c 128,-1,5
 -266 807 -266 807 -266 763 c 256,6,7
 -266 719 -266 719 -293.5 691 c 128,-1,8
 -321 663 -321 663 -365 663 c 0,9,10
 -410 663 -410 663 -437.5 691.5 c 128,-1,11
 -465 720 -465 720 -465 763 c 0,0,1
-417 762 m 0,12,13
 -417 738 -417 738 -403.5 723 c 128,-1,14
 -390 708 -390 708 -367 708 c 256,15,16
 -344 708 -344 708 -329 723.5 c 128,-1,17
 -314 739 -314 739 -314 764 c 0,18,19
 -314 788 -314 788 -328 802.5 c 128,-1,20
 -342 817 -342 817 -365 817 c 256,21,22
 -388 817 -388 817 -402.5 802 c 128,-1,23
 -417 787 -417 787 -417 762 c 0,12,13
-244 763 m 0,24,25
 -244 807 -244 807 -216.5 834.5 c 128,-1,26
 -189 862 -189 862 -145 862 c 0,27,28
 -100 862 -100 862 -72.5 834.5 c 128,-1,29
 -45 807 -45 807 -45 763 c 256,30,31
 -45 719 -45 719 -72.5 691 c 128,-1,32
 -100 663 -100 663 -144 663 c 0,33,34
 -189 663 -189 663 -216.5 691.5 c 128,-1,35
 -244 720 -244 720 -244 763 c 0,24,25
-196 762 m 0,36,37
 -196 738 -196 738 -182.5 723 c 128,-1,38
 -169 708 -169 708 -146 708 c 256,39,40
 -123 708 -123 708 -108 723.5 c 128,-1,41
 -93 739 -93 739 -93 764 c 0,42,43
 -93 788 -93 788 -107 802.5 c 128,-1,44
 -121 817 -121 817 -144 817 c 256,45,46
 -167 817 -167 817 -181.5 802 c 128,-1,47
 -196 787 -196 787 -196 762 c 0,36,37
EndSplineSet
EndChar

StartChar: kassagujr
Encoding: 65571 -1 129
Width: 717
Flags: W
LayerCount: 2
Fore
SplineSet
243 39 m 0,0,1
 182 39 182 39 137.5 59 c 128,-1,2
 93 79 93 79 69.5 113 c 128,-1,3
 46 147 46 147 46 189 c 0,4,5
 46 225 46 225 60.5 252.5 c 128,-1,6
 75 280 75 280 100.5 301.5 c 128,-1,7
 126 323 126 323 160 341 c 1,8,9
 118 366 118 366 95.5 400 c 128,-1,10
 73 434 73 434 73 474 c 0,11,12
 73 512 73 512 92 541 c 128,-1,13
 111 570 111 570 146 586.5 c 128,-1,14
 181 603 181 603 229 603 c 0,15,16
 294 603 294 603 338.5 572.5 c 128,-1,17
 383 542 383 542 383 484 c 0,18,19
 383 451 383 451 368.5 425 c 128,-1,20
 354 399 354 399 329.5 378 c 128,-1,21
 305 357 305 357 276 339 c 1,22,-1
 276 360 l 1,23,24
 299 353 299 353 325.5 350 c 128,-1,25
 352 347 352 347 387 347 c 0,26,27
 428 347 428 347 467 355 c 128,-1,28
 506 363 506 363 550 385 c 1,29,-1
 559 357 l 1,30,-1
 549 305 l 1,31,32
 517 289 517 289 472.5 281.5 c 128,-1,33
 428 274 428 274 384 274 c 0,34,35
 338 274 338 274 298 282 c 128,-1,36
 258 290 258 290 224 304 c 1,37,38
 191 286 191 286 170 269.5 c 128,-1,39
 149 253 149 253 138.5 235 c 128,-1,40
 128 217 128 217 128 193 c 0,41,42
 128 174 128 174 138 155 c 128,-1,43
 148 136 148 136 174 123.5 c 128,-1,44
 200 111 200 111 247 111 c 0,45,46
 260 111 260 111 270 112.5 c 128,-1,47
 280 114 280 114 289 117.5 c 128,-1,48
 298 121 298 121 306 126 c 1,49,-1
 293 109 l 1,50,51
 289 115 289 115 287 123.5 c 128,-1,52
 285 132 285 132 285 141 c 0,53,54
 285 167 285 167 301 181 c 128,-1,55
 317 195 317 195 342 195 c 0,56,57
 371 195 371 195 386 177.5 c 128,-1,58
 401 160 401 160 401 137 c 0,59,60
 401 108 401 108 381 86 c 128,-1,61
 361 64 361 64 325.5 51.5 c 128,-1,62
 290 39 290 39 243 39 c 0,0,1
227 380 m 1,63,64
 248 392 248 392 265.5 406 c 128,-1,65
 283 420 283 420 293 437.5 c 128,-1,66
 303 455 303 455 303 474 c 0,67,68
 303 499 303 499 285 516 c 128,-1,69
 267 533 267 533 229 533 c 0,70,71
 193 533 193 533 173 516.5 c 128,-1,72
 153 500 153 500 153 471 c 0,73,74
 153 443 153 443 173.5 419.5 c 128,-1,75
 194 396 194 396 227 380 c 1,63,64
691 0 m 2,76,77
 648 0 648 0 620 9.5 c 128,-1,78
 592 19 592 19 574 37 c 0,79,80
 557 54 557 54 549.5 79 c 128,-1,81
 542 104 542 104 542 148 c 2,82,-1
 542 603 l 1,83,-1
 623 592 l 1,84,-1
 623 152 l 2,85,86
 623 125 623 125 626 113 c 128,-1,87
 629 101 629 101 635 92 c 0,88,89
 645 78 645 78 666.5 75.5 c 128,-1,90
 688 73 688 73 709 73 c 1,91,-1
 701 0 l 1,92,-1
 691 0 l 2,76,77
459 -43 m 2,93,94
 411 -43 411 -43 378.5 -22.5 c 128,-1,95
 346 -2 346 -2 325.5 32 c 128,-1,96
 305 66 305 66 292 104 c 1,97,-1
 367 125 l 1,98,99
 378 91 378 91 390 69.5 c 128,-1,100
 402 48 402 48 422 38 c 128,-1,101
 442 28 442 28 473 28 c 2,102,-1
 481 28 l 1,103,-1
 473 -43 l 1,104,-1
 459 -43 l 2,93,94
EndSplineSet
Ligature2: "'akhn' Akhand lookup 73 subtable" kagujr viramagujr ssagujr
Substitution2: "Single Substitution lookup 65 subtable" kassastemgujr
EndChar

StartChar: janyagujr
Encoding: 65572 -1 130
Width: 690
Flags: W
LayerCount: 2
Fore
SplineSet
328 -43 m 2,0,1
 273 -43 273 -43 233 -24 c 128,-1,2
 193 -5 193 -5 162 29.5 c 128,-1,3
 131 64 131 64 103 109 c 1,4,-1
 158 145 l 1,5,6
 174 142 174 142 187 140.5 c 128,-1,7
 200 139 200 139 210 139 c 0,8,9
 270 139 270 139 299 158.5 c 128,-1,10
 328 178 328 178 328 210 c 0,11,12
 328 237 328 237 315.5 252 c 128,-1,13
 303 267 303 267 279.5 275.5 c 128,-1,14
 256 284 256 284 221 291 c 0,15,16
 173 301 173 301 135 318.5 c 128,-1,17
 97 336 97 336 75 366 c 128,-1,18
 53 396 53 396 53 443 c 0,19,20
 53 479 53 479 70 508.5 c 128,-1,21
 87 538 87 538 120.5 555 c 128,-1,22
 154 572 154 572 203 572 c 0,23,24
 251 572 251 572 283.5 558 c 128,-1,25
 316 544 316 544 342.5 525.5 c 128,-1,26
 369 507 369 507 398.5 493 c 128,-1,27
 428 479 428 479 469 479 c 0,28,29
 492 479 492 479 510.5 484 c 128,-1,30
 529 489 529 489 542 496 c 1,31,-1
 547 418 l 1,32,33
 531 412 531 412 511.5 409 c 128,-1,34
 492 406 492 406 467 406 c 0,35,36
 416 406 416 406 380 420 c 128,-1,37
 344 434 344 434 316 453 c 128,-1,38
 288 472 288 472 261 486 c 128,-1,39
 234 500 234 500 202 500 c 0,40,41
 169 500 169 500 152 483.5 c 128,-1,42
 135 467 135 467 135 441 c 0,43,44
 135 408 135 408 162.5 391 c 128,-1,45
 190 374 190 374 251 363 c 0,46,47
 322 350 322 350 366 318 c 128,-1,48
 410 286 410 286 410 218 c 0,49,50
 410 172 410 172 390.5 142.5 c 128,-1,51
 371 113 371 113 340 97 c 128,-1,52
 309 81 309 81 272.5 75 c 128,-1,53
 236 69 236 69 203 69 c 0,54,55
 146 69 146 69 109 77 c 128,-1,56
 72 85 72 85 54 102 c 128,-1,57
 36 119 36 119 36 144 c 0,58,59
 36 161 36 161 49 176.5 c 128,-1,60
 62 192 62 192 88 192 c 0,61,62
 118 192 118 192 143 175.5 c 128,-1,63
 168 159 168 159 192 127 c 1,64,-1
 171 130 l 1,65,66
 203 83 203 83 228.5 62 c 128,-1,67
 254 41 254 41 280 36.5 c 128,-1,68
 306 32 306 32 339 32 c 2,69,-1
 352 32 l 1,70,-1
 343 -43 l 1,71,-1
 328 -43 l 2,0,1
664 0 m 2,72,73
 621 0 621 0 592 9.5 c 128,-1,74
 563 19 563 19 546 37 c 0,75,76
 530 54 530 54 522.5 79 c 128,-1,77
 515 104 515 104 515 148 c 2,78,-1
 515 603 l 1,79,-1
 595 592 l 1,80,-1
 595 152 l 2,81,82
 595 125 595 125 598 112.5 c 128,-1,83
 601 100 601 100 607 92 c 0,84,85
 618 78 618 78 639.5 75.5 c 128,-1,86
 661 73 661 73 682 73 c 1,87,-1
 674 0 l 1,88,-1
 664 0 l 2,72,73
EndSplineSet
Ligature2: "'akhn' Akhand lookup 73 subtable" jagujr viramagujr nyagujr
Substitution2: "Single Substitution lookup 65 subtable" janyastemgujr
EndChar

StartChar: rephgujr
Encoding: 65573 -1 131
Width: 0
GlyphClass: 4
Flags: W
AnchorPoint: "Anchor-7" -174 603 mark 0
AnchorPoint: "Anchor-4" -174 603 mark 0
AnchorPoint: "Anchor-0" -174 603 mark 0
LayerCount: 2
Fore
SplineSet
-183 632 m 1,0,1
 -199 659 -199 659 -209.5 691 c 128,-1,2
 -220 723 -220 723 -220 754 c 0,3,4
 -220 827 -220 827 -176.5 861.5 c 128,-1,5
 -133 896 -133 896 -67 896 c 0,6,7
 -34 896 -34 896 -7.5 889.5 c 128,-1,8
 19 883 19 883 39 872 c 1,9,-1
 17 808 l 1,10,11
 0 817 0 817 -19 823 c 128,-1,12
 -38 829 -38 829 -60 829 c 0,13,14
 -102 829 -102 829 -122 805.5 c 128,-1,15
 -142 782 -142 782 -142 746 c 0,16,17
 -142 719 -142 719 -132.5 694.5 c 128,-1,18
 -123 670 -123 670 -107 641 c 1,19,-1
 -183 632 l 1,0,1
EndSplineSet
Ligature2: "'rphf' Reph Form lookup 74 subtable" ragujr viramagujr
Substitution2: "Single Substitution lookup 71 subtable" rephleftgujr
Substitution2: "Single Substitution lookup 56 subtable" dummymarkgujr
EndChar

StartChar: vattugujr
Encoding: 65574 -1 132
Width: 0
Flags: W
LayerCount: 2
Fore
SplineSet
-402 -230 m 1,0,-1
 -453 -168 l 1,1,-1
 -217 -12 l 1,2,-1
 -188 -12 l 1,3,-1
 -42 -192 l 1,4,-1
 -101 -230 l 1,5,-1
 -212 -89 l 1,6,-1
 -402 -230 l 1,0,-1
EndSplineSet
Ligature2: "'blwf' Below Base Forms lookup 76 subtable" viramagujr ragujr
EndChar

StartChar: kaprehalfgujr
Encoding: 65575 -1 133
Width: 511
Flags: W
LayerCount: 2
Fore
SplineSet
259 -10 m 0,0,1
 181 -10 181 -10 122 14.5 c 128,-1,2
 63 39 63 39 18 73 c 1,3,-1
 63 135 l 1,4,5
 112 97 112 97 158.5 80 c 128,-1,6
 205 63 205 63 254 63 c 0,7,8
 315 63 315 63 343 84 c 128,-1,9
 371 105 371 105 371 144 c 0,10,11
 371 163 371 163 361.5 184 c 128,-1,12
 352 205 352 205 325 230 c 128,-1,13
 298 255 298 255 246 285 c 1,14,-1
 219 306 l 2,15,16
 184 329 184 329 157.5 351.5 c 128,-1,17
 131 374 131 374 117 401 c 128,-1,18
 103 428 103 428 103 462 c 0,19,20
 103 524 103 524 150.5 563.5 c 128,-1,21
 198 603 198 603 277 603 c 0,22,23
 309 603 309 603 338 599.5 c 128,-1,24
 367 596 367 596 394 589 c 1,25,-1
 379 517 l 1,26,27
 353 523 353 523 332.5 526 c 128,-1,28
 312 529 312 529 286 529 c 0,29,30
 235 529 235 529 210 509 c 128,-1,31
 185 489 185 489 185 455 c 0,32,33
 185 437 185 437 195 419 c 128,-1,34
 205 401 205 401 227 383.5 c 128,-1,35
 249 366 249 366 285 347 c 1,36,-1
 314 311 l 1,37,38
 365 287 365 287 395.5 260.5 c 128,-1,39
 426 234 426 234 439.5 203.5 c 128,-1,40
 453 173 453 173 453 137 c 0,41,42
 453 103 453 103 434.5 69 c 128,-1,43
 416 35 416 35 373.5 12.5 c 128,-1,44
 331 -10 331 -10 259 -10 c 0,0,1
65 211 m 1,45,-1
 38 282 l 1,46,-1
 229 350 l 1,47,-1
 256 361 l 1,48,-1
 539 361 l 1,49,-1
 539 291 l 1,50,-1
 447 291 l 2,51,52
 420 291 420 291 384.5 292.5 c 128,-1,53
 349 294 349 294 326 298 c 1,54,-1
 289 297 l 1,55,-1
 65 211 l 1,45,-1
EndSplineSet
Ligature2: "'half' Half Forms lookup 77 subtable" kagujr viramagujr
EndChar

StartChar: khaprehalfgujr
Encoding: 65576 -1 134
Width: 561
Flags: W
LayerCount: 2
Fore
SplineSet
261 161 m 0,0,1
 221 161 221 161 191 171.5 c 128,-1,2
 161 182 161 182 140 203 c 0,3,4
 115 228 115 228 104 260.5 c 128,-1,5
 93 293 93 293 93 351 c 2,6,-1
 93 440 l 2,7,8
 93 467 93 467 90 479.5 c 128,-1,9
 87 492 87 492 81 500 c 0,10,11
 71 514 71 514 49 516.5 c 128,-1,12
 27 519 27 519 6 519 c 1,13,-1
 14 592 l 1,14,-1
 24 592 l 2,15,16
 68 592 68 592 96.5 582.5 c 128,-1,17
 125 573 125 573 142 555 c 0,18,19
 159 538 159 538 166 513 c 128,-1,20
 173 488 173 488 173 443 c 2,21,-1
 173 351 l 2,22,23
 173 311 173 311 179.5 289 c 128,-1,24
 186 267 186 267 200 253 c 0,25,26
 211 243 211 243 226 238 c 128,-1,27
 241 233 241 233 262 233 c 0,28,29
 282 233 282 233 298.5 239 c 128,-1,30
 315 245 315 245 327 258 c 0,31,32
 338 270 338 270 343.5 290 c 128,-1,33
 349 310 349 310 349 351 c 2,34,-1
 349 481 l 1,35,-1
 429 471 l 1,36,-1
 429 326 l 2,37,38
 429 278 429 278 407.5 240.5 c 128,-1,39
 386 203 386 203 348.5 182 c 128,-1,40
 311 161 311 161 261 161 c 0,0,1
486 262 m 0,41,42
 447 262 447 262 414.5 284 c 128,-1,43
 382 306 382 306 360 367 c 1,44,-1
 418 390 l 1,45,46
 426 358 426 358 444 346 c 128,-1,47
 462 334 462 334 486 334 c 256,48,49
 510 334 510 334 526 341 c 128,-1,50
 542 348 542 348 557 360 c 1,51,-1
 585 293 l 1,52,53
 565 278 565 278 543 270 c 128,-1,54
 521 262 521 262 486 262 c 0,41,42
EndSplineSet
Ligature2: "'half' Half Forms lookup 77 subtable" khagujr viramagujr
EndChar

StartChar: gaprehalfgujr
Encoding: 65577 -1 135
Width: 410
Flags: W
LayerCount: 2
Fore
SplineSet
210 178 m 0,0,1
 173 178 173 178 138.5 190.5 c 128,-1,2
 104 203 104 203 72.5 230.5 c 128,-1,3
 41 258 41 258 11 303 c 1,4,-1
 74 346 l 1,5,6
 108 295 108 295 138 273 c 128,-1,7
 168 251 168 251 206 251 c 0,8,9
 247 251 247 251 273 282 c 128,-1,10
 299 313 299 313 299 384 c 0,11,12
 299 461 299 461 269.5 495.5 c 128,-1,13
 240 530 240 530 188 530 c 0,14,15
 157 530 157 530 129 522.5 c 128,-1,16
 101 515 101 515 79 503 c 1,17,-1
 54 570 l 1,18,19
 87 587 87 587 123.5 595 c 128,-1,20
 160 603 160 603 192 603 c 0,21,22
 248 603 248 603 290 579.5 c 128,-1,23
 332 556 332 556 356 507.5 c 128,-1,24
 380 459 380 459 380 383 c 0,25,26
 380 319 380 319 364.5 279 c 128,-1,27
 349 239 349 239 324 217 c 128,-1,28
 299 195 299 195 269 186.5 c 128,-1,29
 239 178 239 178 210 178 c 0,0,1
EndSplineSet
Ligature2: "'half' Half Forms lookup 77 subtable" gagujr viramagujr
EndChar

StartChar: ghaprehalfgujr
Encoding: 65578 -1 136
Width: 439
Flags: W
LayerCount: 2
Fore
SplineSet
274 107 m 0,0,1
 214 107 214 107 171.5 127 c 128,-1,2
 129 147 129 147 106 181.5 c 128,-1,3
 83 216 83 216 83 261 c 0,4,5
 83 303 83 303 102 337 c 128,-1,6
 121 371 121 371 160 391 c 128,-1,7
 199 411 199 411 259 411 c 0,8,9
 273 411 273 411 291 409 c 128,-1,10
 309 407 309 407 320 405 c 1,11,-1
 308 333 l 1,12,13
 301 335 301 335 287 336.5 c 128,-1,14
 273 338 273 338 257 338 c 0,15,16
 217 338 217 338 190.5 320.5 c 128,-1,17
 164 303 164 303 164 264 c 0,18,19
 164 222 164 222 194.5 200.5 c 128,-1,20
 225 179 225 179 274 179 c 0,21,22
 324 179 324 179 362 196 c 128,-1,23
 400 213 400 213 438 247 c 1,24,-1
 477 181 l 1,25,26
 452 161 452 161 422.5 144 c 128,-1,27
 393 127 393 127 357 117 c 128,-1,28
 321 107 321 107 274 107 c 0,0,1
166 323 m 1,29,30
 134 340 134 340 106 361 c 128,-1,31
 78 382 78 382 61 410.5 c 128,-1,32
 44 439 44 439 44 478 c 0,33,34
 44 511 44 511 62.5 539.5 c 128,-1,35
 81 568 81 568 118 585.5 c 128,-1,36
 155 603 155 603 210 603 c 0,37,38
 231 603 231 603 258 600 c 128,-1,39
 285 597 285 597 304 592 c 1,40,-1
 290 521 l 1,41,42
 275 525 275 525 255.5 527.5 c 128,-1,43
 236 530 236 530 219 530 c 0,44,45
 170 530 170 530 147.5 513.5 c 128,-1,46
 125 497 125 497 125 470 c 0,47,48
 125 441 125 441 146.5 417.5 c 128,-1,49
 168 394 168 394 220 374 c 1,50,-1
 166 323 l 1,29,30
EndSplineSet
Ligature2: "'half' Half Forms lookup 77 subtable" ghagujr viramagujr
EndChar

StartChar: caprehalfgujr
Encoding: 65580 -1 138
Width: 469
Flags: W
LayerCount: 2
Fore
SplineSet
326 131 m 0,0,1
 286 131 286 131 247.5 143.5 c 128,-1,2
 209 156 209 156 176.5 181 c 128,-1,3
 144 206 144 206 119 245 c 1,4,-1
 129 298 l 1,5,-1
 138 303 l 1,6,7
 194 311 194 311 233 345.5 c 128,-1,8
 272 380 272 380 272 430 c 0,9,10
 272 478 272 478 244.5 504 c 128,-1,11
 217 530 217 530 158 530 c 0,12,13
 136 530 136 530 108.5 524.5 c 128,-1,14
 81 519 81 519 58 508 c 1,15,-1
 31 576 l 1,16,17
 55 587 55 587 90 595 c 128,-1,18
 125 603 125 603 161 603 c 0,19,20
 222 603 222 603 264.5 582.5 c 128,-1,21
 307 562 307 562 329.5 523 c 128,-1,22
 352 484 352 484 352 428 c 0,23,24
 352 373 352 373 320 329.5 c 128,-1,25
 288 286 288 286 234.5 261.5 c 128,-1,26
 181 237 181 237 117 237 c 0,27,28
 91 237 91 237 72.5 244 c 128,-1,29
 54 251 54 251 44.5 265 c 128,-1,30
 35 279 35 279 35 299 c 0,31,32
 35 316 35 316 49.5 331 c 128,-1,33
 64 346 64 346 94 346 c 0,34,35
 125 346 125 346 145 333 c 128,-1,36
 165 320 165 320 187 295 c 1,37,-1
 201 257 l 1,38,39
 225 232 225 232 251.5 217.5 c 128,-1,40
 278 203 278 203 323 203 c 0,41,42
 373 203 373 203 407 219.5 c 128,-1,43
 441 236 441 236 470 263 c 1,44,-1
 511 198 l 1,45,46
 471 167 471 167 430 149 c 128,-1,47
 389 131 389 131 326 131 c 0,0,1
EndSplineSet
Ligature2: "'half' Half Forms lookup 77 subtable" cagujr viramagujr
EndChar

StartChar: japrehalfgujr
Encoding: 65582 -1 140
Width: 811
Flags: W
LayerCount: 2
Fore
SplineSet
548 -10 m 0,0,1
 485 -10 485 -10 446 15 c 128,-1,2
 407 40 407 40 389.5 80.5 c 128,-1,3
 372 121 372 121 372 167 c 0,4,5
 372 228 372 228 399.5 274 c 128,-1,6
 427 320 427 320 473 351.5 c 128,-1,7
 519 383 519 383 576 402 c 2,8,-1
 599 411 l 1,9,10
 632 419 632 419 670.5 423.5 c 128,-1,11
 709 428 709 428 742 428 c 2,12,-1
 830 428 l 1,13,-1
 830 355 l 1,14,-1
 748 355 l 2,15,16
 721 355 721 355 688.5 353 c 128,-1,17
 656 351 656 351 624 342 c 0,18,19
 577 332 577 332 538.5 309.5 c 128,-1,20
 500 287 500 287 477 251.5 c 128,-1,21
 454 216 454 216 454 167 c 0,22,23
 454 117 454 117 476 90 c 128,-1,24
 498 63 498 63 546 63 c 0,25,26
 589 63 589 63 614 88.5 c 128,-1,27
 639 114 639 114 639 170 c 0,28,29
 639 232 639 232 615.5 284 c 128,-1,30
 592 336 592 336 550 382 c 0,31,32
 510 429 510 429 462.5 463 c 128,-1,33
 415 497 415 497 358.5 515 c 128,-1,34
 302 533 302 533 234 533 c 0,35,36
 169 533 169 533 141 501.5 c 128,-1,37
 113 470 113 470 113 429 c 0,38,39
 113 386 113 386 135 364.5 c 128,-1,40
 157 343 157 343 191 343 c 0,41,42
 237 343 237 343 256.5 367 c 128,-1,43
 276 391 276 391 276 434 c 0,44,45
 276 466 276 466 265.5 494 c 128,-1,46
 255 522 255 522 236 544 c 1,47,-1
 307 555 l 1,48,49
 326 533 326 533 341 502 c 128,-1,50
 356 471 356 471 356 428 c 0,51,52
 356 400 356 400 347.5 371.5 c 128,-1,53
 339 343 339 343 320 320.5 c 128,-1,54
 301 298 301 298 269.5 284 c 128,-1,55
 238 270 238 270 191 270 c 0,56,57
 140 270 140 270 105 291.5 c 128,-1,58
 70 313 70 313 51.5 349.5 c 128,-1,59
 33 386 33 386 33 430 c 0,60,61
 33 478 33 478 57 517 c 128,-1,62
 81 556 81 556 127 579.5 c 128,-1,63
 173 603 173 603 240 603 c 0,64,65
 315 603 315 603 385.5 580.5 c 128,-1,66
 456 558 456 558 520 511.5 c 128,-1,67
 584 465 584 465 639 392 c 1,68,-1
 651 370 l 1,69,70
 678 333 678 333 699.5 282.5 c 128,-1,71
 721 232 721 232 721 169 c 0,72,73
 721 84 721 84 674.5 37 c 128,-1,74
 628 -10 628 -10 548 -10 c 0,0,1
EndSplineSet
Ligature2: "'half' Half Forms lookup 77 subtable" jagujr viramagujr
EndChar

StartChar: jhaprehalfgujr
Encoding: 65583 -1 141
Width: 631
Flags: W
LayerCount: 2
Fore
SplineSet
215 -10 m 0,0,1
 160 -10 160 -10 109 16 c 128,-1,2
 58 42 58 42 11 115 c 1,3,-1
 74 158 l 1,4,5
 105 113 105 113 134 88 c 128,-1,6
 163 63 163 63 213 63 c 0,7,8
 243 63 243 63 266 80 c 128,-1,9
 289 97 289 97 302.5 135 c 128,-1,10
 316 173 316 173 316 235 c 0,11,12
 316 324 316 324 284 371.5 c 128,-1,13
 252 419 252 419 188 419 c 0,14,15
 151 419 151 419 126.5 411.5 c 128,-1,16
 102 404 102 404 78 392 c 1,17,-1
 52 460 l 1,18,19
 84 474 84 474 122.5 483 c 128,-1,20
 161 492 161 492 195 492 c 0,21,22
 258 492 258 492 303.5 462.5 c 128,-1,23
 349 433 349 433 373.5 375 c 128,-1,24
 398 317 398 317 398 232 c 0,25,26
 398 157 398 157 381 109.5 c 128,-1,27
 364 62 364 62 336.5 36 c 128,-1,28
 309 10 309 10 277 0 c 128,-1,29
 245 -10 245 -10 215 -10 c 0,0,1
573 286 m 1,30,31
 547 319 547 319 524 330 c 128,-1,32
 501 341 501 341 473 341 c 0,33,34
 440 341 440 341 412 329.5 c 128,-1,35
 384 318 384 318 353 291 c 1,36,-1
 320 362 l 1,37,38
 353 387 353 387 390 400 c 128,-1,39
 427 413 427 413 472 413 c 0,40,41
 522 413 522 413 563 397.5 c 128,-1,42
 604 382 604 382 641 326 c 1,43,-1
 573 286 l 1,30,31
536 401 m 1,44,-1
 456 408 l 1,45,-1
 456 603 l 1,46,-1
 536 592 l 1,47,-1
 536 401 l 1,44,-1
EndSplineSet
Ligature2: "'half' Half Forms lookup 77 subtable" jhagujr viramagujr
EndChar

StartChar: nyaprehalfgujr
Encoding: 65584 -1 142
Width: 492
Flags: W
LayerCount: 2
Fore
SplineSet
208 178 m 0,0,1
 174 178 174 178 140 190 c 128,-1,2
 106 202 106 202 74 229.5 c 128,-1,3
 42 257 42 257 11 303 c 1,4,-1
 74 346 l 1,5,6
 108 295 108 295 138 273 c 128,-1,7
 168 251 168 251 206 251 c 0,8,9
 247 251 247 251 273 282 c 128,-1,10
 299 313 299 313 299 384 c 0,11,12
 299 461 299 461 269.5 495.5 c 128,-1,13
 240 530 240 530 188 530 c 0,14,15
 157 530 157 530 129 522.5 c 128,-1,16
 101 515 101 515 79 503 c 1,17,-1
 54 570 l 1,18,19
 87 587 87 587 123.5 595 c 128,-1,20
 160 603 160 603 192 603 c 0,21,22
 248 603 248 603 289.5 579.5 c 128,-1,23
 331 556 331 556 354.5 507.5 c 128,-1,24
 378 459 378 459 378 383 c 0,25,26
 378 319 378 319 363 279 c 128,-1,27
 348 239 348 239 323 217 c 128,-1,28
 298 195 298 195 268 186.5 c 128,-1,29
 238 178 238 178 208 178 c 0,0,1
417 332 m 0,30,31
 389 332 389 332 362.5 338.5 c 128,-1,32
 336 345 336 345 311 361 c 1,33,-1
 316 450 l 1,34,35
 336 428 336 428 359.5 416 c 128,-1,36
 383 404 383 404 416 404 c 0,37,38
 445 404 445 404 465 411 c 128,-1,39
 485 418 485 418 502 428 c 1,40,-1
 529 357 l 1,41,42
 500 343 500 343 477.5 337.5 c 128,-1,43
 455 332 455 332 417 332 c 0,30,31
EndSplineSet
Ligature2: "'half' Half Forms lookup 77 subtable" nyagujr viramagujr
EndChar

StartChar: nnaprehalfgujr
Encoding: 65589 -1 147
Width: 585
Flags: W
LayerCount: 2
Fore
SplineSet
425 -142 m 1,0,-1
 360 -97 l 1,1,2
 373 -82 373 -82 380.5 -67 c 128,-1,3
 388 -52 388 -52 388 -35 c 0,4,5
 388 -17 388 -17 379.5 -2.5 c 128,-1,6
 371 12 371 12 352 25 c 128,-1,7
 333 38 333 38 302 52 c 2,8,-1
 163 114 l 2,9,10
 126 131 126 131 107.5 152 c 128,-1,11
 89 173 89 173 82 203.5 c 128,-1,12
 75 234 75 234 75 276 c 2,13,-1
 75 603 l 1,14,-1
 155 592 l 1,15,-1
 155 291 l 2,16,17
 155 262 155 262 157 241 c 128,-1,18
 159 220 159 220 170 204.5 c 128,-1,19
 181 189 181 189 207 177 c 2,20,-1
 346 113 l 2,21,22
 416 81 416 81 444 49 c 128,-1,23
 472 17 472 17 472 -30 c 0,24,25
 472 -64 472 -64 457 -92 c 128,-1,26
 442 -120 442 -120 425 -142 c 1,0,-1
398 210 m 0,27,28
 367 210 367 210 335 221.5 c 128,-1,29
 303 233 303 233 273 255.5 c 128,-1,30
 243 278 243 278 217 310 c 1,31,-1
 277 355 l 1,32,33
 302 324 302 324 330 303 c 128,-1,34
 358 282 358 282 396 282 c 0,35,36
 429 282 429 282 452 307 c 128,-1,37
 475 332 475 332 475 404 c 0,38,39
 475 472 475 472 449.5 502 c 128,-1,40
 424 532 424 532 380 532 c 0,41,42
 354 532 354 532 330.5 526.5 c 128,-1,43
 307 521 307 521 284 509 c 1,44,-1
 259 574 l 1,45,46
 291 590 291 590 323.5 596.5 c 128,-1,47
 356 603 356 603 385 603 c 0,48,49
 435 603 435 603 473.5 580.5 c 128,-1,50
 512 558 512 558 533.5 514 c 128,-1,51
 555 470 555 470 555 404 c 0,52,53
 555 343 555 343 541 305 c 128,-1,54
 527 267 527 267 504 246.5 c 128,-1,55
 481 226 481 226 453 218 c 128,-1,56
 425 210 425 210 398 210 c 0,27,28
EndSplineSet
Ligature2: "'half' Half Forms lookup 77 subtable" nnagujr viramagujr
EndChar

StartChar: taprehalfgujr
Encoding: 65590 -1 148
Width: 368
Flags: W
LayerCount: 2
Fore
SplineSet
209 12 m 1,0,1
 164 48 164 48 126.5 87.5 c 128,-1,2
 89 127 89 127 66 170 c 128,-1,3
 43 213 43 213 43 261 c 0,4,5
 43 300 43 300 56 330 c 128,-1,6
 69 360 69 360 93 381 c 0,7,8
 123 407 123 407 170.5 420 c 128,-1,9
 218 433 218 433 306 433 c 2,10,-1
 398 433 l 1,11,-1
 398 360 l 1,12,-1
 300 360 l 2,13,14
 255 360 255 360 228 357 c 128,-1,15
 201 354 201 354 185 347.5 c 128,-1,16
 169 341 169 341 156 331 c 0,17,18
 141 319 141 319 133 301.5 c 128,-1,19
 125 284 125 284 125 261 c 0,20,21
 125 227 125 227 141.5 196 c 128,-1,22
 158 165 158 165 189 134 c 128,-1,23
 220 103 220 103 262 68 c 1,24,-1
 209 12 l 1,0,1
EndSplineSet
Ligature2: "'half' Half Forms lookup 77 subtable" tagujr viramagujr
EndChar

StartChar: thaprehalfgujr
Encoding: 65591 -1 149
Width: 429
Flags: W
LayerCount: 2
Fore
SplineSet
275 146 m 0,0,1
 216 146 216 146 172 166.5 c 128,-1,2
 128 187 128 187 97.5 226.5 c 128,-1,3
 67 266 67 266 48 321 c 1,4,5
 111 340 111 340 154 362 c 128,-1,6
 197 384 197 384 218.5 412.5 c 128,-1,7
 240 441 240 441 240 477 c 0,8,9
 240 506 240 506 222.5 520.5 c 128,-1,10
 205 535 205 535 179 535 c 0,11,12
 150 535 150 535 133.5 522.5 c 128,-1,13
 117 510 117 510 117 489 c 0,14,15
 117 472 117 472 126.5 458 c 128,-1,16
 136 444 136 444 162 430 c 1,17,-1
 116 376 l 1,18,19
 76 398 76 398 58 426.5 c 128,-1,20
 40 455 40 455 40 491 c 0,21,22
 40 521 40 521 55.5 546.5 c 128,-1,23
 71 572 71 572 102 587.5 c 128,-1,24
 133 603 133 603 178 603 c 0,25,26
 216 603 216 603 242.5 592 c 128,-1,27
 269 581 269 581 286 562.5 c 128,-1,28
 303 544 303 544 310.5 521 c 128,-1,29
 318 498 318 498 318 474 c 0,30,31
 318 427 318 427 295 389.5 c 128,-1,32
 272 352 272 352 229 323 c 128,-1,33
 186 294 186 294 124 270 c 1,34,-1
 143 295 l 1,35,36
 160 261 160 261 191 239.5 c 128,-1,37
 222 218 222 218 272 218 c 0,38,39
 329 218 329 218 367.5 236 c 128,-1,40
 406 254 406 254 436 280 c 1,41,-1
 476 218 l 1,42,43
 434 187 434 187 389.5 166.5 c 128,-1,44
 345 146 345 146 275 146 c 0,0,1
EndSplineSet
Ligature2: "'half' Half Forms lookup 77 subtable" thagujr viramagujr
EndChar

StartChar: dhaprehalfgujr
Encoding: 65593 -1 151
Width: 424
Flags: W
LayerCount: 2
Fore
SplineSet
273 107 m 0,0,1
 213 107 213 107 170.5 127 c 128,-1,2
 128 147 128 147 105.5 181.5 c 128,-1,3
 83 216 83 216 83 261 c 0,4,5
 83 303 83 303 102 337 c 128,-1,6
 121 371 121 371 160 391 c 128,-1,7
 199 411 199 411 259 411 c 0,8,9
 273 411 273 411 290 409 c 128,-1,10
 307 407 307 407 320 405 c 1,11,-1
 308 333 l 1,12,13
 298 335 298 335 284.5 336.5 c 128,-1,14
 271 338 271 338 257 338 c 0,15,16
 217 338 217 338 190.5 320.5 c 128,-1,17
 164 303 164 303 164 264 c 0,18,19
 164 222 164 222 191.5 200.5 c 128,-1,20
 219 179 219 179 273 179 c 0,21,22
 317 179 317 179 352.5 193.5 c 128,-1,23
 388 208 388 208 423 241 c 1,24,-1
 461 176 l 1,25,26
 440 157 440 157 413.5 141.5 c 128,-1,27
 387 126 387 126 353 116.5 c 128,-1,28
 319 107 319 107 273 107 c 0,0,1
166 323 m 1,29,30
 137 338 137 338 108.5 359.5 c 128,-1,31
 80 381 80 381 62 411 c 128,-1,32
 44 441 44 441 44 481 c 0,33,34
 44 536 44 536 84 578.5 c 128,-1,35
 124 621 124 621 206 646 c 1,36,-1
 235 574 l 1,37,38
 187 561 187 561 163.5 543.5 c 128,-1,39
 140 526 140 526 132.5 508 c 128,-1,40
 125 490 125 490 125 474 c 0,41,42
 125 442 125 442 147.5 416.5 c 128,-1,43
 170 391 170 391 220 374 c 1,44,-1
 166 323 l 1,29,30
EndSplineSet
Ligature2: "'half' Half Forms lookup 77 subtable" dhagujr viramagujr
EndChar

StartChar: naprehalfgujr
Encoding: 65594 -1 152
Width: 352
Flags: W
LayerCount: 2
Fore
SplineSet
140 214 m 0,0,1
 122 214 122 214 101.5 226.5 c 128,-1,2
 81 239 81 239 63.5 259 c 128,-1,3
 46 279 46 279 35 302.5 c 128,-1,4
 24 326 24 326 24 348 c 0,5,6
 24 371 24 371 37.5 385.5 c 128,-1,7
 51 400 51 400 84 400 c 2,8,-1
 372 400 l 1,9,-1
 372 328 l 1,10,-1
 191 328 l 1,11,-1
 191 271 l 2,12,13
 191 242 191 242 177 228 c 128,-1,14
 163 214 163 214 140 214 c 0,0,1
EndSplineSet
Substitution2: "Single Substitution lookup 82 subtable" napreformaltgujr
Ligature2: "'half' Half Forms lookup 77 subtable" nagujr viramagujr
EndChar

StartChar: paprehalfgujr
Encoding: 65595 -1 153
Width: 388
Flags: W
LayerCount: 2
Fore
SplineSet
264 161 m 0,0,1
 225 161 225 161 194 173 c 128,-1,2
 163 185 163 185 143 204 c 0,3,4
 118 229 118 229 105.5 262 c 128,-1,5
 93 295 93 295 93 350 c 2,6,-1
 93 440 l 2,7,8
 93 467 93 467 90 479.5 c 128,-1,9
 87 492 87 492 81 500 c 0,10,11
 71 514 71 514 49 516.5 c 128,-1,12
 27 519 27 519 6 519 c 1,13,-1
 14 592 l 1,14,-1
 24 592 l 2,15,16
 68 592 68 592 96.5 582.5 c 128,-1,17
 125 573 125 573 142 555 c 0,18,19
 159 538 159 538 166 513 c 128,-1,20
 173 488 173 488 173 443 c 2,21,-1
 173 357 l 2,22,23
 173 311 173 311 181 288.5 c 128,-1,24
 189 266 189 266 202 253 c 0,25,26
 213 243 213 243 230.5 238 c 128,-1,27
 248 233 248 233 272 233 c 0,28,29
 304 233 304 233 331.5 245 c 128,-1,30
 359 257 359 257 378 273 c 1,31,-1
 407 206 l 1,32,33
 379 185 379 185 344 173 c 128,-1,34
 309 161 309 161 264 161 c 0,0,1
EndSplineSet
Substitution2: "Single Substitution lookup 82 subtable" papreformaltgujr
Ligature2: "'half' Half Forms lookup 77 subtable" pagujr viramagujr
EndChar

StartChar: phaprehalfgujr
Encoding: 65596 -1 154
Width: 511
Flags: W
LayerCount: 2
Fore
SplineSet
379 -178 m 2,0,1
 313 -178 313 -178 266 -148 c 128,-1,2
 219 -118 219 -118 184 -69 c 128,-1,3
 149 -20 149 -20 117 38 c 1,4,-1
 96 109 l 1,5,6
 125 93 125 93 148 82.5 c 128,-1,7
 171 72 171 72 196 66.5 c 128,-1,8
 221 61 221 61 257 61 c 0,9,10
 314 61 314 61 342.5 83 c 128,-1,11
 371 105 371 105 371 144 c 0,12,13
 371 163 371 163 361.5 184 c 128,-1,14
 352 205 352 205 325 230 c 128,-1,15
 298 255 298 255 246 285 c 1,16,-1
 219 306 l 2,17,18
 184 329 184 329 157.5 351.5 c 128,-1,19
 131 374 131 374 117 401 c 128,-1,20
 103 428 103 428 103 462 c 0,21,22
 103 524 103 524 150.5 563.5 c 128,-1,23
 198 603 198 603 277 603 c 0,24,25
 309 603 309 603 338 599.5 c 128,-1,26
 367 596 367 596 394 589 c 1,27,-1
 379 517 l 1,28,29
 353 523 353 523 332.5 526 c 128,-1,30
 312 529 312 529 286 529 c 0,31,32
 235 529 235 529 210 509 c 128,-1,33
 185 489 185 489 185 455 c 0,34,35
 185 437 185 437 195 419 c 128,-1,36
 205 401 205 401 227 383.5 c 128,-1,37
 249 366 249 366 285 347 c 1,38,-1
 314 311 l 1,39,40
 365 287 365 287 395.5 260.5 c 128,-1,41
 426 234 426 234 439.5 204 c 128,-1,42
 453 174 453 174 453 138 c 0,43,44
 453 103 453 103 434.5 69 c 128,-1,45
 416 35 416 35 373.5 12.5 c 128,-1,46
 331 -10 331 -10 259 -10 c 0,47,48
 234 -10 234 -10 205 -8 c 128,-1,49
 176 -6 176 -6 153 -4 c 0,50,51
 106 0 106 0 82.5 13.5 c 128,-1,52
 59 27 59 27 51 43.5 c 128,-1,53
 43 60 43 60 43 73 c 0,54,55
 43 96 43 96 58.5 109 c 128,-1,56
 74 122 74 122 96 122 c 0,57,58
 116 122 116 122 133.5 114 c 128,-1,59
 151 106 151 106 167.5 91.5 c 128,-1,60
 184 77 184 77 200 56 c 1,61,-1
 188 48 l 1,62,63
 222 -7 222 -7 251 -40.5 c 128,-1,64
 280 -74 280 -74 310.5 -88.5 c 128,-1,65
 341 -103 341 -103 380 -103 c 2,66,-1
 404 -103 l 1,67,-1
 395 -178 l 1,68,-1
 379 -178 l 2,0,1
65 211 m 1,69,-1
 38 282 l 1,70,-1
 229 350 l 1,71,-1
 256 361 l 1,72,-1
 539 361 l 1,73,-1
 539 291 l 1,74,-1
 447 291 l 2,75,76
 420 291 420 291 384.5 292.5 c 128,-1,77
 349 294 349 294 326 298 c 1,78,-1
 289 297 l 1,79,-1
 65 211 l 1,69,-1
EndSplineSet
Ligature2: "'half' Half Forms lookup 77 subtable" phagujr viramagujr
EndChar

StartChar: baprehalfgujr
Encoding: 65597 -1 155
Width: 549
Flags: W
LayerCount: 2
Fore
SplineSet
233 151 m 0,0,1
 178 151 178 151 135.5 175.5 c 128,-1,2
 93 200 93 200 68.5 246 c 128,-1,3
 44 292 44 292 44 354 c 0,4,5
 44 447 44 447 100 509.5 c 128,-1,6
 156 572 156 572 259 603 c 1,7,-1
 282 531 l 1,8,9
 194 503 194 503 160 457 c 128,-1,10
 126 411 126 411 126 353 c 0,11,12
 126 305 126 305 142 276.5 c 128,-1,13
 158 248 158 248 183 235.5 c 128,-1,14
 208 223 208 223 234 223 c 0,15,16
 262 223 262 223 281.5 232 c 128,-1,17
 301 241 301 241 314 258 c 256,18,19
 327 275 327 275 332 299 c 128,-1,20
 337 323 337 323 337 369 c 2,21,-1
 337 447 l 1,22,-1
 417 437 l 1,23,-1
 417 335 l 2,24,25
 417 256 417 256 372.5 203.5 c 128,-1,26
 328 151 328 151 233 151 c 0,0,1
475 228 m 0,27,28
 435 228 435 228 402.5 250 c 128,-1,29
 370 272 370 272 349 333 c 1,30,-1
 404 357 l 1,31,32
 414 325 414 325 432 312.5 c 128,-1,33
 450 300 450 300 475 300 c 0,34,35
 498 300 498 300 515 307.5 c 128,-1,36
 532 315 532 315 545 326 c 1,37,-1
 574 259 l 1,38,39
 552 244 552 244 531 236 c 128,-1,40
 510 228 510 228 475 228 c 0,27,28
EndSplineSet
Ligature2: "'half' Half Forms lookup 77 subtable" bagujr viramagujr
EndChar

StartChar: bhaprehalfgujr
Encoding: 65598 -1 156
Width: 619
Flags: W
LayerCount: 2
Fore
SplineSet
234 48 m 1,0,1
 180 96 180 96 137.5 146.5 c 128,-1,2
 95 197 95 197 70 255 c 128,-1,3
 45 313 45 313 45 384 c 0,4,5
 45 450 45 450 71.5 499 c 128,-1,6
 98 548 98 548 145.5 575.5 c 128,-1,7
 193 603 193 603 255 603 c 0,8,9
 299 603 299 603 331.5 591 c 128,-1,10
 364 579 364 579 389 556 c 0,11,12
 418 529 418 529 433.5 487.5 c 128,-1,13
 449 446 449 446 449 377 c 2,14,-1
 449 339 l 1,15,-1
 369 339 l 1,16,-1
 369 372 l 2,17,18
 369 416 369 416 362.5 445.5 c 128,-1,19
 356 475 356 475 341 494 c 0,20,21
 328 511 328 511 307 520.5 c 128,-1,22
 286 530 286 530 255 530 c 0,23,24
 209 530 209 530 180.5 508.5 c 128,-1,25
 152 487 152 487 139 453 c 128,-1,26
 126 419 126 419 126 382 c 0,27,28
 126 322 126 322 148 273.5 c 128,-1,29
 170 225 170 225 207.5 183.5 c 128,-1,30
 245 142 245 142 290 102 c 1,31,-1
 234 48 l 1,0,1
403 201 m 0,32,33
 384 201 384 201 363.5 212.5 c 128,-1,34
 343 224 343 224 326.5 242.5 c 128,-1,35
 310 261 310 261 299.5 282.5 c 128,-1,36
 289 304 289 304 289 323 c 0,37,38
 289 340 289 340 302 352.5 c 128,-1,39
 315 365 315 365 345 365 c 2,40,-1
 634 365 l 1,41,-1
 634 293 l 1,42,-1
 449 293 l 1,43,-1
 449 263 l 2,44,45
 449 229 449 229 435 215 c 128,-1,46
 421 201 421 201 403 201 c 0,32,33
EndSplineSet
Ligature2: "'half' Half Forms lookup 77 subtable" bhagujr viramagujr
EndChar

StartChar: maprehalfgujr
Encoding: 65599 -1 157
Width: 405
Flags: W
LayerCount: 2
Fore
SplineSet
166 152 m 0,0,1
 146 152 146 152 126 163.5 c 128,-1,2
 106 175 106 175 89 193.5 c 128,-1,3
 72 212 72 212 61.5 233.5 c 128,-1,4
 51 255 51 255 51 274 c 0,5,6
 51 291 51 291 64 303.5 c 128,-1,7
 77 316 77 316 107 316 c 2,8,-1
 420 316 l 1,9,-1
 420 244 l 1,10,-1
 211 244 l 1,11,-1
 211 215 l 2,12,13
 211 181 211 181 197 166.5 c 128,-1,14
 183 152 183 152 166 152 c 0,0,1
131 300 m 1,15,-1
 131 440 l 2,16,17
 131 468 131 468 128 480 c 128,-1,18
 125 492 125 492 119 500 c 0,19,20
 109 514 109 514 87 517 c 128,-1,21
 65 520 65 520 44 520 c 1,22,-1
 52 592 l 1,23,-1
 63 592 l 2,24,25
 106 592 106 592 134.5 583 c 128,-1,26
 163 574 163 574 180 556 c 0,27,28
 191 545 191 545 198 530 c 128,-1,29
 205 515 205 515 208 494.5 c 128,-1,30
 211 474 211 474 211 444 c 2,31,-1
 211 300 l 1,32,-1
 131 300 l 1,15,-1
EndSplineSet
Substitution2: "Single Substitution lookup 82 subtable" mapreformaltgujr
Ligature2: "'half' Half Forms lookup 77 subtable" magujr viramagujr
EndChar

StartChar: yaprehalfgujr
Encoding: 65600 -1 158
Width: 414
Flags: W
LayerCount: 2
Fore
SplineSet
271 161 m 0,0,1
 214 161 214 161 170 182 c 128,-1,2
 126 203 126 203 94.5 241.5 c 128,-1,3
 63 280 63 280 43 333 c 1,4,5
 103 350 103 350 138.5 378 c 128,-1,6
 174 406 174 406 174 452 c 0,7,8
 174 489 174 489 149.5 510 c 128,-1,9
 125 531 125 531 83 531 c 0,10,11
 65 531 65 531 54.5 529.5 c 128,-1,12
 44 528 44 528 32 526 c 1,13,-1
 14 594 l 1,14,15
 25 597 25 597 42.5 600 c 128,-1,16
 60 603 60 603 88 603 c 0,17,18
 139 603 139 603 176.5 585.5 c 128,-1,19
 214 568 214 568 234.5 534.5 c 128,-1,20
 255 501 255 501 255 453 c 0,21,22
 255 393 255 393 219.5 353 c 128,-1,23
 184 313 184 313 125 290 c 1,24,-1
 142 309 l 1,25,26
 155 279 155 279 188 256 c 128,-1,27
 221 233 221 233 269 233 c 0,28,29
 307 233 307 233 339 245 c 128,-1,30
 371 257 371 257 405 284 c 1,31,-1
 442 220 l 1,32,33
 399 188 399 188 360 174.5 c 128,-1,34
 321 161 321 161 271 161 c 0,0,1
EndSplineSet
Ligature2: "'half' Half Forms lookup 77 subtable" yagujr viramagujr
EndChar

StartChar: laprehalfgujr
Encoding: 65602 -1 160
Width: 463
Flags: W
LayerCount: 2
Fore
SplineSet
279 105 m 0,0,1
 208 105 208 105 155 133 c 128,-1,2
 102 161 102 161 73 213 c 128,-1,3
 44 265 44 265 44 337 c 0,4,5
 44 404 44 404 74 457.5 c 128,-1,6
 104 511 104 511 161 548 c 128,-1,7
 218 585 218 585 299 603 c 1,8,-1
 319 528 l 1,9,10
 226 509 226 509 176 462.5 c 128,-1,11
 126 416 126 416 126 333 c 0,12,13
 126 255 126 255 169 217 c 128,-1,14
 212 179 212 179 276 179 c 0,15,16
 308 179 308 179 333 184 c 128,-1,17
 358 189 358 189 380 199 c 1,18,-1
 411 132 l 1,19,20
 384 119 384 119 350.5 112 c 128,-1,21
 317 105 317 105 279 105 c 0,0,1
244 304 m 1,22,-1
 226 377 l 1,23,-1
 470 426 l 1,24,-1
 485 353 l 1,25,-1
 244 304 l 1,22,-1
EndSplineSet
Ligature2: "'half' Half Forms lookup 77 subtable" lagujr viramagujr
EndChar

StartChar: llaprehalfgujr
Encoding: 65603 -1 161
Width: 542
Flags: W
LayerCount: 2
Fore
SplineSet
242 141 m 0,0,1
 185 141 185 141 140 166 c 128,-1,2
 95 191 95 191 69.5 239 c 128,-1,3
 44 287 44 287 44 354 c 0,4,5
 44 413 44 413 68.5 461 c 128,-1,6
 93 509 93 509 141 545 c 128,-1,7
 189 581 189 581 259 603 c 1,8,-1
 282 530 l 1,9,10
 195 501 195 501 160.5 454.5 c 128,-1,11
 126 408 126 408 126 350 c 0,12,13
 126 299 126 299 142.5 269 c 128,-1,14
 159 239 159 239 185.5 226 c 128,-1,15
 212 213 212 213 241 213 c 0,16,17
 271 213 271 213 291.5 222 c 128,-1,18
 312 231 312 231 325 246 c 0,19,20
 339 263 339 263 345 287 c 128,-1,21
 351 311 351 311 351 356 c 2,22,-1
 351 372 l 2,23,24
 351 431 351 431 364 460 c 128,-1,25
 377 489 377 489 400 508 c 0,26,27
 420 525 420 525 444.5 532.5 c 128,-1,28
 469 540 469 540 498 540 c 0,29,30
 520 540 520 540 534.5 537 c 128,-1,31
 549 534 549 534 562 529 c 1,32,-1
 542 460 l 1,33,34
 533 464 533 464 522 466.5 c 128,-1,35
 511 469 511 469 500 469 c 0,36,37
 485 469 485 469 474 464.5 c 128,-1,38
 463 460 463 460 455 453 c 0,39,40
 442 443 442 443 436.5 420 c 128,-1,41
 431 397 431 397 431 368 c 2,42,-1
 431 363 l 2,43,44
 431 314 431 314 422 267.5 c 128,-1,45
 413 221 413 221 378 188 c 0,46,47
 356 167 356 167 323 154 c 128,-1,48
 290 141 290 141 242 141 c 0,0,1
EndSplineSet
Ligature2: "'half' Half Forms lookup 77 subtable" llagujr viramagujr
EndChar

StartChar: vaprehalfgujr
Encoding: 65604 -1 162
Width: 413
Flags: W
LayerCount: 2
Fore
SplineSet
244 161 m 0,0,1
 185 161 185 161 140 183 c 128,-1,2
 95 205 95 205 69.5 246.5 c 128,-1,3
 44 288 44 288 44 345 c 0,4,5
 44 408 44 408 72.5 451 c 128,-1,6
 101 494 101 494 150.5 516.5 c 128,-1,7
 200 539 200 539 263 539 c 0,8,9
 285 539 285 539 313 536 c 128,-1,10
 341 533 341 533 359 528 c 1,11,-1
 346 458 l 1,12,13
 329 461 329 461 310 463.5 c 128,-1,14
 291 466 291 466 266 466 c 0,15,16
 199 466 199 466 162 435 c 128,-1,17
 125 404 125 404 125 346 c 256,18,19
 125 288 125 288 159 260.5 c 128,-1,20
 193 233 193 233 243 233 c 0,21,22
 300 233 300 233 332.5 251.5 c 128,-1,23
 365 270 365 270 396 295 c 1,24,-1
 436 233 l 1,25,26
 396 202 396 202 353.5 181.5 c 128,-1,27
 311 161 311 161 244 161 c 0,0,1
EndSplineSet
Ligature2: "'half' Half Forms lookup 77 subtable" vagujr viramagujr
EndChar

StartChar: shaprehalfgujr
Encoding: 65605 -1 163
Width: 436
Flags: W
LayerCount: 2
Fore
SplineSet
387 0 m 2,0,1
 342 0 342 0 303 19.5 c 128,-1,2
 264 39 264 39 231 71 c 128,-1,3
 198 103 198 103 170 141.5 c 128,-1,4
 142 180 142 180 118 219 c 1,5,-1
 126 254 l 1,6,7
 186 262 186 262 228 282 c 128,-1,8
 270 302 270 302 292 335.5 c 128,-1,9
 314 369 314 369 314 417 c 0,10,11
 314 460 314 460 298.5 485 c 128,-1,12
 283 510 283 510 260 520.5 c 128,-1,13
 237 531 237 531 212 531 c 0,14,15
 175 531 175 531 159.5 515 c 128,-1,16
 144 499 144 499 144 482 c 256,17,18
 144 465 144 465 152.5 449.5 c 128,-1,19
 161 434 161 434 186 421.5 c 128,-1,20
 211 409 211 409 258 399 c 1,21,-1
 232 332 l 1,22,23
 149 352 149 352 107.5 388.5 c 128,-1,24
 66 425 66 425 66 484 c 0,25,26
 66 514 66 514 82 541 c 128,-1,27
 98 568 98 568 131 585 c 128,-1,28
 164 602 164 602 214 602 c 0,29,30
 260 602 260 602 301.5 581.5 c 128,-1,31
 343 561 343 561 369.5 519 c 128,-1,32
 396 477 396 477 396 413 c 0,33,34
 396 361 396 361 374 318.5 c 128,-1,35
 352 276 352 276 313.5 246 c 128,-1,36
 275 216 275 216 227 199.5 c 128,-1,37
 179 183 179 183 126 183 c 0,38,39
 95 183 95 183 73.5 189.5 c 128,-1,40
 52 196 52 196 41.5 209.5 c 128,-1,41
 31 223 31 223 31 244 c 0,42,43
 31 267 31 267 48 280.5 c 128,-1,44
 65 294 65 294 91 294 c 256,45,46
 117 294 117 294 142 284 c 128,-1,47
 167 274 167 274 201 241 c 1,48,-1
 188 240 l 1,49,50
 223 190 223 190 254.5 152.5 c 128,-1,51
 286 115 286 115 320.5 95 c 128,-1,52
 355 75 355 75 398 75 c 2,53,-1
 411 75 l 1,54,-1
 402 0 l 1,55,-1
 387 0 l 2,0,1
EndSplineSet
Substitution2: "Single Substitution lookup 82 subtable" shapreformaltgujr
Ligature2: "'half' Half Forms lookup 77 subtable" shagujr viramagujr
EndChar

StartChar: ssaprehalfgujr
Encoding: 65606 -1 164
Width: 429
Flags: W
LayerCount: 2
Fore
SplineSet
264 162 m 0,0,1
 225 162 225 162 194 174 c 128,-1,2
 163 186 163 186 143 205 c 0,3,4
 118 230 118 230 105.5 263 c 128,-1,5
 93 296 93 296 93 351 c 2,6,-1
 93 453 l 2,7,8
 93 472 93 472 91.5 483 c 128,-1,9
 90 494 90 494 84 502 c 0,10,11
 76 513 76 513 59 516.5 c 128,-1,12
 42 520 42 520 6 520 c 1,13,-1
 14 593 l 1,14,-1
 21 593 l 2,15,16
 56 593 56 593 77 589 c 128,-1,17
 98 585 98 585 114.5 575.5 c 128,-1,18
 131 566 131 566 152 550 c 2,19,-1
 340 410 l 2,20,21
 364 393 364 393 382.5 377.5 c 128,-1,22
 401 362 401 362 417 347.5 c 128,-1,23
 433 333 433 333 449 318 c 1,24,-1
 449 236 l 1,25,26
 400 197 400 197 359.5 179.5 c 128,-1,27
 319 162 319 162 264 162 c 0,0,1
272 234 m 0,28,29
 307 234 307 234 340 249 c 128,-1,30
 373 264 373 264 399 287 c 1,31,-1
 272 381 l 2,32,33
 248 399 248 399 229.5 413 c 128,-1,34
 211 427 211 427 192 444 c 128,-1,35
 173 461 173 461 148 484 c 1,36,-1
 166 478 l 1,37,38
 170 459 170 459 171.5 437 c 128,-1,39
 173 415 173 415 173 389 c 2,40,-1
 173 358 l 2,41,42
 173 312 173 312 181 289.5 c 128,-1,43
 189 267 189 267 202 254 c 0,44,45
 213 244 213 244 230.5 239 c 128,-1,46
 248 234 248 234 272 234 c 0,28,29
EndSplineSet
Ligature2: "'half' Half Forms lookup 77 subtable" ssagujr viramagujr
EndChar

StartChar: saprehalfgujr
Encoding: 65607 -1 165
Width: 529
Flags: W
LayerCount: 2
Fore
SplineSet
413 0 m 2,0,1
 357 0 357 0 312.5 20.5 c 128,-1,2
 268 41 268 41 232.5 74 c 128,-1,3
 197 107 197 107 168.5 146.5 c 128,-1,4
 140 186 140 186 116 225 c 1,5,-1
 127 265 l 1,6,7
 170 270 170 270 209.5 287.5 c 128,-1,8
 249 305 249 305 274.5 337 c 128,-1,9
 300 369 300 369 300 416 c 0,10,11
 300 472 300 472 268 501 c 128,-1,12
 236 530 236 530 183 530 c 0,13,14
 149 530 149 530 119.5 523 c 128,-1,15
 90 516 90 516 55 499 c 1,16,-1
 29 568 l 1,17,18
 66 584 66 584 106 593.5 c 128,-1,19
 146 603 146 603 186 603 c 0,20,21
 245 603 245 603 288.5 582 c 128,-1,22
 332 561 332 561 356.5 520 c 128,-1,23
 381 479 381 479 381 418 c 0,24,25
 381 364 381 364 358.5 321.5 c 128,-1,26
 336 279 336 279 298.5 249 c 128,-1,27
 261 219 261 219 214.5 203.5 c 128,-1,28
 168 188 168 188 121 188 c 0,29,30
 75 188 75 188 52 202.5 c 128,-1,31
 29 217 29 217 29 249 c 0,32,33
 29 274 29 274 46 287.5 c 128,-1,34
 63 301 63 301 90 301 c 0,35,36
 116 301 116 301 140.5 290 c 128,-1,37
 165 279 165 279 199 246 c 1,38,-1
 186 246 l 1,39,40
 233 178 233 178 269.5 140.5 c 128,-1,41
 306 103 306 103 342 89 c 128,-1,42
 378 75 378 75 422 75 c 2,43,-1
 436 75 l 1,44,-1
 427 0 l 1,45,-1
 413 0 l 2,0,1
435 286 m 0,46,47
 402 286 402 286 370.5 294 c 128,-1,48
 339 302 339 302 316 318 c 1,49,-1
 325 390 l 1,50,51
 346 377 346 377 373.5 367.5 c 128,-1,52
 401 358 401 358 432 358 c 256,53,54
 463 358 463 358 488.5 365 c 128,-1,55
 514 372 514 372 529 382 c 1,56,-1
 550 312 l 1,57,58
 523 296 523 296 494 291 c 128,-1,59
 465 286 465 286 435 286 c 0,46,47
EndSplineSet
Substitution2: "Single Substitution lookup 82 subtable" sapreformaltgujr
Ligature2: "'half' Half Forms lookup 77 subtable" sagujr viramagujr
EndChar

StartChar: haprehalfgujr
Encoding: 65608 -1 166
Width: 451
Flags: W
LayerCount: 2
Fore
SplineSet
251 -133 m 1,0,1
 178 -99 178 -99 134 -53.5 c 128,-1,2
 90 -8 90 -8 70.5 42.5 c 128,-1,3
 51 93 51 93 51 142 c 0,4,5
 51 219 51 219 89 273.5 c 128,-1,6
 127 328 127 328 191 356.5 c 128,-1,7
 255 385 255 385 333 385 c 0,8,9
 359 385 359 385 402.5 381.5 c 128,-1,10
 446 378 446 378 487 363 c 1,11,-1
 459 293 l 1,12,13
 425 306 425 306 393 309.5 c 128,-1,14
 361 313 361 313 329 313 c 0,15,16
 267 313 267 313 223 290.5 c 128,-1,17
 179 268 179 268 156 229 c 128,-1,18
 133 190 133 190 133 139 c 0,19,20
 133 62 133 62 177.5 13 c 128,-1,21
 222 -36 222 -36 292 -68 c 1,22,-1
 251 -133 l 1,0,1
190 308 m 1,23,24
 153 334 153 334 128 370 c 128,-1,25
 103 406 103 406 103 457 c 0,26,27
 103 495 103 495 122.5 528 c 128,-1,28
 142 561 142 561 182.5 582 c 128,-1,29
 223 603 223 603 286 603 c 0,30,31
 314 603 314 603 342 599 c 128,-1,32
 370 595 370 595 387 590 c 1,33,-1
 373 519 l 1,34,35
 357 523 357 523 335 526 c 128,-1,36
 313 529 313 529 290 529 c 0,37,38
 232 529 232 529 207.5 506 c 128,-1,39
 183 483 183 483 183 451 c 0,40,41
 183 418 183 418 204.5 390.5 c 128,-1,42
 226 363 226 363 279 338 c 1,43,-1
 190 308 l 1,23,24
EndSplineSet
Ligature2: "'half' Half Forms lookup 77 subtable" hagujr viramagujr
EndChar

StartChar: zhaprehalfgujr
Encoding: 65609 -1 167
Width: 811
Flags: W
LayerCount: 2
Fore
SplineSet
213 103 m 0,0,1
 193 103 193 103 179 118 c 128,-1,2
 165 133 165 133 165 155 c 256,3,4
 165 177 165 177 179 192 c 128,-1,5
 193 207 193 207 213 207 c 0,6,7
 235 207 235 207 249.5 192 c 128,-1,8
 264 177 264 177 264 155 c 256,9,10
 264 133 264 133 249.5 118 c 128,-1,11
 235 103 235 103 213 103 c 0,0,1
124 -13 m 256,12,13
 104 -13 104 -13 89.5 2.5 c 128,-1,14
 75 18 75 18 75 39 c 0,15,16
 75 61 75 61 89.5 76.5 c 128,-1,17
 104 92 104 92 124 92 c 256,18,19
 144 92 144 92 158.5 76.5 c 128,-1,20
 173 61 173 61 173 39 c 0,21,22
 173 18 173 18 158.5 2.5 c 128,-1,23
 144 -13 144 -13 124 -13 c 256,12,13
272 -38 m 0,24,25
 253 -38 253 -38 238 -22.5 c 128,-1,26
 223 -7 223 -7 223 15 c 0,27,28
 223 36 223 36 238 51.5 c 128,-1,29
 253 67 253 67 272 67 c 0,30,31
 292 67 292 67 307 51.5 c 128,-1,32
 322 36 322 36 322 15 c 0,33,34
 322 -7 322 -7 307 -22.5 c 128,-1,35
 292 -38 292 -38 272 -38 c 0,24,25
548 -10 m 0,36,37
 485 -10 485 -10 446 15 c 128,-1,38
 407 40 407 40 389.5 80.5 c 128,-1,39
 372 121 372 121 372 167 c 0,40,41
 372 228 372 228 399.5 274 c 128,-1,42
 427 320 427 320 473 351.5 c 128,-1,43
 519 383 519 383 576 402 c 2,44,-1
 599 411 l 1,45,46
 632 419 632 419 670.5 423.5 c 128,-1,47
 709 428 709 428 742 428 c 2,48,-1
 830 428 l 1,49,-1
 830 355 l 1,50,-1
 748 355 l 2,51,52
 721 355 721 355 688.5 353 c 128,-1,53
 656 351 656 351 624 342 c 0,54,55
 577 332 577 332 538.5 309.5 c 128,-1,56
 500 287 500 287 477 251.5 c 128,-1,57
 454 216 454 216 454 167 c 0,58,59
 454 117 454 117 476 90 c 128,-1,60
 498 63 498 63 546 63 c 0,61,62
 589 63 589 63 614 88.5 c 128,-1,63
 639 114 639 114 639 170 c 0,64,65
 639 232 639 232 615.5 284 c 128,-1,66
 592 336 592 336 550 382 c 0,67,68
 510 429 510 429 462.5 463 c 128,-1,69
 415 497 415 497 358.5 515 c 128,-1,70
 302 533 302 533 234 533 c 0,71,72
 169 533 169 533 141 501.5 c 128,-1,73
 113 470 113 470 113 429 c 0,74,75
 113 386 113 386 135 364.5 c 128,-1,76
 157 343 157 343 191 343 c 0,77,78
 237 343 237 343 256.5 367 c 128,-1,79
 276 391 276 391 276 434 c 0,80,81
 276 466 276 466 265.5 494 c 128,-1,82
 255 522 255 522 236 544 c 1,83,-1
 307 555 l 1,84,85
 326 533 326 533 341 502 c 128,-1,86
 356 471 356 471 356 428 c 0,87,88
 356 400 356 400 347.5 371.5 c 128,-1,89
 339 343 339 343 320 320.5 c 128,-1,90
 301 298 301 298 269.5 284 c 128,-1,91
 238 270 238 270 191 270 c 0,92,93
 140 270 140 270 105 291.5 c 128,-1,94
 70 313 70 313 51.5 349.5 c 128,-1,95
 33 386 33 386 33 430 c 0,96,97
 33 478 33 478 57 517 c 128,-1,98
 81 556 81 556 127 579.5 c 128,-1,99
 173 603 173 603 240 603 c 0,100,101
 315 603 315 603 385.5 580.5 c 128,-1,102
 456 558 456 558 520 511.5 c 128,-1,103
 584 465 584 465 639 392 c 1,104,-1
 651 370 l 1,105,106
 678 333 678 333 699.5 282.5 c 128,-1,107
 721 232 721 232 721 169 c 0,108,109
 721 84 721 84 674.5 37 c 128,-1,110
 628 -10 628 -10 548 -10 c 0,36,37
EndSplineSet
Ligature2: "'half' Half Forms lookup 77 subtable" zhagujr viramagujr
EndChar

StartChar: kassaprehalfgujr
Encoding: 65610 -1 168
Width: 483
Flags: W
LayerCount: 2
Fore
SplineSet
243 39 m 0,0,1
 182 39 182 39 137.5 59 c 128,-1,2
 93 79 93 79 69.5 113 c 128,-1,3
 46 147 46 147 46 189 c 0,4,5
 46 225 46 225 60.5 252.5 c 128,-1,6
 75 280 75 280 100.5 301.5 c 128,-1,7
 126 323 126 323 160 341 c 1,8,9
 118 366 118 366 95.5 400 c 128,-1,10
 73 434 73 434 73 474 c 0,11,12
 73 512 73 512 92 541 c 128,-1,13
 111 570 111 570 146 586.5 c 128,-1,14
 181 603 181 603 229 603 c 0,15,16
 294 603 294 603 338.5 572.5 c 128,-1,17
 383 542 383 542 383 484 c 0,18,19
 383 451 383 451 368.5 425 c 128,-1,20
 354 399 354 399 329.5 378 c 128,-1,21
 305 357 305 357 276 339 c 1,22,-1
 276 360 l 1,23,24
 298 353 298 353 325 350 c 128,-1,25
 352 347 352 347 387 347 c 0,26,27
 408 347 408 347 437 350 c 128,-1,28
 466 353 466 353 496 363 c 1,29,-1
 516 294 l 1,30,31
 487 284 487 284 452.5 279 c 128,-1,32
 418 274 418 274 384 274 c 0,33,34
 338 274 338 274 298 282 c 128,-1,35
 258 290 258 290 224 304 c 1,36,37
 191 286 191 286 170 269.5 c 128,-1,38
 149 253 149 253 138.5 235 c 128,-1,39
 128 217 128 217 128 193 c 0,40,41
 128 174 128 174 138 155 c 128,-1,42
 148 136 148 136 174 123.5 c 128,-1,43
 200 111 200 111 247 111 c 0,44,45
 266 111 266 111 280 115 c 128,-1,46
 294 119 294 119 306 126 c 1,47,-1
 293 109 l 1,48,49
 289 115 289 115 287 123.5 c 128,-1,50
 285 132 285 132 285 141 c 0,51,52
 285 167 285 167 301 181 c 128,-1,53
 317 195 317 195 342 195 c 0,54,55
 371 195 371 195 386 177.5 c 128,-1,56
 401 160 401 160 401 137 c 0,57,58
 401 108 401 108 381 86 c 128,-1,59
 361 64 361 64 325.5 51.5 c 128,-1,60
 290 39 290 39 243 39 c 0,0,1
459 -43 m 2,61,62
 411 -43 411 -43 378.5 -22.5 c 128,-1,63
 346 -2 346 -2 325.5 32 c 128,-1,64
 305 66 305 66 292 104 c 1,65,-1
 367 125 l 1,66,67
 378 91 378 91 390 69.5 c 128,-1,68
 402 48 402 48 422 38 c 128,-1,69
 442 28 442 28 473 28 c 2,70,-1
 481 28 l 1,71,-1
 473 -43 l 1,72,-1
 459 -43 l 2,61,62
227 380 m 1,73,74
 248 392 248 392 265.5 406 c 128,-1,75
 283 420 283 420 293 437.5 c 128,-1,76
 303 455 303 455 303 474 c 0,77,78
 303 499 303 499 285 516 c 128,-1,79
 267 533 267 533 229 533 c 0,80,81
 193 533 193 533 173 516.5 c 128,-1,82
 153 500 153 500 153 471 c 0,83,84
 153 443 153 443 173.5 419.5 c 128,-1,85
 194 396 194 396 227 380 c 1,73,74
EndSplineSet
Ligature2: "'half' Half Forms lookup 77 subtable" kassagujr viramagujr
EndChar

StartChar: janyaprehalfgujr
Encoding: 65611 -1 169
Width: 481
Flags: W
LayerCount: 2
Fore
SplineSet
328 -43 m 2,0,1
 273 -43 273 -43 233 -24 c 128,-1,2
 193 -5 193 -5 162 29.5 c 128,-1,3
 131 64 131 64 103 109 c 1,4,-1
 158 145 l 1,5,6
 174 142 174 142 187 140.5 c 128,-1,7
 200 139 200 139 210 139 c 0,8,9
 270 139 270 139 299 158.5 c 128,-1,10
 328 178 328 178 328 210 c 0,11,12
 328 237 328 237 315.5 252 c 128,-1,13
 303 267 303 267 279.5 275.5 c 128,-1,14
 256 284 256 284 221 291 c 0,15,16
 173 301 173 301 135 318.5 c 128,-1,17
 97 336 97 336 75 366 c 128,-1,18
 53 396 53 396 53 443 c 0,19,20
 53 479 53 479 70 508.5 c 128,-1,21
 87 538 87 538 120.5 555 c 128,-1,22
 154 572 154 572 203 572 c 0,23,24
 251 572 251 572 283.5 558 c 128,-1,25
 316 544 316 544 342.5 525.5 c 128,-1,26
 369 507 369 507 398.5 493 c 128,-1,27
 428 479 428 479 469 479 c 0,28,29
 484 479 484 479 495.5 480.5 c 128,-1,30
 507 482 507 482 515 484 c 1,31,-1
 515 410 l 1,32,33
 505 408 505 408 493.5 407 c 128,-1,34
 482 406 482 406 467 406 c 0,35,36
 416 406 416 406 380 420 c 128,-1,37
 344 434 344 434 316 453 c 128,-1,38
 288 472 288 472 261 486 c 128,-1,39
 234 500 234 500 202 500 c 0,40,41
 169 500 169 500 152 483.5 c 128,-1,42
 135 467 135 467 135 441 c 0,43,44
 135 408 135 408 162.5 391 c 128,-1,45
 190 374 190 374 251 363 c 0,46,47
 322 350 322 350 366 318 c 128,-1,48
 410 286 410 286 410 218 c 0,49,50
 410 172 410 172 390.5 142.5 c 128,-1,51
 371 113 371 113 340 97 c 128,-1,52
 309 81 309 81 272.5 75 c 128,-1,53
 236 69 236 69 203 69 c 0,54,55
 146 69 146 69 109 77 c 128,-1,56
 72 85 72 85 54 102 c 128,-1,57
 36 119 36 119 36 144 c 0,58,59
 36 161 36 161 49 176.5 c 128,-1,60
 62 192 62 192 88 192 c 0,61,62
 118 192 118 192 143 175.5 c 128,-1,63
 168 159 168 159 192 127 c 1,64,-1
 171 130 l 1,65,66
 203 83 203 83 228.5 62 c 128,-1,67
 254 41 254 41 280 36.5 c 128,-1,68
 306 32 306 32 339 32 c 2,69,-1
 352 32 l 1,70,-1
 343 -43 l 1,71,-1
 328 -43 l 2,0,1
EndSplineSet
Ligature2: "'half' Half Forms lookup 77 subtable" janyagujr viramagujr
EndChar

StartChar: karagujr
Encoding: 65646 -1 204
Width: 517
GlyphClass: 2
Flags: W
AnchorPoint: "Anchor-3" 227 603 basechar 0
AnchorPoint: "Anchor-1" 283 0 basechar 0
AnchorPoint: "Anchor-0" 326 603 basechar 0
LayerCount: 2
Fore
SplineSet
266 -10 m 0,0,1
 186 -10 186 -10 125 14.5 c 128,-1,2
 64 39 64 39 18 73 c 1,3,-1
 63 135 l 1,4,5
 114 97 114 97 162.5 80 c 128,-1,6
 211 63 211 63 262 63 c 0,7,8
 326 63 326 63 354.5 84 c 128,-1,9
 383 105 383 105 383 144 c 0,10,11
 383 163 383 163 373.5 183 c 128,-1,12
 364 203 364 203 337.5 228.5 c 128,-1,13
 311 254 311 254 258 287 c 2,14,-1
 231 306 l 2,15,16
 199 327 199 327 172.5 350 c 128,-1,17
 146 373 146 373 130.5 400.5 c 128,-1,18
 115 428 115 428 115 462 c 0,19,20
 115 524 115 524 162.5 563.5 c 128,-1,21
 210 603 210 603 290 603 c 0,22,23
 322 603 322 603 350.5 599.5 c 128,-1,24
 379 596 379 596 406 589 c 1,25,-1
 391 517 l 1,26,27
 365 523 365 523 344.5 526 c 128,-1,28
 324 529 324 529 298 529 c 0,29,30
 247 529 247 529 222 509 c 128,-1,31
 197 489 197 489 197 455 c 0,32,33
 197 437 197 437 207 419 c 128,-1,34
 217 401 217 401 239 383.5 c 128,-1,35
 261 366 261 366 297 347 c 1,36,-1
 322 327 l 1,37,38
 371 298 371 298 402.5 270 c 128,-1,39
 434 242 434 242 449.5 211 c 128,-1,40
 465 180 465 180 465 142 c 0,41,42
 465 105 465 105 446.5 70 c 128,-1,43
 428 35 428 35 384.5 12.5 c 128,-1,44
 341 -10 341 -10 266 -10 c 0,0,1
187 112 m 1,45,-1
 122 155 l 1,46,-1
 265 324 l 1,47,-1
 314 284 l 1,48,-1
 187 112 l 1,45,-1
54 237 m 1,49,-1
 32 310 l 1,50,-1
 223 362 l 1,51,-1
 476 439 l 1,52,-1
 502 369 l 1,53,-1
 275 311 l 1,54,-1
 261 307 l 1,55,-1
 54 237 l 1,49,-1
EndSplineSet
Ligature2: "'rkrf' Rakar Forms lookup 75 subtable" kagujr viramagujr ragujr
EndChar

StartChar: kharagujr
Encoding: 65647 -1 205
Width: 746
Flags: W
LayerCount: 2
Fore
SplineSet
261 161 m 0,0,1
 221 161 221 161 191 171.5 c 128,-1,2
 161 182 161 182 140 203 c 0,3,4
 115 228 115 228 104 260.5 c 128,-1,5
 93 293 93 293 93 351 c 2,6,-1
 93 440 l 2,7,8
 93 467 93 467 90 479.5 c 128,-1,9
 87 492 87 492 81 500 c 0,10,11
 71 514 71 514 49 516.5 c 128,-1,12
 27 519 27 519 6 519 c 1,13,-1
 14 592 l 1,14,-1
 24 592 l 2,15,16
 68 592 68 592 96.5 582.5 c 128,-1,17
 125 573 125 573 142 555 c 0,18,19
 153 544 153 544 160 529 c 128,-1,20
 167 514 167 514 170 493.5 c 128,-1,21
 173 473 173 473 173 443 c 2,22,-1
 173 351 l 2,23,24
 173 311 173 311 179.5 289 c 128,-1,25
 186 267 186 267 200 253 c 0,26,27
 211 243 211 243 226 238 c 128,-1,28
 241 233 241 233 262 233 c 0,29,30
 282 233 282 233 298.5 239 c 128,-1,31
 315 245 315 245 327 258 c 0,32,33
 338 270 338 270 343.5 290 c 128,-1,34
 349 310 349 310 349 351 c 2,35,-1
 349 481 l 1,36,-1
 429 471 l 1,37,-1
 429 326 l 2,38,39
 429 278 429 278 407.5 240.5 c 128,-1,40
 386 203 386 203 348.5 182 c 128,-1,41
 311 161 311 161 261 161 c 0,0,1
348 -8 m 1,42,-1
 300 60 l 1,43,-1
 571 220 l 1,44,-1
 591 232 l 1,45,-1
 631 177 l 1,46,-1
 348 -8 l 1,42,-1
486 267 m 0,47,48
 447 267 447 267 414.5 289 c 128,-1,49
 382 311 382 311 360 372 c 1,50,-1
 418 395 l 1,51,52
 426 363 426 363 444 351 c 128,-1,53
 462 339 462 339 486 339 c 0,54,55
 523 339 523 339 548.5 357 c 128,-1,56
 574 375 574 375 597 409 c 1,57,-1
 614 330 l 1,58,59
 588 300 588 300 559.5 283.5 c 128,-1,60
 531 267 531 267 486 267 c 0,47,48
720 0 m 2,61,62
 677 0 677 0 648.5 10 c 128,-1,63
 620 20 620 20 603 37 c 256,64,65
 586 54 586 54 578.5 79 c 128,-1,66
 571 104 571 104 571 148 c 2,67,-1
 571 603 l 1,68,-1
 651 592 l 1,69,-1
 651 152 l 2,70,71
 651 125 651 125 654.5 113 c 128,-1,72
 658 101 658 101 664 92 c 0,73,74
 674 78 674 78 695.5 75.5 c 128,-1,75
 717 73 717 73 738 73 c 1,76,-1
 730 0 l 1,77,-1
 720 0 l 2,61,62
EndSplineSet
Ligature2: "'rkrf' Rakar Forms lookup 75 subtable" khagujr viramagujr ragujr
Substitution2: "Single Substitution lookup 65 subtable" kharastemgujr
EndChar

StartChar: garagujr
Encoding: 65648 -1 206
Width: 654
Flags: W
LayerCount: 2
Fore
SplineSet
210 178 m 0,0,1
 173 178 173 178 138.5 190.5 c 128,-1,2
 104 203 104 203 72.5 230.5 c 128,-1,3
 41 258 41 258 11 303 c 1,4,-1
 74 346 l 1,5,6
 108 295 108 295 138 273 c 128,-1,7
 168 251 168 251 206 251 c 0,8,9
 247 251 247 251 273 282 c 128,-1,10
 299 313 299 313 299 384 c 0,11,12
 299 461 299 461 269.5 495.5 c 128,-1,13
 240 530 240 530 188 530 c 0,14,15
 157 530 157 530 129 522.5 c 128,-1,16
 101 515 101 515 79 503 c 1,17,-1
 54 570 l 1,18,19
 87 587 87 587 123.5 595 c 128,-1,20
 160 603 160 603 192 603 c 0,21,22
 248 603 248 603 290 579.5 c 128,-1,23
 332 556 332 556 356 507.5 c 128,-1,24
 380 459 380 459 380 383 c 0,25,26
 380 319 380 319 364.5 279 c 128,-1,27
 349 239 349 239 324 217 c 128,-1,28
 299 195 299 195 269 186.5 c 128,-1,29
 239 178 239 178 210 178 c 0,0,1
257 -7 m 1,30,-1
 208 60 l 1,31,-1
 479 220 l 1,32,-1
 499 232 l 1,33,-1
 539 177 l 1,34,-1
 257 -7 l 1,30,-1
627 0 m 2,35,36
 584 0 584 0 555.5 9.5 c 128,-1,37
 527 19 527 19 510 37 c 0,38,39
 494 54 494 54 486.5 79 c 128,-1,40
 479 104 479 104 479 148 c 2,41,-1
 479 603 l 1,42,-1
 559 592 l 1,43,-1
 559 152 l 2,44,45
 559 125 559 125 562 112.5 c 128,-1,46
 565 100 565 100 571 92 c 0,47,48
 582 78 582 78 603.5 75.5 c 128,-1,49
 625 73 625 73 646 73 c 1,50,-1
 638 0 l 1,51,-1
 627 0 l 2,35,36
EndSplineSet
Ligature2: "'rkrf' Rakar Forms lookup 75 subtable" gagujr viramagujr ragujr
Substitution2: "Single Substitution lookup 65 subtable" garastemgujr
EndChar

StartChar: gharagujr
Encoding: 65649 -1 207
Width: 621
Flags: W
LayerCount: 2
Fore
SplineSet
263 114 m 0,0,1
 207 114 207 114 166.5 132 c 128,-1,2
 126 150 126 150 104.5 183 c 128,-1,3
 83 216 83 216 83 261 c 0,4,5
 83 303 83 303 102 337 c 128,-1,6
 121 371 121 371 160 391 c 128,-1,7
 199 411 199 411 259 411 c 0,8,9
 273 411 273 411 291 409 c 128,-1,10
 309 407 309 407 320 405 c 1,11,-1
 308 333 l 1,12,13
 301 335 301 335 287 336.5 c 128,-1,14
 273 338 273 338 257 338 c 0,15,16
 217 338 217 338 190.5 320.5 c 128,-1,17
 164 303 164 303 164 264 c 0,18,19
 164 222 164 222 194.5 200.5 c 128,-1,20
 225 179 225 179 274 179 c 0,21,22
 330 179 330 179 372 201 c 128,-1,23
 414 223 414 223 450 259 c 1,24,-1
 453 176 l 1,25,26
 421 152 421 152 376.5 133 c 128,-1,27
 332 114 332 114 263 114 c 0,0,1
155 -47 m 1,28,-1
 105 22 l 1,29,-1
 351 170 l 1,30,-1
 373 195 l 1,31,-1
 460 177 l 1,32,-1
 155 -47 l 1,28,-1
166 323 m 1,33,34
 134 340 134 340 106 361 c 128,-1,35
 78 382 78 382 61 410.5 c 128,-1,36
 44 439 44 439 44 478 c 0,37,38
 44 511 44 511 62.5 539.5 c 128,-1,39
 81 568 81 568 118 585.5 c 128,-1,40
 155 603 155 603 210 603 c 0,41,42
 231 603 231 603 258 600 c 128,-1,43
 285 597 285 597 304 592 c 1,44,-1
 290 521 l 1,45,46
 275 525 275 525 255.5 527.5 c 128,-1,47
 236 530 236 530 219 530 c 0,48,49
 170 530 170 530 147.5 513.5 c 128,-1,50
 125 497 125 497 125 470 c 0,51,52
 125 441 125 441 146.5 417.5 c 128,-1,53
 168 394 168 394 220 374 c 1,54,-1
 166 323 l 1,33,34
594 0 m 2,55,56
 551 0 551 0 522.5 9.5 c 128,-1,57
 494 19 494 19 477 37 c 0,58,59
 461 54 461 54 453.5 79 c 128,-1,60
 446 104 446 104 446 148 c 2,61,-1
 446 603 l 1,62,-1
 526 592 l 1,63,-1
 526 152 l 2,64,65
 526 125 526 125 529 112.5 c 128,-1,66
 532 100 532 100 538 92 c 0,67,68
 549 78 549 78 570 75.5 c 128,-1,69
 591 73 591 73 612 73 c 1,70,-1
 604 0 l 1,71,-1
 594 0 l 2,55,56
EndSplineSet
Ligature2: "'rkrf' Rakar Forms lookup 75 subtable" ghagujr viramagujr ragujr
Substitution2: "Single Substitution lookup 65 subtable" gharastemgujr
EndChar

StartChar: caragujr
Encoding: 65651 -1 209
Width: 661
Flags: W
LayerCount: 2
Fore
SplineSet
318 138 m 0,0,1
 278 138 278 138 242 148.5 c 128,-1,2
 206 159 206 159 175 182.5 c 128,-1,3
 144 206 144 206 119 245 c 1,4,-1
 129 298 l 1,5,-1
 138 303 l 1,6,7
 194 311 194 311 233 345.5 c 128,-1,8
 272 380 272 380 272 430 c 0,9,10
 272 478 272 478 244.5 504 c 128,-1,11
 217 530 217 530 158 530 c 0,12,13
 136 530 136 530 108.5 524.5 c 128,-1,14
 81 519 81 519 58 508 c 1,15,-1
 31 576 l 1,16,17
 55 587 55 587 90 595 c 128,-1,18
 125 603 125 603 161 603 c 0,19,20
 222 603 222 603 264.5 582.5 c 128,-1,21
 307 562 307 562 329.5 523 c 128,-1,22
 352 484 352 484 352 428 c 0,23,24
 352 373 352 373 320 329.5 c 128,-1,25
 288 286 288 286 234.5 261.5 c 128,-1,26
 181 237 181 237 117 237 c 0,27,28
 91 237 91 237 72.5 244 c 128,-1,29
 54 251 54 251 44.5 264.5 c 128,-1,30
 35 278 35 278 35 297 c 256,31,32
 35 316 35 316 49.5 331 c 128,-1,33
 64 346 64 346 94 346 c 0,34,35
 125 346 125 346 145 333 c 128,-1,36
 165 320 165 320 187 295 c 1,37,-1
 201 257 l 1,38,39
 225 232 225 232 251.5 217.5 c 128,-1,40
 278 203 278 203 323 203 c 0,41,42
 386 203 386 203 422.5 227 c 128,-1,43
 459 251 459 251 487 279 c 1,44,-1
 487 191 l 1,45,46
 457 169 457 169 418 153.5 c 128,-1,47
 379 138 379 138 318 138 c 0,0,1
175 -21 m 1,48,-1
 125 48 l 1,49,-1
 396 194 l 1,50,-1
 418 221 l 1,51,-1
 506 200 l 1,52,-1
 175 -21 l 1,48,-1
634 0 m 2,53,54
 591 0 591 0 562.5 9.5 c 128,-1,55
 534 19 534 19 517 37 c 0,56,57
 501 54 501 54 493.5 79 c 128,-1,58
 486 104 486 104 486 148 c 2,59,-1
 486 603 l 1,60,-1
 566 592 l 1,61,-1
 566 152 l 2,62,63
 566 125 566 125 569 112.5 c 128,-1,64
 572 100 572 100 578 92 c 0,65,66
 589 78 589 78 610.5 75.5 c 128,-1,67
 632 73 632 73 652 73 c 1,68,-1
 645 0 l 1,69,-1
 634 0 l 2,53,54
EndSplineSet
Ligature2: "'rkrf' Rakar Forms lookup 75 subtable" cagujr viramagujr ragujr
Substitution2: "Single Substitution lookup 65 subtable" carastemgujr
EndChar

StartChar: jharagujr
Encoding: 65654 -1 212
Width: 698
GlyphClass: 2
Flags: W
AnchorPoint: "Anchor-1" 494 0 basechar 0
AnchorPoint: "Anchor-0" 456 603 basechar 0
LayerCount: 2
Fore
SplineSet
215 -10 m 0,0,1
 160 -10 160 -10 109 16 c 128,-1,2
 58 42 58 42 11 115 c 1,3,-1
 74 158 l 1,4,5
 105 113 105 113 134 88 c 128,-1,6
 163 63 163 63 213 63 c 0,7,8
 243 63 243 63 266 80 c 128,-1,9
 289 97 289 97 302.5 135 c 128,-1,10
 316 173 316 173 316 235 c 0,11,12
 316 327 316 327 284 373 c 128,-1,13
 252 419 252 419 188 419 c 0,14,15
 151 419 151 419 126.5 411.5 c 128,-1,16
 102 404 102 404 78 392 c 1,17,-1
 52 460 l 1,18,19
 84 474 84 474 122.5 483 c 128,-1,20
 161 492 161 492 195 492 c 0,21,22
 258 492 258 492 303.5 462.5 c 128,-1,23
 349 433 349 433 373.5 375 c 128,-1,24
 398 317 398 317 398 232 c 0,25,26
 398 157 398 157 381 109.5 c 128,-1,27
 364 62 364 62 336.5 36 c 128,-1,28
 309 10 309 10 277 0 c 128,-1,29
 245 -10 245 -10 215 -10 c 0,0,1
151 171 m 1,30,-1
 103 239 l 1,31,-1
 296 352 l 1,32,-1
 316 364 l 1,33,-1
 356 309 l 1,34,-1
 151 171 l 1,30,-1
537 -6 m 1,35,-1
 481 55 l 1,36,37
 532 93 532 93 554 131 c 128,-1,38
 576 169 576 169 576 221 c 0,39,40
 576 277 576 277 546.5 309 c 128,-1,41
 517 341 517 341 467 341 c 0,42,43
 437 341 437 341 407.5 329 c 128,-1,44
 378 317 378 317 353 291 c 1,45,-1
 320 362 l 1,46,47
 348 383 348 383 385 397.5 c 128,-1,48
 422 412 422 412 466 412 c 0,49,50
 526 412 526 412 568.5 389 c 128,-1,51
 611 366 611 366 633.5 322.5 c 128,-1,52
 656 279 656 279 656 218 c 0,53,54
 656 154 656 154 628.5 100 c 128,-1,55
 601 46 601 46 537 -6 c 1,35,-1
536 391 m 1,56,-1
 456 393 l 1,57,-1
 456 603 l 1,58,-1
 536 592 l 1,59,-1
 536 391 l 1,56,-1
EndSplineSet
Ligature2: "'rkrf' Rakar Forms lookup 75 subtable" jhagujr viramagujr ragujr
EndChar

StartChar: nyaragujr
Encoding: 65655 -1 213
Width: 692
Flags: W
LayerCount: 2
Fore
SplineSet
208 178 m 0,0,1
 174 178 174 178 140 190 c 128,-1,2
 106 202 106 202 74 229.5 c 128,-1,3
 42 257 42 257 11 303 c 1,4,-1
 74 346 l 1,5,6
 108 295 108 295 138 273 c 128,-1,7
 168 251 168 251 206 251 c 0,8,9
 247 251 247 251 273 282 c 128,-1,10
 299 313 299 313 299 384 c 0,11,12
 299 461 299 461 269.5 495.5 c 128,-1,13
 240 530 240 530 188 530 c 0,14,15
 157 530 157 530 129 522.5 c 128,-1,16
 101 515 101 515 79 503 c 1,17,-1
 54 570 l 1,18,19
 87 587 87 587 123.5 595 c 128,-1,20
 160 603 160 603 192 603 c 0,21,22
 248 603 248 603 289.5 579.5 c 128,-1,23
 331 556 331 556 354.5 507.5 c 128,-1,24
 378 459 378 459 378 383 c 0,25,26
 378 319 378 319 363 279 c 128,-1,27
 348 239 348 239 323 217 c 128,-1,28
 298 195 298 195 268 186.5 c 128,-1,29
 238 178 238 178 208 178 c 0,0,1
295 -7 m 1,30,-1
 246 60 l 1,31,-1
 517 220 l 1,32,-1
 537 232 l 1,33,-1
 577 177 l 1,34,-1
 295 -7 l 1,30,-1
417 332 m 0,35,36
 389 332 389 332 362.5 338.5 c 128,-1,37
 336 345 336 345 311 361 c 1,38,-1
 316 450 l 1,39,40
 336 428 336 428 359.5 416 c 128,-1,41
 383 404 383 404 416 404 c 0,42,43
 460 404 460 404 491.5 421 c 128,-1,44
 523 438 523 438 545 472 c 1,45,-1
 561 389 l 1,46,47
 533 360 533 360 499 346 c 128,-1,48
 465 332 465 332 417 332 c 0,35,36
666 0 m 2,49,50
 623 0 623 0 594 9.5 c 128,-1,51
 565 19 565 19 548 37 c 0,52,53
 532 54 532 54 524.5 79 c 128,-1,54
 517 104 517 104 517 148 c 2,55,-1
 517 603 l 1,56,-1
 597 592 l 1,57,-1
 597 152 l 2,58,59
 597 125 597 125 600 112.5 c 128,-1,60
 603 100 603 100 609 92 c 0,61,62
 620 78 620 78 641.5 75.5 c 128,-1,63
 663 73 663 73 684 73 c 1,64,-1
 676 0 l 1,65,-1
 666 0 l 2,49,50
EndSplineSet
Ligature2: "'rkrf' Rakar Forms lookup 75 subtable" nyagujr viramagujr ragujr
Substitution2: "Single Substitution lookup 65 subtable" nyarastemgujr
EndChar

StartChar: nnaragujr
Encoding: 65660 -1 218
Width: 822
Flags: W
LayerCount: 2
Fore
SplineSet
425 -142 m 1,0,-1
 360 -97 l 1,1,2
 373 -82 373 -82 380.5 -67 c 128,-1,3
 388 -52 388 -52 388 -35 c 0,4,5
 388 -8 388 -8 368.5 11.5 c 128,-1,6
 349 31 349 31 302 52 c 2,7,-1
 163 114 l 2,8,9
 126 131 126 131 107.5 152 c 128,-1,10
 89 173 89 173 82 203.5 c 128,-1,11
 75 234 75 234 75 276 c 2,12,-1
 75 603 l 1,13,-1
 155 592 l 1,14,-1
 155 291 l 2,15,16
 155 262 155 262 157 241 c 128,-1,17
 159 220 159 220 170 204.5 c 128,-1,18
 181 189 181 189 207 177 c 2,19,-1
 346 113 l 2,20,21
 416 81 416 81 444 49 c 128,-1,22
 472 17 472 17 472 -30 c 0,23,24
 472 -64 472 -64 457 -92 c 128,-1,25
 442 -120 442 -120 425 -142 c 1,0,-1
494 68 m 1,26,-1
 444 137 l 1,27,-1
 647 255 l 1,28,-1
 674 270 l 1,29,-1
 708 213 l 1,30,-1
 494 68 l 1,26,-1
398 210 m 0,31,32
 367 210 367 210 335 221.5 c 128,-1,33
 303 233 303 233 273 255.5 c 128,-1,34
 243 278 243 278 217 310 c 1,35,-1
 277 355 l 1,36,37
 302 324 302 324 330 303 c 128,-1,38
 358 282 358 282 396 282 c 0,39,40
 429 282 429 282 452 307 c 128,-1,41
 475 332 475 332 475 404 c 0,42,43
 475 472 475 472 449.5 502 c 128,-1,44
 424 532 424 532 380 532 c 0,45,46
 354 532 354 532 330.5 526.5 c 128,-1,47
 307 521 307 521 284 509 c 1,48,-1
 259 574 l 1,49,50
 291 590 291 590 323.5 596.5 c 128,-1,51
 356 603 356 603 385 603 c 0,52,53
 435 603 435 603 473.5 580.5 c 128,-1,54
 512 558 512 558 533.5 514 c 128,-1,55
 555 470 555 470 555 404 c 0,56,57
 555 343 555 343 541 305 c 128,-1,58
 527 267 527 267 504 246.5 c 128,-1,59
 481 226 481 226 453 218 c 128,-1,60
 425 210 425 210 398 210 c 0,31,32
795 0 m 2,61,62
 752 0 752 0 723.5 9.5 c 128,-1,63
 695 19 695 19 678 37 c 0,64,65
 662 54 662 54 654.5 79 c 128,-1,66
 647 104 647 104 647 148 c 2,67,-1
 647 603 l 1,68,-1
 727 592 l 1,69,-1
 727 152 l 2,70,71
 727 125 727 125 730 112.5 c 128,-1,72
 733 100 733 100 739 92 c 0,73,74
 750 78 750 78 771.5 75.5 c 128,-1,75
 793 73 793 73 813 73 c 1,76,-1
 806 0 l 1,77,-1
 795 0 l 2,61,62
EndSplineSet
Ligature2: "'rkrf' Rakar Forms lookup 75 subtable" nnagujr viramagujr ragujr
Substitution2: "Single Substitution lookup 65 subtable" nnarastemgujr
EndChar

StartChar: taragujr
Encoding: 65661 -1 219
Width: 582
Flags: W
LayerCount: 2
Fore
SplineSet
556 0 m 2,0,1
 513 0 513 0 484 9.5 c 128,-1,2
 455 19 455 19 438 37 c 0,3,4
 422 54 422 54 414.5 79 c 128,-1,5
 407 104 407 104 407 148 c 2,6,-1
 407 603 l 1,7,-1
 487 592 l 1,8,-1
 487 152 l 2,9,10
 487 124 487 124 490 113 c 128,-1,11
 493 102 493 102 500 92 c 0,12,13
 511 78 511 78 533 75.5 c 128,-1,14
 555 73 555 73 574 73 c 1,15,-1
 566 0 l 1,16,-1
 556 0 l 2,0,1
146 135 m 1,17,-1
 96 205 l 1,18,-1
 414 394 l 1,19,-1
 447 334 l 1,20,-1
 146 135 l 1,17,-1
348 334 m 1,21,22
 313 387 313 387 282.5 413.5 c 128,-1,23
 252 440 252 440 224 449 c 128,-1,24
 196 458 196 458 165 458 c 0,25,26
 128 458 128 458 100 449 c 128,-1,27
 72 440 72 440 40 423 c 1,28,-1
 11 493 l 1,29,30
 50 513 50 513 89 523 c 128,-1,31
 128 533 128 533 161 533 c 0,32,33
 213 533 213 533 250.5 518.5 c 128,-1,34
 288 504 288 504 323 471.5 c 128,-1,35
 358 439 358 439 401 383 c 1,36,-1
 348 334 l 1,21,22
EndSplineSet
Ligature2: "'rkrf' Rakar Forms lookup 75 subtable" tagujr viramagujr ragujr
Substitution2: "Single Substitution lookup 65 subtable" tarastemgujr
EndChar

StartChar: tharagujr
Encoding: 65662 -1 220
Width: 625
Flags: W
LayerCount: 2
Fore
SplineSet
270 152 m 0,0,1
 212 152 212 152 169.5 170.5 c 128,-1,2
 127 189 127 189 97.5 226.5 c 128,-1,3
 68 264 68 264 48 321 c 1,4,5
 111 340 111 340 154 362 c 128,-1,6
 197 384 197 384 218.5 412.5 c 128,-1,7
 240 441 240 441 240 477 c 0,8,9
 240 506 240 506 222.5 520.5 c 128,-1,10
 205 535 205 535 179 535 c 0,11,12
 150 535 150 535 133.5 522.5 c 128,-1,13
 117 510 117 510 117 489 c 0,14,15
 117 472 117 472 126.5 458 c 128,-1,16
 136 444 136 444 162 430 c 1,17,-1
 116 376 l 1,18,19
 76 398 76 398 58 426.5 c 128,-1,20
 40 455 40 455 40 491 c 0,21,22
 40 521 40 521 55.5 546.5 c 128,-1,23
 71 572 71 572 102 587.5 c 128,-1,24
 133 603 133 603 178 603 c 0,25,26
 216 603 216 603 242.5 592 c 128,-1,27
 269 581 269 581 286 562.5 c 128,-1,28
 303 544 303 544 310.5 521 c 128,-1,29
 318 498 318 498 318 474 c 0,30,31
 318 427 318 427 295 389.5 c 128,-1,32
 272 352 272 352 229 323 c 128,-1,33
 186 294 186 294 124 270 c 1,34,-1
 143 295 l 1,35,36
 160 261 160 261 191.5 239.5 c 128,-1,37
 223 218 223 218 276 218 c 0,38,39
 338 218 338 218 381 241.5 c 128,-1,40
 424 265 424 265 455 297 c 1,41,-1
 455 211 l 1,42,43
 435 196 435 196 410 182.5 c 128,-1,44
 385 169 385 169 351 160.5 c 128,-1,45
 317 152 317 152 270 152 c 0,0,1
137 -10 m 1,46,-1
 87 60 l 1,47,-1
 356 206 l 1,48,-1
 465 232 l 1,49,-1
 465 211 l 1,50,-1
 137 -10 l 1,46,-1
599 0 m 2,51,52
 556 0 556 0 528 9.5 c 128,-1,53
 500 19 500 19 482 37 c 0,54,55
 465 54 465 54 457.5 79 c 128,-1,56
 450 104 450 104 450 148 c 2,57,-1
 450 603 l 1,58,-1
 530 593 l 1,59,-1
 530 152 l 2,60,61
 530 124 530 124 533 112 c 128,-1,62
 536 100 536 100 545 90 c 0,63,64
 556 77 556 77 574.5 75 c 128,-1,65
 593 73 593 73 617 73 c 1,66,-1
 609 0 l 1,67,-1
 599 0 l 2,51,52
EndSplineSet
Ligature2: "'rkrf' Rakar Forms lookup 75 subtable" thagujr viramagujr ragujr
Substitution2: "Single Substitution lookup 65 subtable" tharastemgujr
EndChar

StartChar: daragujr
Encoding: 65663 -1 221
Width: 490
GlyphClass: 2
Flags: W
AnchorPoint: "Anchor-3" 222 603 basechar 0
AnchorPoint: "Anchor-1" 455 0 basechar 0
AnchorPoint: "Anchor-0" 322 603 basechar 0
LayerCount: 2
Fore
SplineSet
243 48 m 0,0,1
 175 48 175 48 131 72.5 c 128,-1,2
 87 97 87 97 65.5 135.5 c 128,-1,3
 44 174 44 174 44 215 c 0,4,5
 44 261 44 261 62.5 294 c 128,-1,6
 81 327 81 327 115 353.5 c 128,-1,7
 149 380 149 380 195 404 c 0,8,9
 249 432 249 432 276 449 c 128,-1,10
 303 466 303 466 312.5 480 c 128,-1,11
 322 494 322 494 322 513 c 0,12,13
 322 527 322 527 315.5 540.5 c 128,-1,14
 309 554 309 554 298 564 c 1,15,-1
 365 603 l 1,16,17
 383 582 383 582 394 558 c 128,-1,18
 405 534 405 534 405 504 c 0,19,20
 405 472 405 472 390 447 c 128,-1,21
 375 422 375 422 342.5 399 c 128,-1,22
 310 376 310 376 257 348 c 0,23,24
 213 325 213 325 184 306 c 128,-1,25
 155 287 155 287 140.5 266 c 128,-1,26
 126 245 126 245 126 214 c 0,27,28
 126 170 126 170 159 143.5 c 128,-1,29
 192 117 192 117 254 117 c 0,30,31
 294 117 294 117 328 125.5 c 128,-1,32
 362 134 362 134 393 153 c 1,33,-1
 338 117 l 1,34,35
 335 122 335 122 333 132 c 128,-1,36
 331 142 331 142 331 153 c 0,37,38
 331 179 331 179 348 194 c 128,-1,39
 365 209 365 209 393 209 c 0,40,41
 425 209 425 209 440.5 191 c 128,-1,42
 456 173 456 173 456 147 c 0,43,44
 456 116 456 116 435.5 96.5 c 128,-1,45
 415 77 415 77 384.5 66.5 c 128,-1,46
 354 56 354 56 321.5 52 c 128,-1,47
 289 48 289 48 265 48 c 0,48,49
 258 48 258 48 252.5 48 c 128,-1,50
 247 48 247 48 243 48 c 0,0,1
124 -110 m 1,51,-1
 75 -41 l 1,52,-1
 153 5 l 2,53,54
 176 19 176 19 200 31 c 128,-1,55
 224 43 224 43 251.5 55.5 c 128,-1,56
 279 68 279 68 312 82 c 1,57,-1
 334 118 l 1,58,-1
 413 92 l 1,59,-1
 124 -110 l 1,51,-1
465 -90 m 1,60,-1
 350 92 l 1,61,-1
 405 128 l 1,62,-1
 526 -54 l 1,63,-1
 465 -90 l 1,60,-1
EndSplineSet
Ligature2: "'rkrf' Rakar Forms lookup 75 subtable" dagujr viramagujr ragujr
Substitution2: "Single Substitution lookup 64 subtable" darasquishgujr
EndChar

StartChar: dharagujr
Encoding: 65664 -1 222
Width: 606
Flags: W
LayerCount: 2
Fore
SplineSet
260 114 m 0,0,1
 208 114 208 114 168 132 c 128,-1,2
 128 150 128 150 105.5 183 c 128,-1,3
 83 216 83 216 83 261 c 0,4,5
 83 303 83 303 102 337 c 128,-1,6
 121 371 121 371 160 391 c 128,-1,7
 199 411 199 411 259 411 c 0,8,9
 273 411 273 411 290 409 c 128,-1,10
 307 407 307 407 320 405 c 1,11,-1
 308 333 l 1,12,13
 298 335 298 335 284.5 336.5 c 128,-1,14
 271 338 271 338 257 338 c 0,15,16
 217 338 217 338 190.5 320.5 c 128,-1,17
 164 303 164 303 164 264 c 0,18,19
 164 222 164 222 191.5 200.5 c 128,-1,20
 219 179 219 179 273 179 c 0,21,22
 323 179 323 179 364.5 198 c 128,-1,23
 406 217 406 217 447 259 c 1,24,-1
 447 175 l 1,25,26
 428 161 428 161 403 146.5 c 128,-1,27
 378 132 378 132 343.5 123 c 128,-1,28
 309 114 309 114 260 114 c 0,0,1
149 -45 m 1,29,-1
 100 22 l 1,30,-1
 346 170 l 1,31,-1
 367 195 l 1,32,-1
 455 177 l 1,33,-1
 149 -45 l 1,29,-1
166 323 m 1,34,35
 137 338 137 338 108.5 359.5 c 128,-1,36
 80 381 80 381 62 411 c 128,-1,37
 44 441 44 441 44 481 c 0,38,39
 44 536 44 536 84 578.5 c 128,-1,40
 124 621 124 621 206 646 c 1,41,-1
 235 574 l 1,42,43
 187 561 187 561 163.5 543.5 c 128,-1,44
 140 526 140 526 132.5 508 c 128,-1,45
 125 490 125 490 125 474 c 0,46,47
 125 442 125 442 147.5 416.5 c 128,-1,48
 170 391 170 391 220 374 c 1,49,-1
 166 323 l 1,34,35
580 0 m 2,50,51
 537 0 537 0 508 9.5 c 128,-1,52
 479 19 479 19 462 37 c 0,53,54
 446 54 446 54 438.5 79 c 128,-1,55
 431 104 431 104 431 148 c 2,56,-1
 431 603 l 1,57,-1
 511 592 l 1,58,-1
 511 152 l 2,59,60
 511 125 511 125 514 112.5 c 128,-1,61
 517 100 517 100 523 92 c 0,62,63
 534 78 534 78 555.5 75.5 c 128,-1,64
 577 73 577 73 598 73 c 1,65,-1
 590 0 l 1,66,-1
 580 0 l 2,50,51
EndSplineSet
Ligature2: "'rkrf' Rakar Forms lookup 75 subtable" dhagujr viramagujr ragujr
Substitution2: "Single Substitution lookup 65 subtable" dharastemgujr
EndChar

StartChar: naragujr
Encoding: 65665 -1 223
Width: 546
Flags: W
LayerCount: 2
Fore
SplineSet
520 0 m 2,0,1
 485 0 485 0 454.5 7.5 c 128,-1,2
 424 15 424 15 403 37 c 0,3,4
 384 57 384 57 378 81.5 c 128,-1,5
 372 106 372 106 372 148 c 2,6,-1
 372 603 l 1,7,-1
 452 592 l 1,8,-1
 452 152 l 2,9,10
 452 125 452 125 455 112.5 c 128,-1,11
 458 100 458 100 464 92 c 0,12,13
 475 78 475 78 496 75.5 c 128,-1,14
 517 73 517 73 538 73 c 1,15,-1
 530 0 l 1,16,-1
 520 0 l 2,0,1
149 -8 m 1,17,-1
 101 60 l 1,18,-1
 372 220 l 1,19,-1
 392 232 l 1,20,-1
 431 177 l 1,21,-1
 149 -8 l 1,17,-1
140 214 m 0,22,23
 122 214 122 214 101.5 226.5 c 128,-1,24
 81 239 81 239 63.5 259 c 128,-1,25
 46 279 46 279 35 302.5 c 128,-1,26
 24 326 24 326 24 348 c 0,27,28
 24 371 24 371 37.5 385.5 c 128,-1,29
 51 400 51 400 84 400 c 2,30,-1
 376 400 l 1,31,-1
 376 328 l 1,32,-1
 191 328 l 1,33,-1
 191 271 l 2,34,35
 191 242 191 242 177 228 c 128,-1,36
 163 214 163 214 140 214 c 0,22,23
EndSplineSet
Ligature2: "'rkrf' Rakar Forms lookup 75 subtable" nagujr viramagujr ragujr
Substitution2: "Single Substitution lookup 65 subtable" narastemgujr
EndChar

StartChar: paragujr
Encoding: 65666 -1 224
Width: 568
Flags: W
LayerCount: 2
Fore
SplineSet
256 167 m 0,0,1
 219 167 219 167 192 175 c 128,-1,2
 165 183 165 183 143 204 c 0,3,4
 118 229 118 229 105.5 262 c 128,-1,5
 93 295 93 295 93 350 c 2,6,-1
 93 440 l 2,7,8
 93 467 93 467 90 479.5 c 128,-1,9
 87 492 87 492 81 500 c 0,10,11
 71 514 71 514 49 516.5 c 128,-1,12
 27 519 27 519 6 519 c 1,13,-1
 14 592 l 1,14,-1
 24 592 l 2,15,16
 68 592 68 592 96.5 582.5 c 128,-1,17
 125 573 125 573 142 555 c 0,18,19
 159 538 159 538 166 513 c 128,-1,20
 173 488 173 488 173 443 c 2,21,-1
 173 357 l 2,22,23
 173 311 173 311 181 288.5 c 128,-1,24
 189 266 189 266 202 253 c 0,25,26
 213 243 213 243 230.5 238 c 128,-1,27
 248 233 248 233 272 233 c 0,28,29
 312 233 312 233 347 252.5 c 128,-1,30
 382 272 382 272 405 298 c 1,31,-1
 405 217 l 1,32,33
 387 204 387 204 365 192.5 c 128,-1,34
 343 181 343 181 316 174 c 128,-1,35
 289 167 289 167 256 167 c 0,0,1
101 -9 m 1,36,-1
 51 58 l 1,37,-1
 297 206 l 1,38,-1
 318 232 l 1,39,-1
 406 211 l 1,40,-1
 101 -9 l 1,36,-1
542 0 m 2,41,42
 499 0 499 0 470 9.5 c 128,-1,43
 441 19 441 19 424 37 c 0,44,45
 408 54 408 54 400.5 79 c 128,-1,46
 393 104 393 104 393 148 c 2,47,-1
 393 603 l 1,48,-1
 473 592 l 1,49,-1
 473 152 l 2,50,51
 473 125 473 125 476 112.5 c 128,-1,52
 479 100 479 100 485 92 c 0,53,54
 496 78 496 78 517.5 75.5 c 128,-1,55
 539 73 539 73 560 73 c 1,56,-1
 552 0 l 1,57,-1
 542 0 l 2,41,42
EndSplineSet
Ligature2: "'rkrf' Rakar Forms lookup 75 subtable" pagujr viramagujr ragujr
Substitution2: "Single Substitution lookup 65 subtable" parastemgujr
EndChar

